<?xml version="1.0" standalone="no"?>
<!DOCTYPE svg PUBLIC "-//W3C//DTD SVG 1.1//EN" "http://www.w3.org/Graphics/SVG/1.1/DTD/svg11.dtd" >
<svg xmlns="http://www.w3.org/2000/svg" xmlns:xlink="http://www.w3.org/1999/xlink" version="1.1">
<metadata></metadata>
<defs>
<font id="centrale_sans_condensedlight" horiz-adv-x="1443" >
<font-face units-per-em="2048" ascent="1536" descent="-512" />
<missing-glyph horiz-adv-x="460" />
<glyph unicode="&#xfb01;" horiz-adv-x="954" d="M51 973v76l115 16v98q0 158 85 255.5t232 97.5q143 0 273 -93l-51 -80q-100 68 -211 68q-59 0 -101 -24t-63.5 -65t-31 -86t-9.5 -97v-74h522v-1065h-123v973h-399v-973h-123v973h-115z" />
<glyph unicode="&#xfb02;" horiz-adv-x="987" d="M49 973v76l115 16v70q0 176 89 278.5t230 102.5q137 0 232.5 -98t95.5 -277v-979q0 -43 15.5 -59.5t45.5 -16.5q10 0 23.5 2t22.5 4l8 2v-96q-48 -16 -103 -16q-67 0 -101 39t-34 100v1020q0 6 -0.5 15.5t-4 37.5t-10.5 53t-22 56.5t-36 53.5t-54.5 38t-75.5 16 q-91 0 -144.5 -71t-53.5 -205v-70h215v-92h-215v-973h-123v973h-115z" />
<glyph unicode="&#xfb03;" horiz-adv-x="1402" d="M51 973v76l115 16v145q0 148 64 227t184 79q61 0 125 -17l-25 -98q-39 10 -80 10q-75 0 -110 -46.5t-35 -145.5v-154h354v119q0 156 83 252t224 96q153 0 275 -80l-37 -82q-98 57 -225 57q-57 0 -97.5 -22.5t-61 -61.5t-29.5 -80t-9 -89v-109h494v-1065h-123v973h-371 v-973h-123v973h-354v-973h-123v973h-115z" />
<glyph unicode="&#xfb04;" horiz-adv-x="1464" d="M51 973v76l115 16v145q0 148 64 227t184 79q61 0 125 -17l-25 -98q-39 10 -80 10q-75 0 -110 -46.5t-35 -145.5v-154h354v86q0 176 89.5 278.5t230.5 102.5q137 0 232 -98t95 -277v-995q0 -43 16 -59.5t46 -16.5q10 0 23.5 2t21.5 4l8 2v-96q-48 -16 -102 -16 q-67 0 -101.5 39t-34.5 100v1036q0 6 -0.5 15.5t-4 37.5t-10.5 53t-22 56.5t-35.5 53.5t-54 38t-75.5 16q-92 0 -145.5 -71.5t-53.5 -204.5v-86h215v-92h-215v-973h-123v973h-354v-973h-123v973h-115z" />
<glyph horiz-adv-x="0" />
<glyph horiz-adv-x="0" />
<glyph horiz-adv-x="682" />
<glyph unicode="&#xd;" horiz-adv-x="507" />
<glyph unicode=" "  horiz-adv-x="460" />
<glyph unicode="&#x09;" horiz-adv-x="460" />
<glyph unicode="&#xa0;" horiz-adv-x="460" />
<glyph unicode="!" horiz-adv-x="468" d="M154 68q0 38 23 62t59 24q37 0 59 -24t22 -62q0 -37 -21.5 -60.5t-59.5 -23.5q-37 0 -59.5 23.5t-22.5 60.5zM156 1434h155l-30 -1065h-97z" />
<glyph unicode="&#x22;" horiz-adv-x="663" d="M145 938l15 500h137l-78 -500h-74zM397 938l19 500h137l-82 -500h-74z" />
<glyph unicode="#" horiz-adv-x="1355" d="M90 342l16 107h240l78 522h-240l17 106h239l54 361h106l-53 -361h377l55 361h106l-55 -361h234l-17 -106h-231l-80 -522h233l-16 -107h-231l-52 -342h-106l51 342h-377l-51 -342h-108l51 342h-240zM455 449h374l80 522h-377z" />
<glyph unicode="$" horiz-adv-x="1017" d="M113 86l41 90q179 -88 356 -88q134 0 207.5 73.5t73.5 203.5q0 26 -3.5 48.5t-12.5 42.5t-16.5 35.5t-25.5 32t-28 26.5t-35 24t-35.5 20.5t-41 19.5t-41 17t-44.5 18l-63 25.5t-60.5 26.5t-61.5 31.5t-55 36t-51.5 43t-40.5 50.5t-33.5 61t-19.5 71t-8 85 q0 168 93.5 265t264.5 108v180h82v-180q155 -7 319 -88l-36 -94q-28 13 -66.5 27t-113 30t-140.5 16q-122 0 -197 -69t-75 -193q0 -31 6 -58.5t13.5 -49t25 -42.5t30 -35t39 -30.5t41.5 -25.5t48.5 -23.5t48.5 -20t53 -20.5q50 -20 78.5 -32t73.5 -35.5t71.5 -43.5 t58.5 -52.5t49.5 -67t29.5 -81.5t12 -102q0 -169 -97 -267.5t-272 -112.5v-168h-82v168q-179 11 -360 104z" />
<glyph unicode="%" horiz-adv-x="1402" d="M78 1102q0 152 76.5 251t199.5 99q120 0 195.5 -98.5t75.5 -249.5q0 -148 -76 -245t-199 -97q-121 0 -196.5 96.5t-75.5 243.5zM190 1108q0 -106 46 -175t118 -69t115 67.5t43 172.5q0 109 -43.5 177.5t-116.5 68.5q-72 0 -117 -68t-45 -174zM287 0l704 1434h121 l-704 -1434h-121zM778 322q0 152 77 251t200 99q120 0 195 -98.5t75 -249.5q0 -148 -75.5 -245t-198.5 -97q-121 0 -197 96.5t-76 243.5zM891 328q0 -106 46 -175t118 -69t114.5 67.5t42.5 172.5q0 109 -43 177t-116 68q-72 0 -117 -67.5t-45 -173.5z" />
<glyph unicode="&#x26;" horiz-adv-x="1142" d="M74 383q0 73 20.5 136t62 116t89 95.5t114.5 88.5q-3 5 -27.5 38t-30 40.5t-25.5 37t-26 42.5t-19 39.5t-17.5 45.5t-9 44t-4.5 49q0 119 76.5 208t201.5 89q119 0 202 -81t83 -208q0 -113 -67 -197t-193 -167l342 -463q6 4 19.5 35t27.5 93t14 126h103q0 -202 -90 -354 l176 -236h-131l-111 152q-126 -170 -352 -170q-184 0 -306 109t-122 292zM188 399q0 -141 89 -225t223 -84q83 0 160 37.5t128 114.5l-370 495q-230 -137 -230 -338zM299 1159q0 -25 6 -50t13 -43.5t25.5 -47.5t28.5 -44t37.5 -52.5t39.5 -53.5q111 75 165 139.5t54 151.5 q0 86 -53 140.5t-132 54.5q-82 0 -133 -55.5t-51 -139.5z" />
<glyph unicode="'" horiz-adv-x="409" d="M147 938l15 500h137l-78 -500h-74z" />
<glyph unicode="(" horiz-adv-x="608" d="M92 598q0 143 38 281t100.5 246t125 187.5t129.5 139.5l56 -74q-46 -49 -84 -96.5t-84 -123t-77 -154t-52 -185.5t-21 -221q-1 -116 20.5 -223.5t52.5 -186.5t78 -155.5t84.5 -123.5t84.5 -97l-58 -76q-67 62 -129.5 140.5t-125 187.5t-100.5 248.5t-38 285.5z" />
<glyph unicode=")" horiz-adv-x="606" d="M66 -188q47 49 84.5 96.5t84 124t77.5 155.5t52.5 186.5t20.5 223.5q0 447 -319 780l57 74q52 -47 102 -105t103.5 -141.5t93.5 -173.5t66 -204t26 -230q0 -118 -26 -233.5t-65.5 -206t-94 -175t-104 -142t-101.5 -105.5z" />
<glyph unicode="*" horiz-adv-x="759" d="M125 1110l207 121l-207 119l43 73l188 -153l-18 276h82l-19 -274l189 151l45 -73l-211 -119l211 -121l-45 -74l-189 152l19 -270h-82l18 272l-188 -154z" />
<glyph unicode="+" horiz-adv-x="894" d="M115 616v91h291v348h86v-348h290v-91h-290v-348h-86v348h-291z" />
<glyph unicode="," horiz-adv-x="432" d="M133 57q0 33 22 55.5t52 22.5q49 0 75.5 -45t26.5 -106q0 -80 -44.5 -140.5t-106.5 -97.5l-23 39q48 39 77.5 102t12.5 121q-4 -18 -30 -18q-29 0 -45.5 18.5t-16.5 48.5z" />
<glyph unicode="-" horiz-adv-x="886" d="M133 618v91h621v-91h-621z" />
<glyph unicode="." horiz-adv-x="397" d="M129 63q0 31 20 52.5t48 21.5q29 0 50 -21.5t21 -52.5q0 -33 -20.5 -53t-50.5 -20q-29 0 -48.5 20t-19.5 53z" />
<glyph unicode="/" horiz-adv-x="835" d="M66 -70q84 222 289 758t311 817h104l-602 -1575h-102z" />
<glyph unicode="0" horiz-adv-x="1218" d="M109 719q0 206 60 372t175 263.5t266 97.5q149 0 263.5 -96.5t174.5 -261.5t60 -371q0 -209 -59.5 -376.5t-174.5 -266t-266 -98.5q-149 0 -263.5 97t-175 264t-60.5 376zM238 719q0 -180 43 -321t128.5 -223.5t200.5 -82.5q113 0 197.5 82t128 222.5t43.5 320.5 q0 178 -43.5 318.5t-128.5 223t-199 82.5q-113 0 -198 -81.5t-128.5 -221.5t-43.5 -319z" />
<glyph unicode="1" horiz-adv-x="579" d="M59 1272l246 162h96v-1434h-122v1290l-179 -104z" />
<glyph unicode="2" horiz-adv-x="997" d="M94 0v106l420 474q55 63 100.5 128.5t85 156t39.5 163.5q0 143 -83.5 226t-219.5 83q-16 0 -32 -1.5t-30 -4t-31 -7t-28 -7.5t-29 -10t-26 -10t-25.5 -11.5t-22 -10.5t-22 -10.5t-18.5 -9.5l-49 86q187 111 340 111q171 0 282 -112.5t111 -303.5q0 -80 -24 -157 t-74.5 -153t-80 -113t-87.5 -103q-2 -3 -3.5 -5t-4 -4.5l-4.5 -4.5l-338 -387h655v-109h-801z" />
<glyph unicode="3" horiz-adv-x="980" d="M106 80l41 92q147 -80 275 -80q144 0 239 87.5t95 234.5q0 77 -30 138.5t-79.5 98t-108.5 55.5t-122 19h-88v92h102q110 0 193.5 73t83.5 197q0 120 -79 187t-200 67q-126 0 -254 -49l-29 86q63 30 149 52t163 22q160 0 265 -95.5t105 -252.5q0 -123 -66.5 -214.5 t-168.5 -121.5q133 -37 210 -132t77 -241q0 -187 -123.5 -300t-311.5 -113q-186 0 -338 98z" />
<glyph unicode="4" horiz-adv-x="1056" d="M68 365v94l645 975h106v-973h156v-96h-156v-365h-123v365h-628zM197 461h499v762z" />
<glyph unicode="5" horiz-adv-x="1003" d="M102 86l45 90q149 -84 283 -84q171 0 262.5 104.5t91.5 266.5q0 151 -87.5 252.5t-223.5 101.5q-130 0 -235 -98l-88 47l71 668h633v-109h-549l-51 -491q104 81 244 81q181 0 295 -127.5t114 -324.5q0 -215 -125.5 -348t-337.5 -133q-62 0 -112.5 8t-97.5 28t-66 30 t-66 38z" />
<glyph unicode="6" horiz-adv-x="1071" d="M113 674q0 71 5 138.5t19.5 147t37 147.5t61 133t88 111t121.5 73.5t159 27.5q174 0 318 -88l-43 -94q-144 71 -265 71q-83 0 -150.5 -32.5t-121.5 -101.5t-84.5 -188.5t-32.5 -281.5q0 -14 2 -39q42 107 132.5 168.5t213.5 61.5q173 0 286.5 -127.5t113.5 -341.5 q0 -134 -50 -241.5t-146.5 -171.5t-223.5 -64q-111 0 -195.5 49.5t-137.5 141.5t-80 218t-27 283zM244 453q0 -143 87 -253t222 -110q133 0 216 106.5t83 258.5q0 160 -82.5 264t-212.5 104q-133 0 -223 -107t-90 -263z" />
<glyph unicode="7" horiz-adv-x="919" d="M86 1325v109h784v-109l-510 -1325h-120l508 1325h-662z" />
<glyph unicode="8" horiz-adv-x="1024" d="M96 391q0 148 77.5 245.5t188.5 131.5q-95 30 -148.5 118.5t-53.5 205.5q0 165 104.5 262.5t247.5 97.5q69 0 132 -24.5t112 -69t78.5 -114t29.5 -152.5q0 -117 -54 -205.5t-148 -118.5q111 -34 188.5 -131.5t77.5 -245.5q0 -94 -35 -172.5t-93.5 -129t-132.5 -78.5 t-155 -29q-81 1 -155 29t-132.5 78.5t-93.5 129t-35 172.5zM213 395q0 -137 85.5 -223t213.5 -86t213.5 86t85.5 223q0 136 -83 223t-216 87t-216 -87t-83 -223zM272 1081q0 -116 66 -192t174 -76t174 76t66 192q0 124 -70.5 196.5t-169.5 72.5t-169.5 -72.5t-70.5 -196.5z " />
<glyph unicode="9" horiz-adv-x="1071" d="M98 975q0 134 50 241.5t146.5 171.5t223.5 64q111 0 195.5 -49.5t137.5 -141.5t80 -218t27 -283q0 -71 -5 -138.5t-19.5 -147t-37 -147.5t-61 -133t-88 -111t-121.5 -73.5t-159 -27.5q-173 0 -317 88l43 94q146 -72 264 -72q83 0 150.5 32.5t121.5 101.5t84.5 188.5 t32.5 281.5q0 10 -2 35q-42 -105 -133 -167t-213 -62q-178 0 -289 127.5t-111 345.5zM219 979q0 -166 81 -271.5t214 -105.5q86 0 159 54t113.5 141t40.5 184q0 92 -37 174t-109.5 135t-162.5 53q-133 0 -216 -106t-83 -258z" />
<glyph unicode=":" horiz-adv-x="405" d="M133 63q0 31 20.5 52.5t49.5 21.5t49 -21.5t20 -52.5q0 -33 -19.5 -53t-49.5 -20t-50 20t-20 53zM133 836q0 31 20.5 52t49.5 21t49 -21t20 -52q0 -33 -19.5 -53.5t-49.5 -20.5t-50 20.5t-20 53.5z" />
<glyph unicode=";" horiz-adv-x="464" d="M147 61q0 33 20.5 54.5t51.5 21.5q50 0 77.5 -44.5t27.5 -104.5q0 -80 -44.5 -140.5t-107.5 -97.5l-22 39q48 36 77 99t13 124q-2 -7 -11 -12.5t-20 -5.5q-29 0 -45.5 18t-16.5 49zM154 836q0 31 20 52t49 21t49.5 -21t20.5 -52q0 -33 -20 -53.5t-50 -20.5t-49.5 20.5 t-19.5 53.5z" />
<glyph unicode="&#x3c;" horiz-adv-x="759" d="M102 651v78q462 275 502 299v-102l-393 -236q33 -20 397 -237v-105z" />
<glyph unicode="=" horiz-adv-x="876" d="M141 465v90h594v-90h-594zM141 786v91h594v-91h-594z" />
<glyph unicode="&#x3e;" horiz-adv-x="757" d="M150 348v105l395 237q-165 98 -391 236v102l499 -299v-78z" />
<glyph unicode="?" horiz-adv-x="833" d="M88 1343q56 48 139 78.5t160 30.5q66 0 129.5 -23t116 -65t85 -109t32.5 -147q0 -60 -18.5 -112.5t-47.5 -92t-64.5 -76t-71 -70.5t-64.5 -69t-47.5 -79t-18.5 -93v-147h-101v110q0 86 33 157.5t79.5 121.5t93 97t79.5 108.5t33 132.5q0 118 -75.5 181.5t-178.5 63.5 q-65 0 -131.5 -25t-114.5 -61zM287 66q0 38 23.5 62t60.5 24q35 0 57.5 -24t22.5 -62q0 -37 -22 -60.5t-58 -23.5q-37 0 -60.5 23.5t-23.5 60.5z" />
<glyph unicode="@" horiz-adv-x="1615" d="M100 602q0 179 54 335.5t149.5 270t233.5 179t299 65.5q144 0 269.5 -52.5t221 -151t150.5 -251.5t55 -342q0 -103 -16.5 -185t-50.5 -144.5t-91.5 -96.5t-134.5 -34q-98 0 -150 53t-57 145q-26 -94 -97 -146t-163 -52q-105 0 -176.5 66.5t-71.5 187.5q0 68 24.5 118.5 t67 78t92 40t107.5 12.5q40 0 90 -5t79 -10l30 -5v88q0 118 -48.5 162.5t-144.5 44.5q-91 0 -207 -33l-16 61q125 46 248 46q129 0 188.5 -67t59.5 -210v-360q0 -75 40 -110.5t105 -35.5q211 0 211 375q0 149 -33 271t-90.5 205.5t-135.5 141t-166.5 83.5t-186.5 26 q-146 0 -269 -59.5t-207 -162t-131 -243.5t-47 -301q0 -121 26 -231t78 -203t125 -161.5t172.5 -107t215.5 -38.5q135 0 246 51l28 -70q-135 -63 -280 -63q-156 0 -287.5 64.5t-220 176t-138 262t-49.5 322.5zM602 449q0 -84 49 -133.5t129 -49.5q99 0 166.5 71t67.5 173 v104q-96 21 -180 21q-46 0 -84.5 -9t-73 -28.5t-54.5 -57.5t-20 -91z" />
<glyph unicode="A" horiz-adv-x="1148" d="M53 0l439 1444h165l439 -1444h-131l-121 399h-545l-119 -399h-127zM330 502h485l-242 811h-4z" />
<glyph unicode="B" horiz-adv-x="1161" d="M176 0v1434h471q150 0 252 -107t102 -276q0 -121 -53.5 -203.5t-142.5 -114.5q109 -25 185.5 -120t76.5 -238q0 -164 -102 -269.5t-254 -105.5h-535zM303 109h387q113 0 181.5 79.5t68.5 198.5q0 122 -71.5 204.5t-186.5 82.5h-379v-565zM303 774h342q100 0 168 70.5 t68 189.5q0 127 -68 209t-180 82h-330v-551z" />
<glyph unicode="C" horiz-adv-x="1167" d="M94 717q0 157 50.5 294.5t136 234t202.5 151.5t248 55q199 0 356 -104l-47 -97q-144 88 -307 88q-140 0 -256.5 -82.5t-183 -225t-66.5 -314.5t66.5 -315t183 -225.5t256.5 -82.5q160 0 307 88l47 -98q-72 -44 -167.5 -73t-188.5 -29q-131 0 -248 55t-202.5 151 t-136 233.5t-50.5 295.5z" />
<glyph unicode="D" horiz-adv-x="1247" d="M176 0v1434h422q158 0 281 -86q130 -90 198 -257t68 -374q0 -202 -65.5 -370t-202.5 -261q-127 -86 -279 -86h-422zM303 109h272q129 0 228 71q106 75 158.5 216t52.5 321t-52.5 321.5t-158.5 216.5q-98 70 -228 70h-272v-1216z" />
<glyph unicode="E" horiz-adv-x="1126" d="M176 0v1434h836v-109h-709v-575h610v-105h-610v-536h733v-109h-860z" />
<glyph unicode="F" horiz-adv-x="1067" d="M176 0v1434h836v-109h-709v-586h610v-104h-610v-635h-127z" />
<glyph unicode="G" horiz-adv-x="1304" d="M96 715q0 209 86 378.5t234 264t327 94.5q211 0 385 -111l-49 -94q-155 92 -331 92q-151 0 -270.5 -85t-184 -227t-64.5 -312q0 -173 65 -314.5t182 -224t263 -82.5q185 0 340 160v352h-329v105h448v-506q-98 -114 -223.5 -168.5t-249.5 -54.5q-129 0 -245 56 t-200.5 152.5t-134 233.5t-49.5 291z" />
<glyph unicode="H" horiz-adv-x="1314" d="M176 0v1434h127v-660h709v660h127v-1434h-127v670h-709v-670h-127z" />
<glyph unicode="I" horiz-adv-x="481" d="M176 0v1434h127v-1434h-127z" />
<glyph unicode="J" horiz-adv-x="903" d="M20 231l76 50q116 -187 275 -187q123 0 182 92t59 238v1010h127v-971q0 -104 -22 -188.5t-66 -148t-115.5 -98t-166.5 -34.5q-67 0 -129 25.5t-105.5 65t-72 77t-42.5 69.5z" />
<glyph unicode="K" horiz-adv-x="1110" d="M176 0v1434h127v-430l-4 -410l4 -2l279 397l317 445h150l-457 -639l502 -795h-148l-432 696l-211 -282v-414h-127z" />
<glyph unicode="L" horiz-adv-x="1007" d="M176 0v1434h127v-1325h674v-109h-801z" />
<glyph unicode="M" horiz-adv-x="1601" d="M176 0v1434h180l445 -1203l444 1203h178v-1434h-127v1231l-432 -1147h-129l-432 1147v-1231h-127z" />
<glyph unicode="N" horiz-adv-x="1286" d="M176 0v1434h135l674 -1219h2l-4 756v463h127v-1434h-139l-670 1221h-2l4 -592v-629h-127z" />
<glyph unicode="O" d="M96 717q0 206 79.5 374t223.5 264.5t324 96.5t324 -96.5t223.5 -264.5t79.5 -374q0 -203 -77.5 -370t-222 -265.5t-327.5 -99.5q-182 1 -326.5 99.5t-222.5 265.5t-78 370zM229 715q0 -174 62 -315t175.5 -222.5t256.5 -81.5q144 0 257.5 81.5t176 222.5t62.5 315 q0 171 -63.5 313.5t-177.5 226.5t-255 84q-140 0 -253.5 -82t-177 -225t-63.5 -317z" />
<glyph unicode="P" horiz-adv-x="1112" d="M176 0v1434h481q170 0 283 -122t113 -304t-115 -304t-281 -122h-354v-582h-127zM303 690h346q124 0 204.5 90.5t80.5 225.5t-80.5 227t-204.5 92h-346v-635z" />
<glyph unicode="Q" horiz-adv-x="1437" d="M94 719q0 205 79 372.5t222 264t322 96.5q135 0 252 -56.5t198 -154.5t127.5 -233t46.5 -289q0 -127 -37 -246t-97.5 -209t-136.5 -155t-157 -95v-4q87 -58 207 -105.5t174 -58.5l-30 -106q-102 25 -238.5 94.5t-241.5 149.5q-34 -2 -67 -2q-181 0 -324.5 98.5 t-221 266.5t-77.5 372zM225 717q0 -175 62 -317t175 -224t255 -82q143 0 256.5 84t175 226t61.5 313q0 173 -63 315.5t-176.5 224.5t-253.5 82t-253 -82t-176 -224.5t-63 -315.5z" />
<glyph unicode="R" horiz-adv-x="1175" d="M176 0v1434h490q175 0 288 -115.5t113 -288.5q0 -153 -70 -252t-198 -143l309 -635h-139l-299 625h-367v-625h-127zM303 729h391q106 0 180 85t74 216q0 124 -77 209.5t-207 85.5h-361v-596z" />
<glyph unicode="S" horiz-adv-x="1030" d="M94 88l41 94q210 -92 369 -92q151 0 231 73t80 197q0 31 -6.5 59t-16 50t-28.5 43t-34 36t-44 32t-47 26.5t-54 24.5t-54.5 22t-57.5 21q-46 17 -78.5 30.5t-74 35t-70 43t-58 52.5t-47.5 65t-29.5 79.5t-11.5 97.5q0 182 112 278.5t304 96.5q101 0 203.5 -25.5 t173.5 -60.5l-39 -94l-7 3q-7 3 -17.5 7t-25.5 9.5t-33.5 11t-39.5 11.5t-45 11t-48.5 9t-51.5 6.5t-53 2.5q-137 0 -219 -69.5t-82 -192.5q0 -38 9.5 -70.5t22.5 -56.5t39 -47t47 -38t59 -33t62 -27.5t68 -26.5q154 -59 209 -90q148 -83 184 -221q12 -49 12 -106 q0 -127 -56.5 -214.5t-152.5 -128t-225 -40.5q-203 0 -420 106z" />
<glyph unicode="T" horiz-adv-x="1017" d="M20 1327v107h977v-107h-422v-1327h-126v1327h-429z" />
<glyph unicode="U" horiz-adv-x="1247" d="M164 457v977h127v-988q0 -155 92 -253.5t242 -98.5q149 0 240 98.5t91 253.5v988h127v-977q0 -213 -124.5 -344t-333.5 -131q-214 0 -337.5 133t-123.5 342z" />
<glyph unicode="V" horiz-adv-x="1122" d="M43 1434h137l385 -1272l383 1272h133l-438 -1434h-158z" />
<glyph unicode="W" horiz-adv-x="1697" d="M55 1434h131l301 -1299l281 1299h164l280 -1299l301 1299h121l-340 -1434h-172l-274 1274l-275 -1274h-172z" />
<glyph unicode="X" horiz-adv-x="1132" d="M35 1434h147l387 -617h4l388 617h137l-459 -721l457 -713h-150l-381 608h-4l-381 -608h-141l455 713z" />
<glyph unicode="Y" horiz-adv-x="1060" d="M35 1434h139l356 -719h9l352 719h131l-430 -848v-586h-121v586z" />
<glyph unicode="Z" horiz-adv-x="1060" d="M61 0v90l775 1235l-5 4l-294 -4h-451v109h907v-91l-776 -1232l2 -7l295 5h469v-109h-922z" />
<glyph unicode="[" horiz-adv-x="524" d="M162 -375v1827h278v-100h-176v-1631h176v-96h-278z" />
<glyph unicode="\" horiz-adv-x="837" d="M68 1505h102q100 -262 300.5 -787.5t301.5 -787.5h-102z" />
<glyph unicode="]" horiz-adv-x="524" d="M84 -279h176v1631h-176v100h278v-1827h-278v96z" />
<glyph unicode="_" horiz-adv-x="985" d="M133 -182h721v-90h-721v90z" />
<glyph unicode="`" horiz-adv-x="507" d="M158 1466l90 52l108 -314h-77z" />
<glyph unicode="a" horiz-adv-x="991" d="M66 303q0 90 31 157.5t86.5 107t124.5 58.5t151 19q110 0 252 -27v113q0 74 -16.5 123.5t-50.5 75t-75 35.5t-100 10q-146 0 -289 -47l-24 98q176 57 329 57q176 0 262.5 -80.5t86.5 -259.5v-596q0 -34 14 -44.5t41 -10.5l47 4v-88q-40 -16 -100 -16q-125 0 -125 143v35 q-37 -78 -118 -133t-200 -55q-144 0 -235.5 82.5t-91.5 238.5zM188 309q0 -59 19.5 -103.5t53 -68.5t70.5 -35.5t79 -11.5q129 0 215 91t86 237v98q-111 25 -238 25q-43 0 -81 -6t-76.5 -22t-66 -41t-44.5 -67t-17 -96z" />
<glyph unicode="b" horiz-adv-x="1122" d="M145 0v1499h123v-639q44 101 141.5 162t202.5 61q122 0 219.5 -73t151 -199t53.5 -279t-54 -278.5t-151.5 -198.5t-220.5 -73q-118 0 -212.5 67t-135.5 170l-16 -219h-101zM270 532q0 -191 89 -316.5t229 -125.5t230.5 126.5t90.5 315.5q0 123 -39.5 224t-113 160 t-166.5 59q-137 0 -228.5 -126t-91.5 -317z" />
<glyph unicode="c" horiz-adv-x="903" d="M84 532q0 152 62 278t173 199.5t248 73.5q127 0 262 -69l-38 -90q-3 3 -28.5 14t-76.5 24t-98 13q-84 0 -156.5 -37.5t-120.5 -99.5t-75 -141.5t-27 -164.5q0 -114 45.5 -214t134 -164t199.5 -64q93 0 203 49l38 -90q-134 -67 -262 -67q-137 0 -248 72.5t-173 198.5 t-62 279z" />
<glyph unicode="d" horiz-adv-x="1122" d="M86 532q0 153 53.5 279t151 199t219.5 73q105 0 202.5 -61t141.5 -162v639h123v-1499h-100l-17 219q-41 -103 -135.5 -170t-212.5 -67q-123 0 -220.5 73t-151.5 198.5t-54 278.5zM213 532q0 -189 91 -315.5t231 -126.5t228.5 125.5t88.5 316.5t-91.5 317t-228.5 126 q-93 0 -166.5 -59t-113 -160t-39.5 -224z" />
<glyph unicode="e" horiz-adv-x="1017" d="M84 532q0 151 53.5 276t156.5 200t236 75q128 0 224 -74.5t143 -190t47 -251.5q0 -59 -4 -82h-727q9 -167 111.5 -281t255.5 -114q116 0 266 70l35 -92q-164 -86 -322 -86q-139 0 -248.5 74.5t-168 199.5t-58.5 276zM213 582h602v8q0 67 -15 130q-16 67 -47.5 125.5 t-87.5 94t-128 35.5q-141 0 -229.5 -109.5t-94.5 -283.5z" />
<glyph unicode="f" horiz-adv-x="573" d="M55 973v76l115 16v109q0 176 55.5 259t194.5 83q58 0 137 -17l-22 -98q-50 10 -99 10q-37 0 -63.5 -11t-42 -29t-24 -48.5t-11 -61.5t-2.5 -77v-119h244v-92h-244v-973h-123v973h-115z" />
<glyph unicode="g" horiz-adv-x="931" d="M84 -82q0 136 117 244q-80 50 -80 145q0 104 102 176q-98 85 -98 252q0 162 93 255t247 93q71 0 141 -18h256v-84l-147 -10q98 -71 98 -236q0 -154 -89.5 -246t-256.5 -92q-94 0 -162 35q-72 -43 -72 -119q0 -36 17.5 -59.5t53 -34.5t73 -14.5t94.5 -3.5h82 q305 0 305 -260q0 -289 -381 -289q-56 0 -105.5 6t-104 23.5t-93.5 45.5t-64.5 77t-25.5 114zM207 -57q0 -48 16.5 -83.5t41.5 -54.5t62.5 -30t69.5 -14t74 -3q38 0 68 2.5t69 13.5t64.5 29.5t44 54.5t18.5 85q0 82 -50.5 118.5t-160.5 36.5q-175 0 -239 21 q-78 -60 -78 -176zM246 735q0 -111 58 -176t165 -65q106 0 164.5 65.5t58.5 177.5q0 114 -61.5 180t-161.5 66t-161.5 -66.5t-61.5 -181.5z" />
<glyph unicode="h" horiz-adv-x="1060" d="M145 0v1499h125v-622q36 86 114.5 146t199.5 60q160 0 251 -115.5t91 -334.5v-633h-123v643q0 155 -65.5 243.5t-180.5 88.5q-69 0 -125.5 -33t-91 -86t-52.5 -116t-18 -128v-612h-125z" />
<glyph unicode="i" horiz-adv-x="430" d="M74 983v82h211v-1065h-123v963zM115 1346q0 39 24.5 64.5t65.5 25.5q39 0 64.5 -25.5t25.5 -62.5q0 -40 -25 -65.5t-65 -25.5q-41 0 -65.5 25t-24.5 64z" />
<glyph unicode="j" horiz-adv-x="436" d="M-27 -326l25 88q41 -10 76 -10q94 0 94 166v1045l-88 20v82h211v-1104v-41.5t-2 -43.5t-5 -47t-10 -44.5t-16.5 -43.5t-25 -35.5t-35 -30t-47 -18t-60.5 -7.5q-60 0 -117 24zM117 1346q0 39 24.5 64.5t65.5 25.5q39 0 64.5 -25.5t25.5 -62.5q0 -40 -25 -65.5t-65 -25.5 q-41 0 -65.5 25t-24.5 64z" />
<glyph unicode="k" horiz-adv-x="866" d="M145 0v1499h123v-516l-2 -496l428 578h133l-360 -485l356 -580h-141l-291 483l-123 -161v-322h-123z" />
<glyph unicode="l" horiz-adv-x="454" d="M156 121v1378h123v-1337q0 -43 15.5 -59.5t45.5 -16.5q10 0 23.5 2t21.5 4l8 2v-96q-48 -16 -102 -16q-67 0 -101 39t-34 100z" />
<glyph unicode="m" horiz-adv-x="1581" d="M145 0v1065h93l22 -172q31 79 111 134.5t180 55.5q101 0 175 -58t97 -161q26 89 110 154t195 65q151 0 234.5 -101t83.5 -288v-694h-123v698q0 131 -57 204t-166 73q-105 0 -173.5 -86.5t-68.5 -212.5v-676h-123v711q0 127 -60 195.5t-163 68.5q-102 0 -173 -88t-71 -211 v-676h-123z" />
<glyph unicode="n" horiz-adv-x="1060" d="M145 0v1065h93l24 -199q7 19 20.5 42.5t41.5 55.5t63.5 57.5t89 43.5t113.5 18q157 0 246.5 -115.5t89.5 -334.5v-633h-123v643q0 155 -65.5 243.5t-180.5 88.5q-69 0 -126 -33t-91.5 -86t-53 -116t-18.5 -128v-612h-123z" />
<glyph unicode="o" horiz-adv-x="1097" d="M82 530q0 236 132 394.5t333 158.5q134 0 241 -72.5t166.5 -199t59.5 -281.5q0 -234 -132.5 -391t-334.5 -157q-201 0 -333 157.5t-132 390.5zM209 530q0 -187 93.5 -313.5t244.5 -126.5q150 0 245 127t95 313q0 190 -94.5 317.5t-245.5 127.5t-244.5 -127.5 t-93.5 -317.5z" />
<glyph unicode="p" horiz-adv-x="1118" d="M145 -348v1413h95l20 -225q41 111 135.5 177t212.5 66q123 0 220.5 -73t151.5 -199t54 -279q0 -234 -120 -392t-304 -158q-118 0 -211.5 63t-130.5 154v-547h-123zM268 532q0 -192 91.5 -317t228.5 -125q93 0 166.5 58.5t113 159.5t39.5 224q0 189 -90.5 316t-230.5 127 t-229 -127t-89 -316z" />
<glyph unicode="q" horiz-adv-x="1116" d="M84 532q0 153 54 279t151.5 199t220.5 73q118 0 212.5 -66t135.5 -177l21 225h94v-1413h-123v547q-37 -91 -130.5 -154t-211.5 -63q-184 0 -304 158t-120 392zM211 532q0 -123 39.5 -224t113 -159.5t166.5 -58.5q137 0 228.5 125t91.5 317q0 189 -89 316t-229 127 t-230.5 -127t-90.5 -316z" />
<glyph unicode="r" horiz-adv-x="591" d="M145 0v1065h95l18 -203q11 39 34.5 74.5t58 66.5t85 50t109.5 20v-117q-123 0 -200 -92t-77 -248v-616h-123z" />
<glyph unicode="s" horiz-adv-x="823" d="M90 795q0 136 92 212t236 76q78 0 159 -20t132 -45l-33 -88q-14 6 -38 15t-89 23.5t-121 14.5q-100 0 -160.5 -49t-60.5 -135q0 -35 12.5 -63.5t29 -47t51.5 -37.5t60.5 -29t75.5 -28q134 -48 189 -85q125 -83 125 -237q0 -140 -91 -215t-241 -75q-93 0 -181 25t-145 56 l29 89q165 -70 287 -70q110 0 166.5 50.5t56.5 137.5q0 47 -15 80.5t-57 60t-69.5 39t-99.5 38.5q-3 2 -5 2.5t-5 1.5t-5.5 2t-5.5 2q-50 19 -80.5 32t-73 39.5t-66.5 54.5t-41.5 73t-17.5 100z" />
<glyph unicode="t" horiz-adv-x="602" d="M41 973v76l131 14l25 309h98v-307h240v-92h-240v-686q0 -108 30.5 -156.5t106.5 -48.5q41 0 100 16l5 -90q-70 -26 -140 -26q-128 0 -176.5 70.5t-48.5 223.5v697h-131z" />
<glyph unicode="u" horiz-adv-x="1058" d="M135 406v659h123v-653q0 -322 246 -322q73 0 129.5 29t89 78t49 107t16.5 122v639h125v-1065h-94l-20 174q-35 -82 -120 -137t-206 -55q-158 0 -248 103.5t-90 320.5z" />
<glyph unicode="v" horiz-adv-x="944" d="M66 1065h127l282 -936l281 936h123l-332 -1065h-148z" />
<glyph unicode="w" horiz-adv-x="1460" d="M72 1065h118l246 -915l232 915h123l231 -915l248 915h119l-293 -1065h-146l-221 883l-221 -883h-146z" />
<glyph unicode="x" horiz-adv-x="905" d="M45 0l338 528l-332 537h135l273 -451l272 451h129l-334 -537l338 -528h-135l-274 444l-277 -444h-133z" />
<glyph unicode="y" horiz-adv-x="946" d="M66 1065h124l289 -922l277 922h125l-443 -1413h-121l103 330z" />
<glyph unicode="z" horiz-adv-x="882" d="M61 0v94l607 867l-2 4l-287 -2h-293v102h723v-98l-602 -863l2 -6l258 2h342v-100h-748z" />
<glyph unicode="{" horiz-adv-x="577" d="M74 496v84q119 3 119 143v358q0 73 3 120t12.5 93t27 72.5t47 47.5t72 29.5t102.5 8.5h37v-98h-48q-94 0 -122.5 -46t-28.5 -175v-416q0 -147 -102 -180q102 -26 102 -179v-458q0 -101 34.5 -138.5t116.5 -37.5h48v-99h-37q-53 0 -93 8t-68.5 20.5t-47.5 37.5t-30 50.5 t-16.5 69t-7 82t-1.5 101.5v358q0 141 -119 144z" />
<glyph unicode="|" horiz-adv-x="421" d="M160 -309v1943h100v-1943h-100z" />
<glyph unicode="}" horiz-adv-x="579" d="M84 -276h47q82 0 117 37.5t35 138.5v458q0 153 102 179q-102 33 -102 180v416q0 129 -29 175t-123 46h-47v98h37q60 0 102.5 -8.5t72 -29.5t47 -47.5t27 -72.5t12.5 -93t3 -120v-358q0 -140 119 -143v-84q-119 -3 -119 -144v-358q0 -63 -1.5 -101.5t-7 -82t-16.5 -69 t-30 -50.5t-47.5 -37.5t-68.5 -20.5t-93 -8h-37v99z" />
<glyph unicode="&#xa1;" horiz-adv-x="438" d="M135 999q0 37 22 60.5t60 23.5q37 0 59.5 -23.5t22.5 -60.5q0 -38 -23 -62t-59 -24q-37 0 -59.5 24t-22.5 62zM141 -367l31 1065h96l29 -1065h-156z" />
<glyph unicode="&#xa2;" horiz-adv-x="978" d="M86 698q0 223 117.5 377.5t314.5 171.5v170h62v-168q126 -5 247 -71l-34 -93q-3 3 -30.5 15.5t-84.5 26.5t-113 14q-87 0 -156.5 -36t-112 -97.5t-65 -140.5t-22.5 -169q0 -122 38 -220t120.5 -160t197.5 -62q56 0 113 14t84.5 26t30.5 15l34 -92q-122 -69 -247 -72v-165 h-62v168q-197 17 -314.5 170.5t-117.5 377.5z" />
<glyph unicode="&#xa3;" horiz-adv-x="1015" d="M96 0v106q4 2 11.5 6.5t26.5 22.5t33 40t26 60.5t12 83.5v326h-94v78h94v301q0 192 93.5 310t272.5 118q79 0 155.5 -42t129.5 -118l-78 -61q-40 48 -94 78t-109 30q-118 0 -180.5 -82.5t-62.5 -222.5v-311h432v-78h-432v-319q0 -84 -31.5 -140t-67.5 -80h666v-106h-803z " />
<glyph unicode="&#xa5;" horiz-adv-x="1105" d="M59 1434h136l356 -721h8l350 721h138l-431 -848v-70h224v-65h-224v-119h224v-64h-224v-268h-120v268h-228v64h228v119h-228v65h228v70z" />
<glyph unicode="&#xa7;" horiz-adv-x="1046" d="M106 582q0 53 16.5 104.5t43.5 91t49 64.5t45 45q-62 40 -101.5 99.5t-39.5 131.5q0 316 411 316q181 0 367 -93l-39 -94q-165 78 -317 78q-285 0 -285 -211q0 -56 29.5 -99t77.5 -69t109.5 -51.5t125.5 -45t125.5 -49.5t109.5 -65.5t77.5 -94t29.5 -132.5 q0 -52 -17.5 -105t-44.5 -93.5t-50 -67.5t-42 -43q64 -39 103 -98t39 -132q0 -159 -106 -238t-306 -79q-179 0 -369 94l37 96q152 -70 291 -75q49 -2 88 0t84 13.5t75 32.5t50.5 61.5t20.5 96.5q0 62 -38 107.5t-98.5 74t-133.5 53.5t-146.5 54.5t-134 68t-98.5 103 t-38 150.5zM213 578q0 -50 25 -92t62.5 -70t94 -54.5t104.5 -42.5t110.5 -37.5t97.5 -35.5q124 120 124 262q0 50 -24.5 92t-61 69.5t-92 53.5t-104 42t-111.5 37.5t-100 37.5q-57 -48 -91 -118t-34 -144z" />
<glyph unicode="&#xa8;" horiz-adv-x="798" d="M160 1305q0 29 18.5 49t44.5 20q29 0 47.5 -19t18.5 -50q0 -28 -18.5 -47t-47.5 -19q-27 0 -45 19t-18 47zM514 1305q0 29 19 49t45 20q29 0 48 -19t19 -50q0 -28 -19 -47t-48 -19q-28 0 -46 19t-18 47z" />
<glyph unicode="&#xa9;" d="M106 717q0 145 49.5 278t132.5 229t197.5 153t239.5 57q167 0 308.5 -96.5t223.5 -261.5t82 -359t-82.5 -359.5t-224 -261.5t-307.5 -96q-125 0 -239 56.5t-197.5 152.5t-133 229t-49.5 279zM162 717q0 -134 45 -256.5t121 -211t180 -140.5t217 -52q112 0 215 51.5 t179 139t121.5 210t45.5 257.5t-45 257.5t-121 211t-180 140.5t-217 52t-217 -53t-179 -141.5t-120 -210t-45 -254.5zM422 723q0 150 92.5 255t218.5 105q58 0 113 -23.5t92 -62.5l-51 -57q-64 53 -142 53q-94 0 -157.5 -79t-63.5 -191q0 -111 63 -190.5t161 -79.5 q79 0 139 55l51 -62q-84 -84 -199 -84q-131 0 -224 105t-93 256z" />
<glyph unicode="&#xaa;" horiz-adv-x="854" d="M117 551v80h602v-80h-602zM129 961q0 64 25 109.5t68.5 69t91 34t104.5 10.5q32 0 68.5 -4t57.5 -8l21 -5v47q0 103 -35.5 154t-126.5 51q-69 0 -196 -35l-21 70q133 45 250 45q215 0 215 -250v-405q0 -14 5 -22t10 -9.5t14 -1.5l33 4v-61q-19 -13 -60 -13q-84 0 -84 90 v33q-22 -49 -74.5 -88t-136.5 -39q-98 0 -163.5 58.5t-65.5 165.5zM209 963q-1 -75 44 -114.5t116 -39.5q87 0 141.5 59.5t54.5 145.5v96q-75 16 -145 16q-103 0 -156 -42.5t-55 -120.5z" />
<glyph unicode="&#xab;" horiz-adv-x="991" d="M80 518v29l350 465l62 -66l-279 -414l279 -413l-62 -64zM469 518v29l350 465l62 -66l-279 -414l279 -413l-62 -64z" />
<glyph unicode="&#xad;" horiz-adv-x="886" d="M133 618v91h621v-91h-621z" />
<glyph unicode="&#xae;" horiz-adv-x="1050" d="M137 975q0 195 108 327t281 132t281 -132t108 -327q0 -192 -109 -325.5t-280 -133.5q-173 0 -281 132.5t-108 326.5zM186 975q0 -175 93 -292.5t247 -117.5q150 0 246 117.5t96 292.5q0 172 -94.5 290.5t-247.5 118.5t-246.5 -118.5t-93.5 -290.5zM393 745v467h166 q51 0 84 -38t33 -95q0 -46 -24 -81.5t-64 -45.5l102 -207h-47l-100 203h-109v-203h-41zM434 987h121q33 0 56.5 27.5t23.5 64.5q0 42 -23.5 68.5t-58.5 26.5h-119v-187z" />
<glyph unicode="&#xaf;" horiz-adv-x="798" d="M145 1247v80h514v-80h-514z" />
<glyph unicode="&#xb0;" horiz-adv-x="579" d="M121 1276q0 81 50.5 134.5t117.5 53.5q69 0 117.5 -52t48.5 -134q0 -86 -48.5 -139.5t-117.5 -53.5t-118.5 53.5t-49.5 137.5zM174 1274q0 -54 35.5 -91.5t79.5 -37.5t78 37t34 92q0 56 -34 92.5t-78 36.5q-45 0 -80 -38t-35 -91z" />
<glyph unicode="&#xb1;" horiz-adv-x="874" d="M137 713v84h258v278h86v-278h256v-84h-256v-279h-86v279h-258zM139 178v86h598v-86h-598z" />
<glyph unicode="&#xb4;" horiz-adv-x="507" d="M147 1225l109 303l90 -51l-131 -252h-68z" />
<glyph unicode="&#xb5;" horiz-adv-x="1071" d="M160 -348v1413h119v-643q0 -332 260 -332q142 0 214 93.5t72 242.5v639h121v-1065h-90l-20 174q-92 -192 -320 -192q-79 0 -142.5 32t-94.5 97v-459h-119z" />
<glyph unicode="&#xb6;" horiz-adv-x="927" d="M74 1032q0 182 95 292t232 110h347v-1612h-93v1515h-129v-1515h-94v796h-53q-145 0 -225 119t-80 295z" />
<glyph unicode="&#xb7;" horiz-adv-x="475" d="M127 612q0 50 33 86.5t76 36.5q46 0 79 -36t33 -87q0 -49 -33 -83.5t-79 -34.5q-43 0 -76 34.5t-33 83.5z" />
<glyph unicode="&#xb8;" horiz-adv-x="552" d="M129 -385l16 61q60 -12 93 -12q100 0 100 76q0 35 -22 53.5t-60 18.5l-41 -5l-29 41l45 136h68l-29 -113q11 2 23 2q53 0 92 -33t39 -100q0 -72 -46 -109t-122 -37q-56 0 -127 21z" />
<glyph unicode="&#xba;" horiz-adv-x="950" d="M139 1118q0 160 91 270.5t241 110.5t241 -110.5t91 -270.5t-91 -270.5t-241 -110.5t-241 110.5t-91 270.5zM174 551v80h602v-80h-602zM231 1118q0 -130 66.5 -215.5t173.5 -85.5t173.5 85.5t66.5 215.5t-66.5 215.5t-173.5 85.5t-173.5 -85.5t-66.5 -215.5z" />
<glyph unicode="&#xbb;" horiz-adv-x="993" d="M111 119l278 413l-278 414l61 66l350 -465v-29l-350 -463zM500 119l278 413l-278 414l61 66l350 -465v-29l-350 -463z" />
<glyph unicode="&#xbf;" horiz-adv-x="817" d="M78 -43q0 60 18.5 112.5t47.5 92t64.5 76t71 70.5t64.5 69t47.5 79t18.5 93v147h100v-110q0 -63 -17.5 -118.5t-45.5 -96t-61.5 -77.5t-67.5 -72t-62 -71t-45.5 -82.5t-17.5 -99.5q0 -118 75 -181.5t178 -63.5q65 0 131.5 25t114.5 61l47 -89q-56 -48 -139 -78t-160 -30 q-66 0 -129.5 23t-116 65t-84.5 109t-32 147zM377 999q0 37 22 60.5t58 23.5q37 0 60.5 -23.5t23.5 -60.5q0 -38 -23.5 -62t-60.5 -24q-35 0 -57.5 24t-22.5 62z" />
<glyph unicode="&#xc0;" horiz-adv-x="1148" d="M53 0l439 1444h165l439 -1444h-131l-121 399h-545l-119 -399h-127zM330 502h485l-242 811h-4zM418 1784l90 51l108 -313h-77z" />
<glyph unicode="&#xc1;" horiz-adv-x="1148" d="M53 0l439 1444h165l439 -1444h-131l-121 399h-545l-119 -399h-127zM330 502h485l-242 811h-4zM541 1522l108 313l90 -51l-121 -262h-77z" />
<glyph unicode="&#xc2;" horiz-adv-x="1148" d="M53 0l439 1444h165l439 -1444h-131l-121 399h-545l-119 -399h-127zM330 502h485l-242 811h-4zM356 1534l170 229h95l170 -229h-103l-115 166l-114 -166h-103z" />
<glyph unicode="&#xc3;" horiz-adv-x="1148" d="M53 0l439 1444h165l439 -1444h-131l-121 399h-545l-119 -399h-127zM330 502h485l-242 811h-4zM330 1589q26 53 67.5 86t89.5 33q45 0 113.5 -42t108.5 -42q50 0 100 68l35 -29q-28 -54 -69.5 -88.5t-88.5 -34.5t-113.5 42t-107.5 42q-59 0 -98 -59z" />
<glyph unicode="&#xc4;" horiz-adv-x="1150" d="M53 0l439 1444h165l439 -1444h-131l-121 399h-545l-119 -399h-127zM326 1608q0 32 20 55t49 23q32 0 53 -22t21 -56q0 -31 -21 -52.5t-53 -21.5q-30 0 -49.5 21.5t-19.5 52.5zM330 502h485l-242 811h-4zM676 1608q0 32 20 55t49 23q32 0 53 -22t21 -56q0 -31 -21 -52.5 t-53 -21.5q-30 0 -49.5 21.5t-19.5 52.5z" />
<glyph unicode="&#xc5;" horiz-adv-x="1148" d="M53 0l439 1444h165l439 -1444h-131l-121 399h-545l-119 -399h-127zM330 502h485l-242 811h-4zM399 1700q0 71 49.5 117.5t122.5 46.5t122.5 -46.5t49.5 -117.5t-49.5 -116.5t-122.5 -45.5t-122.5 45.5t-49.5 116.5zM475 1700q0 -42 24.5 -70t71.5 -28t72 28t25 70 q0 44 -25 72t-72 28t-71.5 -28t-24.5 -72z" />
<glyph unicode="&#xc6;" horiz-adv-x="1630" d="M27 0l575 1434h983v-109h-708v-575h610v-105h-610v-536h733v-109h-860v401h-435l-155 -401h-133zM358 508h392v811h-74z" />
<glyph unicode="&#xc7;" horiz-adv-x="1169" d="M94 717q0 157 50.5 294.5t136 234t202.5 151.5t248 55q199 0 356 -104l-47 -97q-144 88 -307 88q-140 0 -256.5 -82.5t-183 -225t-66.5 -314.5t66.5 -315t183 -225.5t256.5 -82.5q160 0 307 88l47 -98q-70 -42 -161.5 -70.5t-182.5 -31.5l-26 -111q10 2 22 2q53 0 92 -33 t39 -100q0 -72 -46 -109t-122 -37q-56 0 -127 21l17 61q60 -12 92 -12q100 0 100 76q0 35 -22 53.5t-60 18.5l-40 -5l-29 41l45 136q-122 11 -229.5 69.5t-185.5 153.5t-123.5 227t-45.5 283z" />
<glyph unicode="&#xc8;" horiz-adv-x="1122" d="M176 0v1434h836v-109h-709v-575h610v-105h-610v-536h733v-109h-860zM453 1784l90 51l108 -313h-78z" />
<glyph unicode="&#xc9;" horiz-adv-x="1122" d="M176 0v1434h836v-109h-709v-575h610v-105h-610v-536h733v-109h-860zM541 1522l108 313l90 -51l-121 -262h-77z" />
<glyph unicode="&#xca;" horiz-adv-x="1122" d="M176 0v1434h836v-109h-709v-575h610v-105h-610v-536h733v-109h-860zM393 1534l170 229h94l170 -229h-102l-115 166l-114 -166h-103z" />
<glyph unicode="&#xcb;" horiz-adv-x="1122" d="M176 0v1434h836v-109h-709v-575h610v-105h-610v-536h733v-109h-860zM362 1608q0 32 20.5 55t49.5 23q32 0 53 -22t21 -56q0 -31 -21 -52.5t-53 -21.5q-30 0 -50 21.5t-20 52.5zM713 1608q0 32 20 55t49 23q32 0 53 -22t21 -56q0 -31 -21 -52.5t-53 -21.5 q-30 0 -49.5 21.5t-19.5 52.5z" />
<glyph unicode="&#xcc;" horiz-adv-x="479" d="M80 1784l90 51l109 -313h-78zM174 0v1434h127v-1434h-127z" />
<glyph unicode="&#xcd;" horiz-adv-x="481" d="M176 0v1434h127v-1434h-127zM203 1522l108 313l90 -51l-120 -262h-78z" />
<glyph unicode="&#xce;" horiz-adv-x="481" d="M27 1534l170 229h94l170 -229h-103l-114 166l-115 -166h-102zM178 0v1434h127v-1434h-127z" />
<glyph unicode="&#xcf;" horiz-adv-x="481" d="M-4 1608q0 32 20.5 55t49.5 23q32 0 52.5 -22t20.5 -56q0 -31 -20.5 -52.5t-52.5 -21.5q-30 0 -50 21.5t-20 52.5zM178 0v1434h127v-1434h-127zM346 1608q0 32 20.5 55t49.5 23q32 0 52.5 -22t20.5 -56q0 -31 -20.5 -52.5t-52.5 -21.5q-30 0 -50 21.5t-20 52.5z" />
<glyph unicode="&#xd0;" horiz-adv-x="1251" d="M23 688v66h159v680h422q158 0 281 -86q130 -90 198 -257t68 -374q0 -202 -65.5 -370t-202.5 -261q-127 -86 -279 -86h-422v688h-159zM309 109h273q128 0 227 71q106 75 158.5 216t52.5 321t-52.5 321.5t-158.5 216.5q-98 70 -227 70h-273v-571h281v-66h-281v-579z" />
<glyph unicode="&#xd1;" horiz-adv-x="1286" d="M176 0v1434h135l674 -1219h2l-4 756v463h127v-1434h-139l-670 1221h-2l4 -592v-629h-127zM393 1589q26 53 68 86t90 33q45 0 113 -42t108 -42q50 0 100 68l35 -29q-28 -55 -69 -89t-88 -34t-114 42t-108 42q-59 0 -98 -59z" />
<glyph unicode="&#xd2;" d="M96 717q0 206 79.5 374t223.5 264.5t324 96.5t324 -96.5t223.5 -264.5t79.5 -374q0 -203 -77.5 -370t-222 -265.5t-327.5 -99.5q-182 1 -326.5 99.5t-222.5 265.5t-78 370zM229 715q0 -174 62 -315t175.5 -222.5t256.5 -81.5q144 0 257.5 81.5t176 222.5t62.5 315 q0 171 -63.5 313.5t-177.5 226.5t-255 84q-140 0 -253.5 -82t-177 -225t-63.5 -317zM655 1784l90 51l109 -313h-78z" />
<glyph unicode="&#xd3;" d="M96 717q0 206 79.5 374t223.5 264.5t324 96.5t324 -96.5t223.5 -264.5t79.5 -374q0 -203 -77.5 -370t-222 -265.5t-327.5 -99.5q-182 1 -326.5 99.5t-222.5 265.5t-78 370zM229 715q0 -174 62 -315t175.5 -222.5t256.5 -81.5q144 0 257.5 81.5t176 222.5t62.5 315 q0 171 -63.5 313.5t-177.5 226.5t-255 84q-140 0 -253.5 -82t-177 -225t-63.5 -317zM643 1522l109 313l90 -51l-121 -262h-78z" />
<glyph unicode="&#xd4;" d="M96 717q0 206 79.5 374t223.5 264.5t324 96.5t324 -96.5t223.5 -264.5t79.5 -374q0 -203 -77.5 -370t-222 -265.5t-327.5 -99.5q-182 1 -326.5 99.5t-222.5 265.5t-78 370zM229 715q0 -174 62 -315t175.5 -222.5t256.5 -81.5q144 0 257.5 81.5t176 222.5t62.5 315 q0 171 -63.5 313.5t-177.5 226.5t-255 84q-140 0 -253.5 -82t-177 -225t-63.5 -317zM508 1534l170 229h94l170 -229h-102l-115 166l-115 -166h-102z" />
<glyph unicode="&#xd5;" d="M96 717q0 206 79.5 374t223.5 264.5t324 96.5t324 -96.5t223.5 -264.5t79.5 -374q0 -203 -77.5 -370t-222 -265.5t-327.5 -99.5q-182 1 -326.5 99.5t-222.5 265.5t-78 370zM229 715q0 -174 62 -315t175.5 -222.5t256.5 -81.5q144 0 257.5 81.5t176 222.5t62.5 315 q0 171 -63.5 313.5t-177.5 226.5t-255 84q-140 0 -253.5 -82t-177 -225t-63.5 -317zM471 1589q26 53 68 86t90 33q45 0 113 -42t108 -42q50 0 100 68l35 -29q-28 -54 -69.5 -88.5t-88.5 -34.5t-113.5 42t-107.5 42q-59 0 -98 -59z" />
<glyph unicode="&#xd6;" d="M96 717q0 206 79.5 374t223.5 264.5t324 96.5t324 -96.5t223.5 -264.5t79.5 -374q0 -203 -77.5 -370t-222 -265.5t-327.5 -99.5q-182 1 -326.5 99.5t-222.5 265.5t-78 370zM229 715q0 -174 62 -315t175.5 -222.5t256.5 -81.5q144 0 257.5 81.5t176 222.5t62.5 315 q0 171 -63.5 313.5t-177.5 226.5t-255 84q-140 0 -253.5 -82t-177 -225t-63.5 -317zM475 1608q0 32 20.5 55t49.5 23q32 0 52.5 -22t20.5 -56q0 -31 -20.5 -52.5t-52.5 -21.5q-30 0 -50 21.5t-20 52.5zM825 1608q0 32 20.5 55t49.5 23q32 0 53 -22t21 -56q0 -31 -21 -52.5 t-53 -21.5q-30 0 -50 21.5t-20 52.5z" />
<glyph unicode="&#xd7;" horiz-adv-x="784" d="M137 420l207 239l-207 238l56 51l200 -231l201 231l55 -51l-205 -238l205 -239l-57 -49l-199 231l-198 -231z" />
<glyph unicode="&#xd8;" d="M96 717q0 206 79.5 374t223.5 264.5t324 96.5q165 0 303 -86l72 129h112l-102 -188q114 -99 178 -253.5t64 -336.5q0 -203 -77.5 -370t-222 -265.5t-327.5 -99.5q-173 3 -299 81l-70 -126h-112l100 184q-116 100 -181 256.5t-65 339.5zM229 715q0 -149 45 -274t129 -210 l566 1029q-112 79 -246 79q-140 0 -253.5 -82t-177 -225t-63.5 -317zM481 168q107 -72 242 -72q144 0 257.5 81.5t176 222.5t62.5 315q0 143 -46 267.5t-129 211.5z" />
<glyph unicode="&#xd9;" horiz-adv-x="1247" d="M164 457v977h127v-988q0 -155 92 -253.5t242 -98.5q149 0 240 98.5t91 253.5v988h127v-977q0 -213 -124.5 -344t-333.5 -131q-214 0 -337.5 133t-123.5 342zM514 1784l90 51l109 -313h-78z" />
<glyph unicode="&#xda;" horiz-adv-x="1247" d="M164 457v977h127v-988q0 -155 92 -253.5t242 -98.5q149 0 240 98.5t91 253.5v988h127v-977q0 -213 -124.5 -344t-333.5 -131q-214 0 -337.5 133t-123.5 342zM561 1522l109 313l90 -51l-121 -262h-78z" />
<glyph unicode="&#xdb;" horiz-adv-x="1247" d="M164 457v977h127v-988q0 -155 92 -253.5t242 -98.5q149 0 240 98.5t91 253.5v988h127v-977q0 -213 -124.5 -344t-333.5 -131q-214 0 -337.5 133t-123.5 342zM410 1534l170 229h94l170 -229h-103l-114 166l-115 -166h-102z" />
<glyph unicode="&#xdc;" horiz-adv-x="1247" d="M164 457v977h127v-988q0 -155 92 -253.5t242 -98.5q149 0 240 98.5t91 253.5v988h127v-977q0 -213 -124.5 -344t-333.5 -131q-214 0 -337.5 133t-123.5 342zM381 1608q0 32 20.5 55t49.5 23q32 0 52.5 -22t20.5 -56q0 -31 -20.5 -52.5t-52.5 -21.5q-30 0 -50 21.5 t-20 52.5zM731 1608q0 32 20.5 55t49.5 23q32 0 52.5 -22t20.5 -56q0 -31 -20.5 -52.5t-52.5 -21.5q-30 0 -50 21.5t-20 52.5z" />
<glyph unicode="&#xdd;" horiz-adv-x="1060" d="M35 1434h139l356 -719h9l352 719h131l-430 -848v-586h-121v586zM483 1522l109 313l90 -51l-121 -262h-78z" />
<glyph unicode="&#xde;" horiz-adv-x="1122" d="M176 0v1434h127v-279h354q170 0 283 -121t113 -303t-115.5 -305t-280.5 -123h-354v-303h-127zM303 414h346q124 0 204.5 90.5t80.5 224.5q0 135 -80 225t-205 90h-346v-630z" />
<glyph unicode="&#xdf;" horiz-adv-x="1011" d="M145 0v1020q0 63 10.5 121.5t36.5 116t65 100t100.5 68.5t138.5 26q149 0 237 -90t88 -246q0 -63 -16.5 -122t-35.5 -96.5t-35.5 -85t-16.5 -89.5q0 -53 25.5 -95t61.5 -73.5t72 -67t61.5 -94t25.5 -135.5q0 -137 -80 -224t-228 -87q-76 0 -145 16t-102 33l28 96l12 -4 q11 -5 22.5 -8.5t31.5 -9t39 -9.5t44 -7t48 -3q100 0 156.5 55t56.5 152q0 48 -13.5 86.5t-35 65t-47.5 50t-52 47.5t-47.5 51t-35 66.5t-13.5 88.5q0 54 17 105t37.5 85.5t37.5 88t17 110.5q0 26 -3 52t-16 61t-34 61t-61 44.5t-93 18.5q-31 0 -59 -6t-61.5 -26.5 t-58 -53.5t-41 -92.5t-16.5 -138.5v-1022h-123z" />
<glyph unicode="&#xe0;" horiz-adv-x="991" d="M66 303q0 90 31 157.5t86.5 107t124.5 58.5t151 19q110 0 252 -27v113q0 74 -16.5 123.5t-50.5 75t-75 35.5t-100 10q-146 0 -289 -47l-24 98q176 57 329 57q176 0 262.5 -80.5t86.5 -259.5v-596q0 -34 14 -44.5t41 -10.5l47 4v-88q-40 -16 -100 -16q-125 0 -125 143v35 q-37 -78 -118 -133t-200 -55q-144 0 -235.5 82.5t-91.5 238.5zM188 309q0 -59 19.5 -103.5t53 -68.5t70.5 -35.5t79 -11.5q129 0 215 91t86 237v98q-111 25 -238 25q-43 0 -81 -6t-76.5 -22t-66 -41t-44.5 -67t-17 -96zM408 1456l90 51l108 -313h-78z" />
<glyph unicode="&#xe1;" horiz-adv-x="991" d="M66 303q0 90 31 157.5t86.5 107t124.5 58.5t151 19q110 0 252 -27v113q0 74 -16.5 123.5t-50.5 75t-75 35.5t-100 10q-146 0 -289 -47l-24 98q176 57 329 57q176 0 262.5 -80.5t86.5 -259.5v-596q0 -34 14 -44.5t41 -10.5l47 4v-88q-40 -16 -100 -16q-125 0 -125 143v35 q-37 -78 -118 -133t-200 -55q-144 0 -235.5 82.5t-91.5 238.5zM188 309q0 -59 19.5 -103.5t53 -68.5t70.5 -35.5t79 -11.5q129 0 215 91t86 237v98q-111 25 -238 25q-43 0 -81 -6t-76.5 -22t-66 -41t-44.5 -67t-17 -96zM426 1194l109 313l90 -51l-121 -262h-78z" />
<glyph unicode="&#xe2;" horiz-adv-x="991" d="M66 303q0 90 31 157.5t86.5 107t124.5 58.5t151 19q110 0 252 -27v113q0 74 -16.5 123.5t-50.5 75t-75 35.5t-100 10q-146 0 -289 -47l-24 98q176 57 329 57q176 0 262.5 -80.5t86.5 -259.5v-596q0 -34 14 -44.5t41 -10.5l47 4v-88q-40 -16 -100 -16q-125 0 -125 143v35 q-37 -78 -118 -133t-200 -55q-144 0 -235.5 82.5t-91.5 238.5zM188 309q0 -59 19.5 -103.5t53 -68.5t70.5 -35.5t79 -11.5q129 0 215 91t86 237v98q-111 25 -238 25q-43 0 -81 -6t-76.5 -22t-66 -41t-44.5 -67t-17 -96zM283 1194l170 229h94l170 -229h-103l-114 166 l-115 -166h-102z" />
<glyph unicode="&#xe3;" horiz-adv-x="991" d="M66 303q0 90 31 157.5t86.5 107t124.5 58.5t151 19q110 0 252 -27v113q0 74 -16.5 123.5t-50.5 75t-75 35.5t-100 10q-146 0 -289 -47l-24 98q176 57 329 57q176 0 262.5 -80.5t86.5 -259.5v-596q0 -34 14 -44.5t41 -10.5l47 4v-88q-40 -16 -100 -16q-125 0 -125 143v35 q-37 -78 -118 -133t-200 -55q-144 0 -235.5 82.5t-91.5 238.5zM188 309q0 -59 19.5 -103.5t53 -68.5t70.5 -35.5t79 -11.5q129 0 215 91t86 237v98q-111 25 -238 25q-43 0 -81 -6t-76.5 -22t-66 -41t-44.5 -67t-17 -96zM238 1264q26 53 67.5 85.5t89.5 32.5q45 0 113 -42 t108 -42q51 0 101 68l35 -29q-28 -54 -69.5 -88.5t-88.5 -34.5t-113.5 42t-107.5 42q-31 0 -57 -17.5t-42 -41.5z" />
<glyph unicode="&#xe4;" horiz-adv-x="991" d="M66 303q0 90 31 157.5t86.5 107t124.5 58.5t151 19q110 0 252 -27v113q0 74 -16.5 123.5t-50.5 75t-75 35.5t-100 10q-146 0 -289 -47l-24 98q176 57 329 57q176 0 262.5 -80.5t86.5 -259.5v-596q0 -34 14 -44.5t41 -10.5l47 4v-88q-40 -16 -100 -16q-125 0 -125 143v35 q-37 -78 -118 -133t-200 -55q-144 0 -235.5 82.5t-91.5 238.5zM188 309q0 -59 19.5 -103.5t53 -68.5t70.5 -35.5t79 -11.5q129 0 215 91t86 237v98q-111 25 -238 25q-43 0 -81 -6t-76.5 -22t-66 -41t-44.5 -67t-17 -96zM260 1274q0 32 20.5 55t49.5 23q32 0 52.5 -22 t20.5 -56q0 -31 -20.5 -52.5t-52.5 -21.5q-30 0 -50 21.5t-20 52.5zM610 1274q0 32 20.5 55t49.5 23q32 0 53 -22t21 -56q0 -31 -21 -52.5t-53 -21.5q-30 0 -50 21.5t-20 52.5z" />
<glyph unicode="&#xe5;" horiz-adv-x="991" d="M66 303q0 90 31 157.5t86.5 107t124.5 58.5t151 19q110 0 252 -27v113q0 74 -16.5 123.5t-50.5 75t-75 35.5t-100 10q-146 0 -289 -47l-24 98q176 57 329 57q176 0 262.5 -80.5t86.5 -259.5v-596q0 -34 14 -44.5t41 -10.5l47 4v-88q-40 -16 -100 -16q-125 0 -125 143v35 q-37 -78 -118 -133t-200 -55q-144 0 -235.5 82.5t-91.5 238.5zM188 309q0 -59 19.5 -103.5t53 -68.5t70.5 -35.5t79 -11.5q129 0 215 91t86 237v98q-111 25 -238 25q-43 0 -81 -6t-76.5 -22t-66 -41t-44.5 -67t-17 -96zM371 1374q0 71 49.5 117.5t122.5 46.5t122.5 -46.5 t49.5 -117.5t-49.5 -116.5t-122.5 -45.5t-122.5 45.5t-49.5 116.5zM446 1374q0 -42 25 -70t72 -28t71.5 28t24.5 70q0 44 -24.5 72.5t-71.5 28.5t-72 -28.5t-25 -72.5z" />
<glyph unicode="&#xe6;" horiz-adv-x="1622" d="M66 303q0 89 31.5 156t86.5 107t124 59.5t151 19.5q105 0 243 -27q2 13 9 35v78q0 74 -16.5 123.5t-50.5 75t-75 35.5t-100 10q-146 0 -289 -47l-24 98q176 57 329 57q131 0 212 -44.5t114 -141.5q133 186 358 186q128 0 224 -74.5t143 -190t47 -251.5q0 -59 -4 -82h-750 q9 -165 122 -280t268 -115q116 0 266 70l35 -92q-164 -86 -322 -86q-132 0 -239 62.5t-173 170.5q-66 -112 -168 -172.5t-225 -60.5q-144 0 -235.5 82.5t-91.5 238.5zM188 309q0 -59 19.5 -103.5t53 -68.5t70.5 -35.5t79 -11.5q115 0 201 70.5t126 156.5q-37 92 -37 201 q-3 0 -32 5t-53.5 8.5t-64.5 6.5t-77 3q-43 0 -81 -6t-76.5 -22t-66 -41t-44.5 -67t-17 -96zM829 582h625q1 71 -15 138t-47.5 125.5t-87.5 94t-128 35.5q-150 0 -245.5 -110t-101.5 -283z" />
<glyph unicode="&#xe7;" horiz-adv-x="903" d="M84 532q0 152 62 278t173 199.5t248 73.5q127 0 262 -69l-38 -90q-3 3 -28.5 14t-76.5 24t-98 13q-84 0 -156.5 -37.5t-120.5 -99.5t-75 -141.5t-27 -164.5q0 -114 45.5 -214t134 -164t199.5 -64q93 0 203 49l38 -90q-134 -67 -262 -67h-20l-27 -111q11 2 23 2 q53 0 92 -33t39 -100q0 -72 -46 -109t-122 -37q-56 0 -127 21l16 61q60 -12 92 -12q101 0 101 76q0 35 -22 53.5t-60 18.5l-41 -5l-29 41l47 144q-178 28 -288.5 178.5t-110.5 361.5z" />
<glyph unicode="&#xe8;" horiz-adv-x="1017" d="M84 532q0 151 53.5 276t156.5 200t236 75q128 0 224 -74.5t143 -190t47 -251.5q0 -59 -4 -82h-727q9 -167 111.5 -281t255.5 -114q116 0 266 70l35 -92q-164 -86 -322 -86q-139 0 -248.5 74.5t-168 199.5t-58.5 276zM213 582h602q1 71 -15 138t-47.5 125.5t-87.5 94 t-128 35.5q-141 0 -229.5 -109.5t-94.5 -283.5zM422 1456l90 51l109 -313h-78z" />
<glyph unicode="&#xe9;" horiz-adv-x="1017" d="M84 532q0 151 53.5 276t156.5 200t236 75q128 0 224 -74.5t143 -190t47 -251.5q0 -59 -4 -82h-727q9 -167 111.5 -281t255.5 -114q116 0 266 70l35 -92q-164 -86 -322 -86q-139 0 -248.5 74.5t-168 199.5t-58.5 276zM213 582h602q1 71 -15 138t-47.5 125.5t-87.5 94 t-128 35.5q-141 0 -229.5 -109.5t-94.5 -283.5zM457 1194l108 313l90 -51l-120 -262h-78z" />
<glyph unicode="&#xea;" horiz-adv-x="1017" d="M84 532q0 151 53.5 276t156.5 200t236 75q128 0 224 -74.5t143 -190t47 -251.5q0 -59 -4 -82h-727q9 -167 111.5 -281t255.5 -114q116 0 266 70l35 -92q-164 -86 -322 -86q-139 0 -248.5 74.5t-168 199.5t-58.5 276zM213 582h602q1 71 -15 138t-47.5 125.5t-87.5 94 t-128 35.5q-141 0 -229.5 -109.5t-94.5 -283.5zM313 1194l170 229h95l170 -229h-103l-115 166l-114 -166h-103z" />
<glyph unicode="&#xeb;" horiz-adv-x="1017" d="M84 532q0 151 53.5 276t156.5 200t236 75q128 0 224 -74.5t143 -190t47 -251.5q0 -59 -4 -82h-727q9 -167 111.5 -281t255.5 -114q116 0 266 70l35 -92q-164 -86 -322 -86q-139 0 -248.5 74.5t-168 199.5t-58.5 276zM213 582h602q1 71 -15 138t-47.5 125.5t-87.5 94 t-128 35.5q-141 0 -229.5 -109.5t-94.5 -283.5zM293 1274q0 32 20 55t49 23q32 0 53 -22t21 -56q0 -31 -21 -52.5t-53 -21.5q-30 0 -49.5 21.5t-19.5 52.5zM643 1274q0 32 20.5 55t49.5 23q32 0 52.5 -22t20.5 -56q0 -31 -20.5 -52.5t-52.5 -21.5q-30 0 -50 21.5t-20 52.5z " />
<glyph unicode="&#xec;" horiz-adv-x="428" d="M41 1456l90 51l109 -313h-78zM72 983v82h211v-1065h-123v963z" />
<glyph unicode="&#xed;" horiz-adv-x="430" d="M74 983v82h211v-1065h-123v963zM160 1194l108 313l90 -51l-120 -262h-78z" />
<glyph unicode="&#xee;" horiz-adv-x="430" d="M-27 1194l170 229h95l170 -229h-103l-115 166l-114 -166h-103zM74 983v82h211v-1065h-123v963z" />
<glyph unicode="&#xef;" horiz-adv-x="428" d="M-55 1274q0 32 20 55t49 23q32 0 53 -22t21 -56q0 -31 -21 -52.5t-53 -21.5q-30 0 -49.5 21.5t-19.5 52.5zM72 983v82h211v-1065h-123v963zM295 1274q0 32 20.5 55t49.5 23q32 0 52.5 -22t20.5 -56q0 -31 -20.5 -52.5t-52.5 -21.5q-30 0 -50 21.5t-20 52.5z" />
<glyph unicode="&#xf0;" horiz-adv-x="968" d="M63 485q0 229 113 362.5t285 133.5q105 0 190.5 -65t122.5 -171h2q-20 175 -86 331t-139 237l-156 -129l-41 49l152 129q-84 89 -219 158l32 63q147 -65 248 -166l156 131l43 -51l-154 -129q98 -107 162.5 -252t88.5 -274t24 -256q0 -275 -117 -438.5t-305 -163.5 q-125 0 -217.5 67.5t-138.5 180t-46 253.5zM186 483q0 -79 16.5 -148t49 -125t87.5 -89t126 -33q131 0 211 117.5t80 290.5q0 170 -81.5 275.5t-207.5 105.5q-94 0 -159 -55t-93.5 -141.5t-28.5 -197.5z" />
<glyph unicode="&#xf1;" horiz-adv-x="1060" d="M145 0v1065h93l24 -199q7 19 20.5 42.5t41.5 55.5t63.5 57.5t89 43.5t113.5 18q157 0 246.5 -115.5t89.5 -334.5v-633h-123v643q0 155 -65.5 243.5t-180.5 88.5q-69 0 -126 -33t-91.5 -86t-53 -116t-18.5 -128v-612h-123zM274 1264q26 53 68 85.5t90 32.5q45 0 113 -42 t108 -42q51 0 101 68l34 -29q-28 -55 -69 -89t-88 -34t-113.5 42t-107.5 42q-31 0 -57 -17.5t-42 -41.5z" />
<glyph unicode="&#xf2;" horiz-adv-x="1097" d="M82 530q0 236 132 394.5t333 158.5q134 0 241 -72.5t166.5 -199t59.5 -281.5q0 -234 -132.5 -391t-334.5 -157q-201 0 -333 157.5t-132 390.5zM209 530q0 -187 93.5 -313.5t244.5 -126.5q150 0 245 127t95 313q0 190 -94.5 317.5t-245.5 127.5t-244.5 -127.5 t-93.5 -317.5zM457 1456l90 51l108 -313h-77z" />
<glyph unicode="&#xf3;" horiz-adv-x="1097" d="M82 530q0 236 132 394.5t333 158.5q134 0 241 -72.5t166.5 -199t59.5 -281.5q0 -234 -132.5 -391t-334.5 -157q-201 0 -333 157.5t-132 390.5zM209 530q0 -187 93.5 -313.5t244.5 -126.5q150 0 245 127t95 313q0 190 -94.5 317.5t-245.5 127.5t-244.5 -127.5 t-93.5 -317.5zM455 1194l108 313l90 -51l-121 -262h-77z" />
<glyph unicode="&#xf4;" horiz-adv-x="1097" d="M82 530q0 236 132 394.5t333 158.5q134 0 241 -72.5t166.5 -199t59.5 -281.5q0 -234 -132.5 -391t-334.5 -157q-201 0 -333 157.5t-132 390.5zM209 530q0 -187 93.5 -313.5t244.5 -126.5q150 0 245 127t95 313q0 190 -94.5 317.5t-245.5 127.5t-244.5 -127.5 t-93.5 -317.5zM330 1194l170 229h94l170 -229h-102l-115 166l-115 -166h-102z" />
<glyph unicode="&#xf5;" horiz-adv-x="1097" d="M82 530q0 236 132 394.5t333 158.5q134 0 241 -72.5t166.5 -199t59.5 -281.5q0 -234 -132.5 -391t-334.5 -157q-201 0 -333 157.5t-132 390.5zM209 530q0 -187 93.5 -313.5t244.5 -126.5q150 0 245 127t95 313q0 190 -94.5 317.5t-245.5 127.5t-244.5 -127.5 t-93.5 -317.5zM291 1264q26 53 68 85.5t90 32.5q45 0 113 -42t108 -42q50 0 100 68l35 -29q-28 -54 -69.5 -88.5t-88.5 -34.5t-113.5 42t-107.5 42q-59 0 -98 -59z" />
<glyph unicode="&#xf6;" horiz-adv-x="1097" d="M82 530q0 236 132 394.5t333 158.5q134 0 241 -72.5t166.5 -199t59.5 -281.5q0 -234 -132.5 -391t-334.5 -157q-201 0 -333 157.5t-132 390.5zM209 530q0 -187 93.5 -313.5t244.5 -126.5q150 0 245 127t95 313q0 190 -94.5 317.5t-245.5 127.5t-244.5 -127.5 t-93.5 -317.5zM299 1274q0 32 20.5 55t49.5 23q32 0 52.5 -22t20.5 -56q0 -31 -20.5 -52.5t-52.5 -21.5q-30 0 -50 21.5t-20 52.5zM649 1274q0 32 20.5 55t49.5 23q32 0 53 -22t21 -56q0 -31 -21 -52.5t-53 -21.5q-30 0 -50 21.5t-20 52.5z" />
<glyph unicode="&#xf7;" horiz-adv-x="1003" d="M133 608v90h739v-90h-739zM426 979q0 36 23 59t53 23q32 0 56 -24t24 -58q0 -35 -23.5 -59.5t-56.5 -24.5q-32 0 -54 24.5t-22 59.5zM428 330q0 35 21.5 58.5t52.5 23.5t53.5 -24t22.5 -58t-22.5 -58t-53.5 -24q-32 0 -53 24t-21 58z" />
<glyph unicode="&#xf8;" horiz-adv-x="1097" d="M82 530q0 236 132 394.5t333 158.5q122 0 223 -63l66 119h98l-94 -170q82 -76 128 -190.5t46 -248.5q0 -234 -132.5 -391t-334.5 -157q-119 0 -219 59l-64 -115h-98l92 166q-84 76 -130 189.5t-46 248.5zM209 530q0 -206 106 -331l400 723q-75 53 -168 53 q-151 0 -244.5 -127.5t-93.5 -317.5zM381 139q74 -49 166 -49q150 0 245 127t95 313q0 204 -107 330z" />
<glyph unicode="&#xf9;" horiz-adv-x="1058" d="M135 406v659h123v-653q0 -322 246 -322q73 0 129.5 29t89 78t49 107t16.5 122v639h125v-1065h-94l-20 174q-35 -82 -120 -137t-206 -55q-158 0 -248 103.5t-90 320.5zM391 1456l90 51l109 -313h-78z" />
<glyph unicode="&#xfa;" horiz-adv-x="1058" d="M135 406v659h123v-653q0 -322 246 -322q73 0 129.5 29t89 78t49 107t16.5 122v639h125v-1065h-94l-20 174q-35 -82 -120 -137t-206 -55q-158 0 -248 103.5t-90 320.5zM461 1194l108 313l90 -51l-120 -262h-78z" />
<glyph unicode="&#xfb;" horiz-adv-x="1058" d="M135 406v659h123v-653q0 -322 246 -322q73 0 129.5 29t89 78t49 107t16.5 122v639h125v-1065h-94l-20 174q-35 -82 -120 -137t-206 -55q-158 0 -248 103.5t-90 320.5zM309 1194l170 229h94l170 -229h-102l-115 166l-114 -166h-103z" />
<glyph unicode="&#xfc;" horiz-adv-x="1058" d="M135 406v659h123v-653q0 -322 246 -322q73 0 129.5 29t89 78t49 107t16.5 122v639h125v-1065h-94l-20 174q-35 -82 -120 -137t-206 -55q-158 0 -248 103.5t-90 320.5zM281 1274q0 32 20 55t49 23q32 0 53 -22t21 -56q0 -31 -21 -52.5t-53 -21.5q-30 0 -49.5 21.5 t-19.5 52.5zM631 1274q0 32 20 55t49 23q32 0 53 -22t21 -56q0 -31 -21 -52.5t-53 -21.5q-30 0 -49.5 21.5t-19.5 52.5z" />
<glyph unicode="&#xfd;" horiz-adv-x="946" d="M66 1065h124l289 -922l277 922h125l-443 -1413h-121l103 330zM412 1194l108 313l90 -51l-121 -262h-77z" />
<glyph unicode="&#xfe;" horiz-adv-x="1118" d="M145 -348v1782h119v-574q45 102 135.5 162.5t202.5 60.5q123 0 222 -76t153.5 -203.5t54.5 -279.5q0 -147 -51 -270t-149 -197.5t-224 -74.5q-119 0 -213 63t-131 154v-547h-119zM264 537q0 -197 90.5 -322t229.5 -125q140 0 233.5 126t93.5 310q0 121 -42.5 224 t-119 164t-169.5 61q-137 0 -226.5 -125.5t-89.5 -312.5z" />
<glyph unicode="&#xff;" horiz-adv-x="946" d="M66 1065h124l289 -922l277 922h125l-443 -1413h-121l103 330zM219 1274q0 32 20.5 55t49.5 23q32 0 52.5 -22t20.5 -56q0 -31 -20.5 -52.5t-52.5 -21.5q-30 0 -50 21.5t-20 52.5zM569 1274q0 32 20.5 55t49.5 23q32 0 53 -22t21 -56q0 -31 -21 -52.5t-53 -21.5 q-30 0 -50 21.5t-20 52.5z" />
<glyph unicode="&#x152;" horiz-adv-x="2170" d="M98 717q0 206 79.5 374t223.5 264.5t324 96.5q163 0 291 -82t205 -227v291h835v-109h-708v-575h610v-105h-610v-536h733v-109h-860v289q-75 -143 -202.5 -224.5t-293.5 -82.5q-182 1 -326.5 99.5t-222.5 265.5t-78 370zM231 715q0 -174 62 -315t175.5 -222.5t256.5 -81.5 q211 0 349.5 168.5t146.5 423.5v51q-5 165 -69.5 302t-177 217.5t-249.5 80.5q-140 0 -253.5 -82t-177 -225t-63.5 -317z" />
<glyph unicode="&#x153;" horiz-adv-x="1822" d="M80 530q0 236 132 394.5t333 158.5q162 0 281.5 -104.5t162.5 -276.5q41 170 155 275.5t275 105.5q128 0 224 -74.5t143 -190t47 -251.5q0 -59 -4 -82h-727q9 -168 111.5 -281.5t254.5 -113.5q117 0 267 70l34 -92q-164 -86 -321 -86q-170 0 -292.5 107t-164.5 278 q-42 -173 -162.5 -279t-283.5 -106q-201 0 -333 157.5t-132 390.5zM207 530q0 -187 93.5 -313.5t244.5 -126.5q150 0 245 127t95 313q0 190 -94.5 317.5t-245.5 127.5t-244.5 -127.5t-93.5 -317.5zM1102 582h602q1 71 -15 138t-48 125.5t-88 94t-128 35.5 q-141 0 -229 -109.5t-94 -283.5z" />
<glyph unicode="&#x178;" horiz-adv-x="1060" d="M35 1434h139l356 -719h9l352 719h131l-430 -848v-586h-121v586zM281 1608q0 32 20 55t49 23q32 0 53 -22t21 -56q0 -31 -21 -52.5t-53 -21.5q-30 0 -49.5 21.5t-19.5 52.5zM631 1608q0 32 20 55t49 23q32 0 53 -22t21 -56q0 -31 -21 -52.5t-53 -21.5q-30 0 -49.5 21.5 t-19.5 52.5z" />
<glyph unicode="&#x2c6;" horiz-adv-x="759" d="M166 1288l170 230h94l170 -230h-102l-115 166l-115 -166h-102z" />
<glyph unicode="&#x2dc;" horiz-adv-x="800" d="M147 1315q26 53 68 86t90 33q45 0 113 -42t108 -42q51 0 101 67l35 -28q-28 -54 -69.5 -88.5t-88.5 -34.5t-113.5 42t-107.5 42q-59 0 -99 -60z" />
<glyph unicode="&#x2000;" horiz-adv-x="932" />
<glyph unicode="&#x2001;" horiz-adv-x="1864" />
<glyph unicode="&#x2002;" horiz-adv-x="932" />
<glyph unicode="&#x2003;" horiz-adv-x="1864" />
<glyph unicode="&#x2004;" horiz-adv-x="621" />
<glyph unicode="&#x2005;" horiz-adv-x="466" />
<glyph unicode="&#x2006;" horiz-adv-x="310" />
<glyph unicode="&#x2007;" horiz-adv-x="310" />
<glyph unicode="&#x2008;" horiz-adv-x="233" />
<glyph unicode="&#x2009;" horiz-adv-x="372" />
<glyph unicode="&#x200a;" horiz-adv-x="103" />
<glyph unicode="&#x2010;" horiz-adv-x="886" d="M133 618v91h621v-91h-621z" />
<glyph unicode="&#x2011;" horiz-adv-x="886" d="M133 618v91h621v-91h-621z" />
<glyph unicode="&#x2012;" horiz-adv-x="886" d="M133 618v91h621v-91h-621z" />
<glyph unicode="&#x2013;" horiz-adv-x="1247" d="M133 618v91h981v-91h-981z" />
<glyph unicode="&#x2014;" horiz-adv-x="1417" d="M133 618v91h1151v-91h-1151z" />
<glyph unicode="&#x2018;" horiz-adv-x="440" d="M127 1190q0 144 152 237l24 -41q-49 -37 -79 -100t-11 -121q0 2 3.5 6.5t11 8.5t16.5 4q28 0 44.5 -18.5t16.5 -49.5q0 -33 -21 -55.5t-51 -22.5q-51 0 -78.5 45t-27.5 107z" />
<glyph unicode="&#x2019;" horiz-adv-x="440" d="M141 1350q0 32 21.5 54.5t50.5 22.5q51 0 78.5 -45t27.5 -106q0 -80 -44.5 -140.5t-106.5 -97.5l-25 39q49 39 79 101.5t11 121.5q0 -6 -8.5 -12t-21.5 -6q-28 0 -45 18.5t-17 49.5z" />
<glyph unicode="&#x201a;" horiz-adv-x="436" d="M133 68q0 33 21.5 55t52.5 22q49 0 76.5 -45t27.5 -106q0 -145 -151 -238l-23 41q48 37 77.5 99.5t10.5 121.5q0 -5 -9 -11.5t-21 -6.5q-27 0 -44.5 19t-17.5 49z" />
<glyph unicode="&#x201c;" horiz-adv-x="745" d="M127 1190q0 145 149 237l25 -41q-49 -37 -78 -98.5t-12 -122.5q2 7 11 13t20 6q27 0 44 -19t17 -49q0 -34 -21 -56t-51 -22q-51 0 -77.5 44.5t-26.5 107.5zM432 1190q0 144 152 237l24 -41q-49 -37 -79 -99.5t-11 -121.5q5 19 31 19q28 0 44.5 -19.5t16.5 -48.5 q0 -35 -21 -56.5t-52 -21.5q-50 0 -77.5 45t-27.5 107z" />
<glyph unicode="&#x201d;" horiz-adv-x="743" d="M139 1350q0 33 21 55t51 22q49 0 76.5 -45t27.5 -106q0 -80 -44.5 -140.5t-106.5 -97.5l-23 39q49 37 79 99.5t11 123.5q-5 -18 -30 -18q-28 0 -45 19.5t-17 48.5zM444 1350q0 33 21.5 55t52.5 22q49 0 77 -45.5t28 -105.5q0 -80 -44.5 -140.5t-107.5 -97.5l-25 39 q50 39 80 100.5t11 122.5q0 -6 -9.5 -12t-21.5 -6q-27 0 -44.5 19t-17.5 49z" />
<glyph unicode="&#x201e;" horiz-adv-x="739" d="M133 68q0 34 22.5 55.5t55.5 21.5q47 0 73.5 -45t26.5 -106q0 -145 -151 -238l-25 41q49 37 79 99.5t11 121.5q-5 -18 -32 -18q-26 0 -43 19.5t-17 48.5zM440 68q0 35 21.5 56t54.5 21q48 0 74 -45t26 -106q0 -145 -151 -238l-23 41q48 38 77.5 99t10.5 122 q0 -7 -9 -12.5t-23 -5.5q-26 0 -42 19t-16 49z" />
<glyph unicode="&#x2022;" horiz-adv-x="657" d="M172 721q0 69 46.5 118.5t111.5 49.5q63 0 109 -50t46 -122q0 -69 -46 -118.5t-109 -49.5q-65 0 -111.5 50t-46.5 122z" />
<glyph unicode="&#x2026;" horiz-adv-x="1228" d="M129 63q0 32 20.5 53t51.5 21q28 0 48.5 -21t20.5 -53t-20.5 -52.5t-48.5 -20.5q-31 0 -51.5 20.5t-20.5 52.5zM469 63q0 32 20.5 53t51.5 21q28 0 48.5 -21t20.5 -53t-20.5 -52.5t-48.5 -20.5q-31 0 -51.5 20.5t-20.5 52.5zM813 63q0 32 20.5 53t51.5 21q28 0 48.5 -21 t20.5 -53t-20.5 -52.5t-48.5 -20.5q-31 0 -51.5 20.5t-20.5 52.5z" />
<glyph unicode="&#x202f;" horiz-adv-x="372" />
<glyph unicode="&#x2039;" horiz-adv-x="606" d="M84 518v29l350 465l62 -66l-279 -414l279 -413l-62 -64z" />
<glyph unicode="&#x203a;" horiz-adv-x="606" d="M111 119l278 413l-278 414l61 66l350 -465v-29l-350 -463z" />
<glyph unicode="&#x205f;" horiz-adv-x="466" />
<glyph unicode="&#x20ac;" horiz-adv-x="1409" d="M86 809l23 68h145q46 263 219.5 419t419.5 156q209 -3 371 -100l-33 -92q-6 3 -16 9t-45 21t-72 26t-93.5 20.5t-113.5 9.5q-190 0 -324.5 -129t-173.5 -340h654l-23 -68h-643q-4 -62 -4 -92q0 -53 6 -99h575l-22 -65h-543q42 -209 178.5 -337t325.5 -128q153 0 340 82 v-111q-151 -77 -344 -77q-245 0 -418 155t-219 416h-160l23 65h127q-4 62 -4 99q0 30 4 92h-160z" />
<glyph unicode="&#x2122;" horiz-adv-x="1370" d="M127 1362v72h440v-72h-180v-555h-76v555h-184zM696 807v627h70l192 -424l183 424h73v-627h-69v487l-164 -370h-49l-166 370v-487h-70z" />
<glyph unicode="&#x25fc;" horiz-adv-x="1064" d="M0 0v1065h1065v-1065h-1065z" />
</font>
</defs>
</svg>
