<?xml version="1.0" standalone="no"?>
<!DOCTYPE svg PUBLIC "-//W3C//DTD SVG 1.1//EN" "http://www.w3.org/Graphics/SVG/1.1/DTD/svg11.dtd" >
<svg xmlns="http://www.w3.org/2000/svg" xmlns:xlink="http://www.w3.org/1999/xlink" version="1.1">
<metadata></metadata>
<defs>
<font id="centralesanscndmeuploadedfile" horiz-adv-x="1085" >
<font-face units-per-em="2048" ascent="1667" descent="-381" />
<missing-glyph horiz-adv-x="460" />
<glyph unicode="&#xfb01;" horiz-adv-x="1021" d="M37 909v133l121 23v90q0 170 105.5 267.5t264.5 97.5q156 0 291 -90l-84 -144q-82 55 -182 55q-184 0 -184 -208v-68h528v-1065h-211v909h-317v-909h-211v909h-121z" />
<glyph unicode="&#xfb02;" horiz-adv-x="1060" d="M35 909v133l121 23v55q0 190 102 295t268 105t267.5 -103.5t103.5 -296.5v-887q0 -72 55 -71l62 8v-168q-86 -23 -152 -22q-176 0 -176 231v909q0 113 -44 167t-115.5 54t-115.5 -54t-44 -167v-55h176v-156h-176v-909h-211v909h-121z" />
<glyph unicode="&#xfb03;" horiz-adv-x="1515" d="M37 909v133l121 23v109q0 174 63.5 260t218.5 86q65 -1 131 -19l-30 -168q-37 8 -66 8q-106 0 -106 -165v-111h297v115q0 166 103 263t257 97q164 0 295 -84l-68 -147q-86 49 -200 49q-94 0 -135 -59.5t-41 -145.5v-88h514v-1065h-211v909h-303v-909h-211v909h-297v-909 h-211v909h-121z" />
<glyph unicode="&#xfb04;" horiz-adv-x="1574" d="M37 909v133l121 23v109q0 174 63.5 260t218.5 86q66 0 131 -19l-30 -168q-37 8 -66 8q-106 0 -106 -165v-111h297v72q0 190 102 294.5t268 104.5t267.5 -103.5t103.5 -295.5v-904q0 -72 55 -71l62 8v-168q-86 -23 -152 -22q-176 0 -176 231v934q0 213 -159.5 213 t-159.5 -213v-80h176v-156h-176v-909h-211v909h-297v-909h-211v909h-121z" />
<glyph horiz-adv-x="0" />
<glyph horiz-adv-x="0" />
<glyph horiz-adv-x="682" />
<glyph unicode="&#xd;" horiz-adv-x="681" />
<glyph unicode=" "  horiz-adv-x="460" />
<glyph unicode="&#x09;" horiz-adv-x="460" />
<glyph unicode="&#xa0;" horiz-adv-x="460" />
<glyph unicode="!" horiz-adv-x="516" d="M129 1434h258l-43 -1010h-172zM137 108.5q0 51.5 36 87t85 35.5t84 -35.5t35 -86.5q0 -53 -35 -90t-84 -37t-85 37.5t-36 89z" />
<glyph unicode="&#x22;" horiz-adv-x="770" d="M135 874v560h227l-94 -560h-133zM451 874l2 560h229l-98 -560h-133z" />
<glyph unicode="#" horiz-adv-x="1376" d="M78 324l26 182h215l60 407h-213l27 183h215l51 338h182l-51 -338h313l51 338h183l-52 -338h211l-26 -183h-211l-62 -407h211l-26 -182h-213l-47 -324h-183l49 324h-313l-49 -324h-182l49 324h-215zM502 506h313l59 407h-313z" />
<glyph unicode="$" horiz-adv-x="1028" d="M96 1055q0 176 96.5 276.5t258.5 118.5v188h139v-188q182 -14 317 -84l-65 -176q-18 10 -54 24.5t-104 30t-129 15.5q-119 0 -180.5 -53.5t-61.5 -143.5q0 -76 47.5 -130t117 -82t152.5 -67t152.5 -80.5t116.5 -126.5t47 -202q0 -166 -91 -266.5t-265 -126.5v-183h-139 v183q-193 14 -351 90l70 178q174 -76 319 -76q113 0 176.5 52.5t63.5 146.5q0 68 -35 116t-91 77.5t-122.5 56t-134 59.5t-124 77t-91.5 118.5t-35 177.5z" />
<glyph unicode="%" horiz-adv-x="1445" d="M51 1104q0 154 82 252t213 98q127 0 207 -96t80 -248t-82 -249t-213 -97q-127 0 -207 96t-80 244zM240 1108q0 -90 27.5 -137t74.5 -47t74.5 49t27.5 135t-28.5 134t-73.5 48t-73.5 -49t-28.5 -133zM264 0l701 1434h217l-695 -1434h-223zM817 321.5q0 151.5 83 251 t212 99.5q125 0 206 -98.5t81 -249.5q0 -147 -83 -245.5t-208 -98.5q-129 0 -210 95t-81 246.5zM1006 326q0 -185 102 -185q45 0 73.5 49.5t28.5 133.5q0 86 -28.5 135t-73.5 49q-47 0 -74.5 -48t-27.5 -134z" />
<glyph unicode="&#x26;" horiz-adv-x="1171" d="M70 393q0 139 67.5 239.5t192.5 186.5q-8 14 -38 56.5t-41 60.5t-28.5 53t-23.5 68t-6 69q0 131 83 229.5t224 98.5q129 0 219 -85t90 -222q0 -205 -229 -367l274 -374q12 14 30.5 85.5t18.5 151.5h172q0 -248 -106 -401l178 -242h-223l-82 113q-131 -133 -336 -133 q-188 0 -312 110.5t-124 302.5zM260 416q0 -115 71.5 -181.5t182.5 -66.5q151 0 227 92l-309 418q-172 -102 -172 -262zM373 1143q0 -37 15 -75t33.5 -67.5t61.5 -87.5q150 104 150 228q0 68 -34 105.5t-95.5 37.5t-96 -39t-34.5 -102z" />
<glyph unicode="'" horiz-adv-x="458" d="M135 1434h232l-97 -557h-131z" />
<glyph unicode="(" horiz-adv-x="647" d="M78 600q0 152 42 293t109.5 248.5t133 182.5t133.5 130l96 -129q-57 -59 -98 -112.5t-90.5 -142.5t-76 -209t-26.5 -263q0 -145 25.5 -268t76 -214t91.5 -145.5t98 -115.5l-96 -129q-68 55 -133.5 130.5t-133 185.5t-109.5 255t-42 303z" />
<glyph unicode=")" horiz-adv-x="647" d="M55 -145q59 61 99.5 115.5t90.5 145.5t76.5 214t24.5 268q0 143 -26.5 263t-76.5 210t-89 141.5t-99 112.5l97 129q68 -55 133 -130t132.5 -182.5t108.5 -248.5t41 -293q0 -158 -41 -303t-108.5 -255t-132.5 -185.5t-133 -130.5z" />
<glyph unicode="*" horiz-adv-x="765" d="M104 1104l197 106l-197 105l68 119l170 -154l-25 260h129l-24 -258l170 152l70 -119l-199 -105l199 -106l-70 -119l-170 154l24 -256h-129l25 256l-170 -154z" />
<glyph unicode="+" horiz-adv-x="878" d="M96 608v150h271v325h145v-325h270v-150h-270v-327h-145v327h-271z" />
<glyph unicode="," horiz-adv-x="475" d="M117 82q0 49 32.5 82t79.5 33q63 0 100.5 -55.5t37.5 -129.5q0 -184 -193 -291l-41 70q117 92 115 209q-12 -20 -39 -20q-41 0 -66.5 27.5t-25.5 74.5z" />
<glyph unicode="-" horiz-adv-x="880" d="M121 614v148h639v-148h-639z" />
<glyph unicode="." horiz-adv-x="438" d="M113 90q0 47 30.5 80t73.5 33q45 0 77 -33t32 -80q0 -49 -32 -79.5t-77 -30.5t-74.5 30.5t-29.5 79.5z" />
<glyph unicode="/" horiz-adv-x="866" d="M57 -74l576 1577h176l-578 -1577h-174z" />
<glyph unicode="0" horiz-adv-x="1234" d="M94 717q0 328 145.5 532.5t378.5 204.5q231 0 376 -203.5t145 -529.5q0 -330 -144.5 -535.5t-378 -205.5t-378 203.5t-144.5 533.5zM317 719q0 -258 80 -403.5t221 -145.5q139 0 218 145.5t79 399.5t-80.5 401.5t-218.5 147.5q-139 0 -219 -146.5t-80 -398.5z" />
<glyph unicode="1" horiz-adv-x="659" d="M39 1245l299 189h160v-1434h-209v1188l-185 -90z" />
<glyph unicode="2" horiz-adv-x="1024" d="M92 1341q207 113 391 113q178 0 296 -120t118 -314q0 -150 -70.5 -271.5t-210.5 -269.5l-286 -301h608v-178h-844v180l414 445q188 213 188 383q0 113 -69.5 184.5t-194.5 71.5q-92 0 -262 -70z" />
<glyph unicode="3" horiz-adv-x="989" d="M82 88l68 154q143 -72 270 -72q119 0 195.5 68.5t76.5 189.5q0 133 -88 193.5t-209 60.5h-84v160h97q102 0 172.5 52t70.5 157q0 96 -63.5 154.5t-169.5 58.5q-117 -1 -250 -52l-53 158q174 84 346 84q176 0 282.5 -105.5t106.5 -267.5q0 -229 -217 -325 q266 -90 266 -353q0 -190 -126 -306.5t-327 -116.5q-203 0 -364 108z" />
<glyph unicode="4" horiz-adv-x="1071" d="M55 336v151l613 947h186v-940h141v-158h-141v-336h-211v336h-588zM252 494h391v612z" />
<glyph unicode="5" horiz-adv-x="1011" d="M82 88l68 154q135 -72 272 -72q145 0 222 84t77 219q0 129 -65.5 215t-184.5 86q-102 0 -197 -86l-141 76l70 670h682v-189h-537l-39 -381q88 70 217 70q176 0 289 -128t113 -333q0 -223 -134.5 -358t-347.5 -135q-197 0 -364 108z" />
<glyph unicode="6" d="M96 672q0 102 13.5 201.5t49.5 207t91 188.5t147 133t209 52q205 0 348 -106l-73 -150q-139 76 -260 76q-168 0 -259.5 -153.5t-80.5 -399.5q37 102 128 157.5t197 55.5q162 0 278.5 -126t116.5 -339t-120.5 -351t-315.5 -138q-229 0 -349 194.5t-120 497.5zM313 459 q0 -127 69 -217t179.5 -90t178 88t67.5 217q0 127 -67.5 215t-180.5 88t-179.5 -88t-66.5 -213z" />
<glyph unicode="7" horiz-adv-x="931" d="M74 1245v189h813v-191l-490 -1243h-215l490 1245h-598z" />
<glyph unicode="8" horiz-adv-x="1046" d="M72 397q0 141 78.5 234.5t191.5 126.5q-92 31 -154.5 113.5t-62.5 203.5q0 174 115.5 276.5t281.5 102.5t282 -102.5t116 -274.5q0 -121 -62.5 -205t-155.5 -114q113 -33 192 -125t79 -238q0 -188 -132 -301.5t-316.5 -113.5t-318.5 112.5t-134 304.5zM281 401 q0 -119 70.5 -184t171 -65t171 65.5t70.5 183.5q0 113 -66.5 180.5t-175.5 67.5q-111 0 -176 -67.5t-65 -180.5zM322 1057q0 -98 53 -162t147 -64t147.5 63.5t53.5 162.5q0 100 -56.5 160.5t-144.5 60.5t-144 -60.5t-56 -160.5z" />
<glyph unicode="9" horiz-adv-x="1089" d="M82 965q0 213 121 351t315 138q229 0 349 -194.5t120 -497.5q0 -102 -13 -201.5t-49 -207t-91.5 -188.5t-147.5 -133t-209 -52q-205 0 -348 106l74 150q139 -76 260 -76q168 0 259 150.5t81 394.5q-37 -102 -128 -155.5t-198 -53.5q-160 0 -277.5 128t-117.5 341z M276 977q0 -133 66.5 -218t181.5 -85q113 0 179.5 86t66.5 215t-67.5 218t-180.5 89q-111 0 -178.5 -87t-67.5 -218z" />
<glyph unicode=":" horiz-adv-x="454" d="M121 100q0 47 30.5 80t73.5 33q45 0 77 -33t32 -80q0 -49 -31 -79.5t-78 -30.5q-45 0 -74.5 30.5t-29.5 79.5zM121 823q0 47 30.5 79t73.5 32q47 0 78 -32t31 -79q0 -49 -31 -80.5t-78 -31.5q-45 0 -74.5 30.5t-29.5 81.5z" />
<glyph unicode=";" horiz-adv-x="501" d="M129 90q0 49 31 82t76 33q66 0 103.5 -54.5t37.5 -130.5q0 -182 -191 -288l-41 67q113 82 113 209q-6 -18 -37 -18q-43 0 -67.5 26.5t-24.5 73.5zM141 823q0 47 31 79t74 32q45 0 75.5 -32t30.5 -79q0 -49 -30.5 -80.5t-75.5 -31.5t-75 30.5t-30 81.5z" />
<glyph unicode="&#x3c;" horiz-adv-x="745" d="M86 635v119l522 305v-162l-329 -203l333 -207v-165z" />
<glyph unicode="=" horiz-adv-x="868" d="M127 444v150h612v-150h-612zM127 774v150h612v-150h-612z" />
<glyph unicode="&#x3e;" horiz-adv-x="743" d="M133 322v165l332 207l-328 203v162l520 -305v-119z" />
<glyph unicode="?" horiz-adv-x="862" d="M74 1333q152 121 334 121q156 0 266 -94t110 -256q0 -84 -32.5 -154.5t-78.5 -118t-92 -90.5t-79 -93t-33 -105v-121h-176v106q0 63 20 129q18 59 66.5 115.5t93.5 91.5t80 90.5t35 120.5q0 92 -59.5 141.5t-139.5 49.5q-121 0 -237 -84zM268 106q0 51 35 87t84 36 t85 -35.5t36 -87t-36 -89t-85 -37.5t-84 36.5t-35 89.5z" />
<glyph unicode="@" horiz-adv-x="1589" d="M90 602q0 367 201 609.5t530 242.5q311 0 501.5 -222t190.5 -591q0 -217 -72 -338t-224 -121q-92 0 -152.5 42t-71.5 110q-14 -63 -75.5 -107.5t-155.5 -44.5q-117 0 -190.5 71t-73.5 191q0 131 83 197t216 66q80 0 168 -17v72q0 98 -41 134t-119 36q-100 0 -209 -33 l-29 111q127 45 271 45q135 0 198.5 -70t63.5 -213v-362q0 -57 31.5 -86t82.5 -29q164 0 164 321q0 346 -153.5 519.5t-401.5 173.5q-274 0 -435 -202t-161 -507q0 -291 147.5 -486.5t416.5 -195.5q133 0 249 53l50 -114q-150 -78 -308 -78q-317 0 -504.5 235.5 t-187.5 587.5zM629 459q0 -70 40.5 -112t108.5 -42q78 0 132.5 55.5t54.5 145.5v88q-72 14 -154 14q-74 0 -128 -34.5t-54 -114.5z" />
<glyph unicode="A" horiz-adv-x="1165" d="M31 0l415 1444h281l414 -1444h-232l-104 371h-451l-102 -371h-221zM401 559h359l-178 662h-2z" />
<glyph unicode="B" horiz-adv-x="1171" d="M156 0v1434h485q172 0 281.5 -107.5t109.5 -277.5q0 -129 -61.5 -209t-134.5 -105q98 -23 178 -110.5t80 -237.5q0 -170 -105.5 -278.5t-261.5 -108.5h-571zM373 199h295q94 0 150 60t56 159q0 94 -57 152.5t-180 58.5h-264v-430zM373 815h243q92 0 147.5 59.5 t55.5 155.5q0 86 -48 145.5t-153 59.5h-245v-420z" />
<glyph unicode="C" horiz-adv-x="1171" d="M80 717q0 332 188 534.5t475 202.5q211 0 365 -113l-80 -167q-135 81 -275 81h-3q-193 0 -318 -153.5t-125 -385t125 -385t316 -153.5q66 0 134 19.5t102 37t44 25.5l80 -172q-153 -108 -363 -108h-4q-285 0 -473 201.5t-188 535.5z" />
<glyph unicode="D" horiz-adv-x="1245" d="M156 0v1434h440q166 0 293 -88q133 -94 201.5 -265.5t68.5 -370t-70.5 -366.5t-199.5 -256q-127 -88 -293 -88h-440zM373 199h182q121 0 209 61q174 121 174 457t-174 459q-84 59 -209 59h-182v-1036z" />
<glyph unicode="E" horiz-adv-x="1122" d="M156 0v1434h864v-199h-647v-440h559v-191h-559v-405h663v-199h-880z" />
<glyph unicode="F" horiz-adv-x="1069" d="M156 0v1434h864v-199h-647v-453h559v-192h-559v-590h-217z" />
<glyph unicode="G" horiz-adv-x="1294" d="M80 716.5q0 325.5 189 531.5t474 206q223 0 402 -119l-82 -170q-43 29 -130 59.5t-181 30.5q-205 0 -325 -155.5t-120 -382.5q0 -229 124 -384t319 -155q139 0 241 105v301h-301v176h510v-551q-184 -229 -471 -229q-274 0 -461.5 205.5t-187.5 531z" />
<glyph unicode="H" horiz-adv-x="1320" d="M156 0v1434h217v-617h573v617h217v-1434h-217v600h-573v-600h-217z" />
<glyph unicode="I" horiz-adv-x="530" d="M156 0v1434h219v-1434h-219z" />
<glyph unicode="J" horiz-adv-x="921" d="M6 201l137 123q33 -43 55.5 -67t71.5 -51.5t107 -27.5q94 0 139 62.5t45 160.5v1033h217v-979q0 -225 -99.5 -350t-287.5 -125q-80 0 -146.5 21.5t-113.5 61t-71.5 68.5t-53.5 70z" />
<glyph unicode="K" horiz-adv-x="1161" d="M156 0v1434h219l-4 -717l4 -2l502 719h249l-450 -643l473 -791h-254l-367 633l-153 -207v-426h-219z" />
<glyph unicode="L" horiz-adv-x="995" d="M156 0v1434h217v-1235h594v-199h-811z" />
<glyph unicode="M" horiz-adv-x="1636" d="M156 0v1434h299l362 -1088h4l363 1088h297v-1434h-217v565l18 580h-4l-348 -1053h-221l-349 1053h-4l17 -580v-565h-217z" />
<glyph unicode="N" horiz-adv-x="1296" d="M156 0v1434h229l547 -1061h4l-12 600v461h217v-1434h-230l-546 1073h-5l13 -504v-569h-217z" />
<glyph unicode="O" horiz-adv-x="1423" d="M82 719q0 324 172 529.5t458.5 205.5t458.5 -206t172 -529q0 -322 -167.5 -530.5t-462.5 -208.5t-463 208.5t-168 530.5zM307 717q0 -240 108.5 -389.5t297.5 -149.5q190 0 297.5 149.5t107.5 389.5q0 233 -110.5 385.5t-294.5 152.5q-182 0 -294 -152.5t-112 -385.5z " />
<glyph unicode="P" horiz-adv-x="1132" d="M156 0v1434h510q182 0 300.5 -128t118.5 -318.5t-117.5 -317.5t-297.5 -127h-297v-543h-217zM373 739h252q115 0 181 69t66 179q0 106 -66.5 177t-176.5 71h-256v-496z" />
<glyph unicode="Q" horiz-adv-x="1423" d="M80 721q0 322 173 527.5t459.5 205.5t457.5 -205t171 -524q0 -244 -100 -426t-268 -260v-6q133 -84 354 -129l-49 -183q-152 37 -290 112t-228 149q-27 -2 -58 -2q-283 0 -452.5 210.5t-169.5 530.5zM305 716.5q0 -235.5 110.5 -387t297.5 -151.5q188 0 295.5 151.5 t107.5 385.5q0 238 -109.5 389t-294 151t-296 -151.5t-111.5 -387z" />
<glyph unicode="R" horiz-adv-x="1189" d="M160 0v1434h514q190 0 307 -118t117 -308q0 -293 -256 -396l299 -612h-238l-274 582h-252v-582h-217zM377 778h276q100 0 166 63.5t66 166.5q0 98 -64.5 162.5t-167.5 64.5h-276v-457z" />
<glyph unicode="S" horiz-adv-x="1034" d="M80 86l70 174q2 -2 20 -10t32.5 -14.5t39 -16.5t50 -17t55.5 -13.5t63.5 -10.5t68.5 -4q137 0 205 57.5t68 143.5q0 61 -36 106t-94.5 76t-128 58.5t-139 62.5t-128 81t-94.5 124t-36 178q0 193 123 293t320 100q193 0 389 -94l-66 -172q-2 0 -16.5 6t-32.5 14.5 t-47 17.5t-59.5 16t-68.5 12.5t-75 5.5q-123 0 -188.5 -53.5t-65.5 -137.5q0 -61 36 -106t94.5 -74t128 -56.5t139 -63.5t128 -83t94.5 -125t36 -182q0 -205 -129 -302t-330 -97q-213 0 -426 106z" />
<glyph unicode="T" horiz-adv-x="1032" d="M23 1241v193h989v-193h-383v-1241h-219v1241h-387z" />
<glyph unicode="U" horiz-adv-x="1257" d="M143 485v949h217v-957q0 -135 74 -217t197 -82t195.5 82t72.5 217v957h217v-949q0 -225 -130 -365t-355 -140q-233 0 -360.5 143t-127.5 362z" />
<glyph unicode="V" horiz-adv-x="1165" d="M27 1434h231l328 -1168h2l325 1168h226l-422 -1434h-266z" />
<glyph unicode="W" horiz-adv-x="1785" d="M41 1434h233l250 -1145l246 1145h256l246 -1145l250 1145h223l-336 -1440h-274l-240 1110l-236 -1110h-276z" />
<glyph unicode="X" horiz-adv-x="1191" d="M18 1434h248l338 -543h2l318 543h233l-436 -715l453 -719h-254l-326 547h-2l-322 -547h-235l438 717z" />
<glyph unicode="Y" horiz-adv-x="1089" d="M6 1434h232l309 -643h2l309 643h219l-430 -854v-580h-211v580z" />
<glyph unicode="Z" horiz-adv-x="1081" d="M59 0v152l660 1083l-2 4l-258 -4h-371v199h924v-150l-662 -1087l2 -4l264 6h390v-199h-947z" />
<glyph unicode="[" horiz-adv-x="561" d="M143 -369v1823h338v-166h-164v-1493h164v-164h-338z" />
<glyph unicode="\" horiz-adv-x="868" d="M59 1503h174l578 -1577h-174z" />
<glyph unicode="]" horiz-adv-x="563" d="M80 -205h164v1493h-164v166h338v-1823h-338v164z" />
<glyph unicode="_" horiz-adv-x="1034" d="M121 -139h794v-152h-794v152z" />
<glyph unicode="`" horiz-adv-x="581" d="M162 1462l147 74l125 -358h-135z" />
<glyph unicode="a" horiz-adv-x="1011" d="M51 307q0 174 111.5 261t290.5 87q82 0 202 -14v64q0 119 -48 158.5t-144 39.5q-144 0 -283 -45l-39 166q193 61 355 61q371 0 370 -348v-520q0 -49 49 -49q14 0 43 4v-154q-51 -26 -124 -26h-5q-63 0 -109 32.5t-46 110.5q-25 -57 -92.5 -106t-194.5 -49q-150 0 -243 86 t-93 241zM260 328q0 -84 48 -128t124 -44q100 0 161.5 66t61.5 181v82q-80 14 -161 15q-233 0 -234 -172z" />
<glyph unicode="b" horiz-adv-x="1128" d="M127 0v1499h211v-606q47 98 129 145t176 47q186 0 300 -163.5t114 -393t-117 -389t-307 -159.5q-111 0 -191 55t-114 149l-21 -184h-180zM344 530q0 -158 67.5 -260t182.5 -102q113 0 179.5 102.5t66.5 260t-66.5 263t-179.5 105.5t-181.5 -104.5t-68.5 -264.5z" />
<glyph unicode="c" horiz-adv-x="899" d="M70 535q0 236 139 393t352 157q160 0 281 -77l-66 -158q-80 47 -174 47q-152 0 -233.5 -106.5t-81.5 -258.5q0 -150 83 -257t232 -107q102 0 174 47l66 -158q-129 -77 -281 -77q-215 0 -353 156.5t-138 398.5z" />
<glyph unicode="d" horiz-adv-x="1124" d="M72 530q0 231 112.5 393t309.5 162q84 0 167.5 -49t126.5 -143v606h211v-1499h-180l-20 186q-35 -94 -115 -150t-190 -56q-190 0 -306 158.5t-116 391.5zM289 530q0 -158 65.5 -260t177.5 -102q115 0 183.5 102.5t68.5 261.5q0 158 -69 261.5t-180 103.5 q-115 0 -180.5 -103.5t-65.5 -263.5z" />
<glyph unicode="e" horiz-adv-x="1005" d="M70 535q0 238 124.5 394t325.5 156q193 0 306.5 -143t113.5 -358q0 -78 -8 -125h-641q8 -135 90 -213t211 -78q117 0 248 63l55 -165q-156 -86 -340 -86q-217 0 -351 155.5t-134 399.5zM289 610h452v15q0 104 -53 189q-57 91 -164 91q-96 0 -161.5 -81t-73.5 -214z" />
<glyph unicode="f" horiz-adv-x="612" d="M43 909v133l121 23v78q0 188 60.5 282.5t221.5 94.5q92 -1 162 -17l-33 -168q-18 6 -77 6q-123 0 -123 -172v-104h207v-156h-207v-909h-211v909h-121z" />
<glyph unicode="g" horiz-adv-x="952" d="M78 -74q0 121 106 205q-90 51 -90 162q0 121 99 184q-93 96 -93 246q0 156 100.5 259t270.5 103q39 0 156 -20h270v-150l-129 -12q74 -63 74 -201q0 -143 -103.5 -243.5t-267.5 -100.5q-94 0 -166 41q-47 -35 -47 -88q0 -33 16.5 -53t52 -27.5t59.5 -8.5t71 -1h22h80 q174 0 247 -76.5t73 -195.5q0 -297 -394 -297q-49 0 -94 4t-105.5 21.5t-103.5 45t-73.5 81t-30.5 122.5zM260 -47q0 -43 20.5 -70.5t58.5 -38t66.5 -13.5t69.5 -3q221 0 221 125q0 106 -141 106h-86q-102 0 -158 17q-51 -43 -51 -123zM301 723q0 -100 45 -155.5t125 -55.5 t125 55.5t45 155.5v2q0 92 -47 143.5t-123 51.5t-123 -51.5t-47 -143.5v-2z" />
<glyph unicode="h" horiz-adv-x="1060" d="M127 0v1499h211v-588q25 59 96.5 116.5t190.5 57.5q139 0 230 -107.5t91 -332.5v-645h-211v655q0 117 -50 179.5t-132 62.5q-102 0 -158.5 -76t-56.5 -188v-633h-211z" />
<glyph unicode="i" horiz-adv-x="493" d="M66 915v150h303v-1065h-211v893zM119 1355.5q0 55.5 35.5 94.5t91 39t91.5 -39t36 -94.5t-36 -94t-91.5 -38.5t-91 38.5t-35.5 94z" />
<glyph unicode="j" horiz-adv-x="499" d="M-35 -319l33 157q41 -10 82 -10t63.5 30.5t22.5 114.5v920l-92 22v150h303v-1053q0 -360 -264 -360q-80 0 -148 29zM133 1352q0 51 35 88t86 37q49 0 85 -37t36 -88.5t-36 -88t-85 -36.5q-51 0 -86 35.5t-35 89.5z" />
<glyph unicode="k" horiz-adv-x="929" d="M127 0v1499h211v-919l348 485h221l-352 -485l342 -580h-217l-244 424l-98 -127v-297h-211z" />
<glyph unicode="l" horiz-adv-x="514" d="M135 211v1288h211v-1266q0 -71 54 -71h1l62 8v-168q-82 -22 -146 -22h-6q-176 0 -176 231z" />
<glyph unicode="m" horiz-adv-x="1591" d="M127 0v1065h168l33 -164q31 78 100.5 131t165.5 53q90 0 158.5 -52t95.5 -150q31 80 108.5 141t190.5 61q147 0 237.5 -102t90.5 -307v-676h-211v684q0 94 -44 153.5t-130 59.5q-88 0 -134.5 -67.5t-46.5 -170.5v-659h-211v690q0 90 -46 148.5t-128 58.5 q-90 0 -138 -68.5t-48 -169.5v-659h-211z" />
<glyph unicode="n" horiz-adv-x="1062" d="M127 0v1065h168l37 -170q16 55 91 122.5t200 67.5q141 0 232 -107.5t91 -332.5v-645h-211v655q0 117 -49 179.5t-135 62.5q-100 0 -156.5 -81t-56.5 -193v-623h-211z" />
<glyph unicode="o" d="M68 532.5q0 243.5 131 398t344 154.5t344 -154.5t131 -398t-131 -398t-344 -154.5t-344 154.5t-131 398zM285 532.5q0 -159.5 67.5 -262t190.5 -102.5t190.5 102.5t67.5 262t-66.5 262t-191.5 102.5t-191.5 -102.5t-66.5 -262z" />
<glyph unicode="p" horiz-adv-x="1120" d="M127 -348v1413h162l30 -180q41 92 121.5 146t184.5 54q186 0 305 -162.5t119 -390.5q0 -219 -109 -385.5t-307 -166.5q-113 0 -192 52t-109 136v-516h-205zM336 532q0 -160 68.5 -262t179 -102t179 104.5t68.5 260t-68 260t-179 104.5q-113 0 -180.5 -103.5t-67.5 -261.5 z" />
<glyph unicode="q" horiz-adv-x="1116" d="M70 532q0 227 119 390t305 163q104 0 184 -54t121 -146l30 180h162v-1413h-205v516q-31 -84 -109.5 -136t-191.5 -52q-199 0 -307 166.5t-108 385.5zM287 532.5q0 -155.5 68.5 -260t179 -104.5t179 102.5t68.5 261.5q0 158 -67 261.5t-180 103.5q-111 0 -179.5 -104.5 t-68.5 -260z" />
<glyph unicode="r" horiz-adv-x="651" d="M127 0v1065h166l29 -209q18 78 85.5 146.5t198.5 68.5v-194q-268 0 -268 -310v-567h-211z" />
<glyph unicode="s" horiz-adv-x="835" d="M74 780q0 152 101 228.5t253 76.5q147 0 307 -75l-55 -158q-115 57 -231 57q-166 0 -166 -125q0 -33 14 -57.5t49 -44.5t56.5 -29.5t74.5 -29.5q59 -20 103.5 -44t92.5 -62t74.5 -96.5t26.5 -131.5q0 -154 -99 -231.5t-255 -77.5q-168 0 -344 86l55 159q152 -69 263 -69 h3q170 0 170 131q0 35 -14 60.5t-50 47t-58.5 31.5t-77.5 33q-293 113 -293 321z" />
<glyph unicode="t" horiz-adv-x="655" d="M37 909v135l123 17l35 311h176v-307h217v-156h-217v-610q0 -80 24.5 -111.5t81.5 -31.5q18 0 45 5t45 11l19 4l8 -160q-93 -36 -181 -36h-5q-137 0 -192.5 75.5t-55.5 241.5v612h-123z" />
<glyph unicode="u" horiz-adv-x="1064" d="M119 387v678h211v-649q0 -248 184 -248q109 0 160 75.5t51 190.5v631h213v-1065h-168l-35 156q-82 -176 -299 -176q-133 0 -225 94t-92 313z" />
<glyph unicode="v" horiz-adv-x="985" d="M47 1065h213l240 -834l231 834h207l-326 -1065h-237z" />
<glyph unicode="w" horiz-adv-x="1501" d="M51 1065h205l205 -784l184 784h207l192 -782l205 782h201l-281 -1065h-245l-174 727l-170 -727h-248z" />
<glyph unicode="x" horiz-adv-x="948" d="M29 1065h227l225 -391l221 391h213l-311 -537l318 -528h-234l-219 389l-221 -389h-215l313 526z" />
<glyph unicode="y" horiz-adv-x="997" d="M47 1065h221l238 -803l223 803h221l-436 -1413h-225l100 328z" />
<glyph unicode="z" horiz-adv-x="894" d="M59 0v154l500 731v6l-260 -4h-213v178h735v-150l-497 -735v-6l245 4h252v-178h-762z" />
<glyph unicode="{" horiz-adv-x="598" d="M68 475v135q100 0 100 111v371q0 205 57.5 283.5t245.5 78.5h49v-162h-69q-70 0 -90.5 -33.5t-20.5 -136.5v-420q-1 -132 -107 -161q106 -20 107 -160v-444q0 -86 23.5 -115t87.5 -29h69v-162h-49q-104 0 -166.5 21.5t-91.5 74t-37 107.5t-8 156v377q0 109 -100 108z" />
<glyph unicode="|" horiz-adv-x="458" d="M143 -319v1941h172v-1941h-172z" />
<glyph unicode="}" horiz-adv-x="598" d="M78 -207h69q63 0 87 28.5t24 115.5v444q1 140 107 160q-106 29 -107 161v420q0 102 -20.5 136t-90.5 34h-69v162h49q188 0 245.5 -79t57.5 -283v-371q0 -111 100 -111v-135q-100 0 -100 -108v-377q0 -100 -8 -155.5t-37 -108t-91.5 -74t-166.5 -21.5h-49v162z" />
<glyph unicode="&#xa1;" horiz-adv-x="489" d="M113 -367l43 1010h172l43 -1010h-258zM123 958q0 53 35 90t84 37t84.5 -37.5t35.5 -89t-35.5 -87t-84.5 -35.5t-84 35.5t-35 86.5z" />
<glyph unicode="&#xa2;" horiz-adv-x="964" d="M82 700q0 225 114.5 376t305.5 173v168h96v-164q127 -6 252 -73l-57 -156q-98 49 -201 49q-141 0 -213 -108.5t-72 -264.5q0 -160 75 -264t214 -104q100 0 207 53l51 -158q-133 -74 -256 -80v-167h-96v174q-190 25 -305 174t-115 372z" />
<glyph unicode="&#xa3;" horiz-adv-x="1021" d="M84 0v182q4 2 12 5t27.5 19.5t34 37t27 59.5t12.5 84v236h-84v125h84v251q0 197 100 326t281 129q194 0 313 -164l-139 -127q-76 94 -164 94q-84 0 -129 -67.5t-45 -177.5v-264h385v-125h-385v-222q0 -162 -95 -217h599v-184h-834z" />
<glyph unicode="&#xa5;" horiz-adv-x="1179" d="M53 1434h226l309 -652h2l309 652h225l-430 -854v-62h201v-100h-201v-103h201v-100h-201v-215h-211v215h-200v100h200v103h-200v100h200v62z" />
<glyph unicode="&#xa7;" horiz-adv-x="1052" d="M92 561q0 176 135 297q-127 88 -127 244q0 158 115 245t307 87q205 0 391 -99l-59 -155q-154 63 -307 63q-209 0 -209 -149q0 -78 64.5 -127t155.5 -79t182 -65t156 -109.5t65 -189.5q0 -100 -44.5 -180t-91.5 -117q127 -88 127 -243q0 -158 -113.5 -245t-308.5 -87 q-205 0 -391 98l60 156q150 -63 307 -64q209 0 209 150q0 78 -64.5 127t-156 78.5t-182.5 64.5t-155.5 109.5t-64.5 189.5zM274 594q0 -63 47.5 -109.5t106.5 -68t141 -52t125 -59.5q84 90 84 187q0 82 -67.5 130t-186.5 87.5t-166 70.5q-84 -88 -84 -186z" />
<glyph unicode="&#xa8;" horiz-adv-x="913" d="M152 1331q0 45 30.5 77t73.5 32q47 0 76.5 -31t29.5 -78q0 -45 -29.5 -74.5t-76.5 -29.5q-45 0 -74.5 29.5t-29.5 74.5zM551 1331q0 45 31.5 77t72.5 32q47 0 78 -31t31 -78q0 -45 -31 -74.5t-78 -29.5q-45 0 -74.5 29.5t-29.5 74.5z" />
<glyph unicode="&#xa9;" horiz-adv-x="1398" d="M92 721q0 295 178.5 504t430 209t429 -209t177.5 -504q0 -297 -179.5 -509t-429 -212t-428 212t-178.5 509zM182 721q0 -260 151.5 -442.5t364.5 -182.5q215 0 367 182.5t152 442.5q0 254 -153 436t-366 182q-211 0 -363.5 -182t-152.5 -436zM379 723q0 162 97 271.5 t235 109.5q129 0 219 -100l-80 -89q-59 51 -121 52q-86 0 -138 -72t-52 -174.5t52 -174t136 -71.5q66 0 123 55l80 -92q-88 -98 -219 -98q-139 0 -235.5 109.5t-96.5 273.5z" />
<glyph unicode="&#xaa;" horiz-adv-x="856" d="M106 489v121h639v-121h-639zM106 954q0 121 84 175.5t213 54.5q61 0 121 -13v35q0 90 -33.5 127t-109.5 37q-82 0 -186 -35l-33 117q131 47 248 47q123 0 190.5 -58.5t67.5 -197.5v-360q0 -39 30 -39q6 0 31 4v-113q-29 -18 -82 -18q-109 0 -108 112q-12 -41 -58.5 -76.5 t-128.5 -35.5q-111 0 -178.5 65.5t-67.5 171.5zM233 963q0 -59 37 -96.5t102.5 -37.5t108.5 49.5t43 118.5v80q-53 12 -108 13q-182 0 -183 -127z" />
<glyph unicode="&#xab;" horiz-adv-x="1095" d="M66 508v49l360 479l106 -112l-243 -392l243 -393l-106 -110zM541 506v53l350 477l113 -112l-242 -392l239 -393l-110 -110z" />
<glyph unicode="&#xad;" horiz-adv-x="880" d="M121 614v148h639v-148h-639z" />
<glyph unicode="&#xae;" horiz-adv-x="1024" d="M123 975q0 197 107.5 328t281.5 131t282.5 -131.5t108.5 -327.5q0 -193 -109.5 -326t-281.5 -133t-280.5 132t-108.5 327zM201 975q0 -164 85 -271.5t226 -107.5t228 108.5t87 270.5q0 160 -87 270.5t-228 110.5t-226 -110.5t-85 -270.5zM365 743v476h176q57 0 93 -40 t36 -102q0 -104 -82 -131l98 -203h-78l-92 195h-82v-195h-69zM434 1001h105q27 0 45 21.5t18 56.5t-20.5 55.5t-46.5 20.5h-101v-154z" />
<glyph unicode="&#xaf;" horiz-adv-x="819" d="M143 1225v131h537v-131h-537z" />
<glyph unicode="&#xb0;" horiz-adv-x="573" d="M104 1262q0 90 54.5 147t128.5 57q76 0 128 -56t52 -146q0 -94 -52.5 -152.5t-128 -58.5t-129 58.5t-53.5 150.5zM186 1259.5q0 -49.5 31 -81t70 -31.5t68.5 31.5t29.5 81.5q0 51 -29.5 82.5t-68.5 31.5t-70 -32.5t-31 -82z" />
<glyph unicode="&#xb1;" horiz-adv-x="915" d="M121 659v138h268v286h141v-286h267v-138h-267v-286h-141v286h-268zM123 80v145h674v-145h-674z" />
<glyph unicode="&#xb4;" horiz-adv-x="579" d="M141 1192l125 358l148 -73l-138 -285h-135z" />
<glyph unicode="&#xb5;" d="M141 -348v1413h209v-621q0 -276 207 -276q209 0 209 276v621h207v-1065h-156l-33 123q-66 -143 -227 -143q-160 0 -207 122v-450h-209z" />
<glyph unicode="&#xb6;" horiz-adv-x="1071" d="M68 1001q0 205 108.5 319t251.5 114h477v-1610h-153v1448h-158v-1448h-158v739h-39q-158 2 -243.5 125t-85.5 313z" />
<glyph unicode="&#xb7;" horiz-adv-x="516" d="M111 618q0 63 43 111.5t102 48.5q61 0 105.5 -47t44.5 -112.5t-44.5 -113.5t-105.5 -48q-59 0 -102 48t-43 113z" />
<glyph unicode="&#xb8;" horiz-adv-x="557" d="M113 -395l18 80q57 -14 92 -15q82 0 82 65.5t-69 65.5l-46 -4l-34 41l43 139h100l-23 -104q14 2 23 2q57 0 100 -34t43 -107q0 -78 -55 -115t-141 -37q-66 0 -133 23z" />
<glyph unicode="&#xba;" horiz-adv-x="940" d="M113 1110q0 166 96 277.5t256 111.5t257 -111.5t97 -277.5t-97 -277.5t-257 -111.5t-256 111.5t-96 277.5zM156 489v121h622v-121h-622zM264 1110q0 -115 53.5 -187.5t147.5 -72.5q96 0 149.5 72.5t53.5 187.5t-53.5 187.5t-149.5 72.5q-94 0 -147.5 -72.5t-53.5 -187.5z " />
<glyph unicode="&#xbb;" horiz-adv-x="1099" d="M92 924l113 112l350 -477v-53l-350 -477l-111 110l240 393zM563 139l244 393l-244 392l107 112l360 -479v-49l-360 -479z" />
<glyph unicode="&#xbf;" horiz-adv-x="854" d="M76 -61q0 84 32.5 154.5t78.5 117.5t92.5 90t79 93t32.5 106v121h176v-107q0 -63 -20 -129q-18 -59 -66.5 -115.5t-93.5 -91.5t-80 -90t-35 -121q0 -92 59.5 -141t139.5 -49q121 0 238 84l77 -152q-151 -121 -333 -121q-156 0 -266.5 94.5t-110.5 256.5zM352 936 q0 51 36 89t85 38t84 -37t35 -90q0 -51 -35 -87t-84 -36t-85 36t-36 87z" />
<glyph unicode="&#xc0;" horiz-adv-x="1165" d="M31 0l415 1444h281l414 -1444h-232l-104 371h-451l-102 -371h-221zM381 1815l147 73l125 -358h-135zM401 559h359l-178 662h-2z" />
<glyph unicode="&#xc1;" horiz-adv-x="1165" d="M31 0l415 1444h281l414 -1444h-232l-104 371h-451l-102 -371h-221zM401 559h359l-178 662h-2zM537 1530l125 358l147 -73l-137 -285h-135z" />
<glyph unicode="&#xc2;" horiz-adv-x="1165" d="M31 0l415 1444h281l414 -1444h-232l-104 371h-451l-102 -371h-221zM311 1540l199 272h160l198 -272h-143l-135 186l-135 -186h-144zM401 559h359l-178 662h-2z" />
<glyph unicode="&#xc3;" horiz-adv-x="1165" d="M31 0l415 1444h281l414 -1444h-232l-104 371h-451l-102 -371h-221zM297 1612q80 156 190 155q49 0 119 -44t109 -44q49 0 96 70l55 -45q-76 -160 -188 -160q-53 0 -119.5 43t-105.5 43q-54 1 -99 -67zM401 559h359l-178 662h-2z" />
<glyph unicode="&#xc4;" horiz-adv-x="1167" d="M31 0l415 1444h281l414 -1444h-232l-104 371h-451l-102 -371h-221zM281 1649q0 45 30.5 76.5t73.5 31.5q47 0 77 -30.5t30 -77.5q0 -45 -30 -75t-77 -30q-45 0 -74.5 30t-29.5 75zM401 559h359l-178 662h-2zM680 1649q0 45 31.5 76.5t72.5 31.5q47 0 78 -30.5t31 -77.5 q0 -45 -31 -75t-78 -30q-45 0 -74.5 30t-29.5 75z" />
<glyph unicode="&#xc5;" horiz-adv-x="1165" d="M31 0l415 1444h281l414 -1444h-232l-104 371h-451l-102 -371h-221zM401 559h359l-178 662h-2zM401 1720q0 82 54.5 133.5t130.5 51.5t130 -51.5t54 -133.5t-54 -133t-130 -51t-130.5 51t-54.5 133zM487 1720q0 -49 28 -76.5t71 -27.5t70.5 27.5t27.5 76.5t-27.5 77 t-70.5 28t-71 -28t-28 -77z" />
<glyph unicode="&#xc6;" horiz-adv-x="1726" d="M2 0l580 1434h1046v-199h-647v-440h559v-191h-559v-405h664v-199h-881v371h-387l-144 -371h-231zM449 559h315v676h-66z" />
<glyph unicode="&#xc7;" horiz-adv-x="1169" d="M80 717q0 332 188 534.5t475 202.5q211 0 365 -113l-80 -167q-137 82 -278 81q-193 0 -318 -153.5t-125 -385t125 -385t316 -153.5q66 0 134 19.5t102 37t44 25.5l80 -172q-139 -100 -340 -108l-25 -107q14 2 23 2q57 0 100 -34t43 -107q0 -78 -55 -115t-141 -37 q-66 0 -133 23l18 80q57 -14 92 -15q82 0 82 65.5t-70 65.5l-45 -4l-34 41l43 146q-258 27 -422 225.5t-164 507.5z" />
<glyph unicode="&#xc8;" horiz-adv-x="1120" d="M156 0v1434h864v-199h-647v-440h559v-191h-559v-405h663v-199h-880zM412 1815l147 73l125 -358h-135z" />
<glyph unicode="&#xc9;" horiz-adv-x="1120" d="M156 0v1434h864v-199h-647v-440h559v-191h-559v-405h663v-199h-880zM492 1528l124 358l148 -74l-137 -284h-135z" />
<glyph unicode="&#xca;" horiz-adv-x="1120" d="M156 0v1434h864v-199h-647v-440h559v-191h-559v-405h663v-199h-880zM319 1530l199 272h160l199 -272h-144l-135 186l-135 -186h-144z" />
<glyph unicode="&#xcb;" horiz-adv-x="1120" d="M156 0v1434h864v-199h-647v-440h559v-191h-559v-405h663v-199h-880zM287 1649q0 45 30.5 76.5t73.5 31.5q47 0 77 -30.5t30 -77.5q0 -45 -30 -75t-77 -30q-45 0 -74.5 30t-29.5 75zM686 1649q0 45 32 76.5t73 31.5q47 0 77.5 -30.5t30.5 -77.5q0 -45 -30.5 -75t-77.5 -30 q-45 0 -75 30t-30 75z" />
<glyph unicode="&#xcc;" horiz-adv-x="552" d="M84 1815l147 73l125 -358h-135zM178 0v1434h219v-1434h-219z" />
<glyph unicode="&#xcd;" horiz-adv-x="550" d="M156 0v1434h219v-1434h-219zM203 1530l125 358l147 -73l-137 -285h-135z" />
<glyph unicode="&#xce;" horiz-adv-x="532" d="M-12 1530l198 272h160l199 -272h-144l-135 186l-135 -186h-143zM156 0v1434h219v-1434h-219z" />
<glyph unicode="&#xcf;" horiz-adv-x="536" d="M-37 1649q0 45 31 76.5t72 31.5q49 0 78.5 -30.5t29.5 -77.5q0 -45 -30.5 -75t-77.5 -30q-43 0 -73 30t-30 75zM160 0v1434h219v-1434h-219zM362 1649q0 45 32 76.5t71 31.5q47 0 78.5 -30.5t31.5 -77.5q0 -45 -31.5 -75t-78.5 -30q-43 0 -73 30t-30 75z" />
<glyph unicode="&#xd0;" horiz-adv-x="1253" d="M14 668v110h152v656h440q166 0 293 -88q133 -94 201.5 -265.5t68.5 -370t-70.5 -366.5t-199.5 -256q-127 -88 -293 -88h-440v668h-152zM383 199h182q121 0 209 61q174 121 174 457t-174 459q-84 59 -209 59h-182v-457h229v-110h-229v-469z" />
<glyph unicode="&#xd1;" horiz-adv-x="1296" d="M156 0v1434h229l547 -1061h4l-12 600v461h217v-1434h-230l-546 1073h-5l13 -504v-569h-217zM367 1612q80 156 190 155q49 0 118.5 -44t108.5 -44q49 0 97 70l55 -45q-76 -160 -188 -160q-53 0 -120 43t-106 43q-53 1 -98 -67z" />
<glyph unicode="&#xd2;" horiz-adv-x="1423" d="M82 719q0 324 172 529.5t458.5 205.5t458.5 -206t172 -529q0 -322 -167.5 -530.5t-462.5 -208.5t-463 208.5t-168 530.5zM307 717q0 -240 108.5 -389.5t297.5 -149.5q190 0 297.5 149.5t107.5 389.5q0 233 -110.5 385.5t-294.5 152.5q-182 0 -294 -152.5t-112 -385.5z M584 1815l147 73l125 -358h-135z" />
<glyph unicode="&#xd3;" horiz-adv-x="1423" d="M82 719q0 324 172 529.5t458.5 205.5t458.5 -206t172 -529q0 -322 -167.5 -530.5t-462.5 -208.5t-463 208.5t-168 530.5zM307 717q0 -240 108.5 -389.5t297.5 -149.5q190 0 297.5 149.5t107.5 389.5q0 233 -110.5 385.5t-294.5 152.5q-182 0 -294 -152.5t-112 -385.5z M592 1530l125 358l147 -73l-137 -285h-135z" />
<glyph unicode="&#xd4;" horiz-adv-x="1423" d="M82 719q0 324 172 529.5t458.5 205.5t458.5 -206t172 -529q0 -322 -167.5 -530.5t-462.5 -208.5t-463 208.5t-168 530.5zM307 717q0 -240 108.5 -389.5t297.5 -149.5q190 0 297.5 149.5t107.5 389.5q0 233 -110.5 385.5t-294.5 152.5q-182 0 -294 -152.5t-112 -385.5z M432 1530l199 272h160l198 -272h-143l-135 186l-136 -186h-143z" />
<glyph unicode="&#xd5;" horiz-adv-x="1423" d="M82 719q0 324 172 529.5t458.5 205.5t458.5 -206t172 -529q0 -322 -167.5 -530.5t-462.5 -208.5t-463 208.5t-168 530.5zM307 717q0 -240 108.5 -389.5t297.5 -149.5q190 0 297.5 149.5t107.5 389.5q0 233 -110.5 385.5t-294.5 152.5q-182 0 -294 -152.5t-112 -385.5z M442 1612q80 156 191 155q49 0 118.5 -44t108.5 -44q49 0 96 70l56 -45q-76 -160 -189 -160q-53 0 -119.5 43t-105.5 43q-53 1 -98 -67z" />
<glyph unicode="&#xd6;" horiz-adv-x="1423" d="M82 719q0 324 172 529.5t458.5 205.5t458.5 -206t172 -529q0 -322 -167.5 -530.5t-462.5 -208.5t-463 208.5t-168 530.5zM307 717q0 -240 108.5 -389.5t297.5 -149.5q190 0 297.5 149.5t107.5 389.5q0 233 -110.5 385.5t-294.5 152.5q-182 0 -294 -152.5t-112 -385.5z M410 1649q0 45 30.5 76.5t71.5 31.5q47 0 78 -30.5t31 -77.5q0 -45 -31 -75t-78 -30q-43 0 -72.5 30t-29.5 75zM809 1649q0 45 31.5 76.5t70.5 31.5q47 0 79 -30.5t32 -77.5q0 -45 -32 -75t-79 -30q-43 0 -72.5 30t-29.5 75z" />
<glyph unicode="&#xd7;" horiz-adv-x="798" d="M119 887l90 80l192 -222l193 222l88 -80l-201 -234l199 -229l-92 -78l-187 215l-188 -215l-90 78l199 229z" />
<glyph unicode="&#xd8;" horiz-adv-x="1423" d="M82 719q0 324 172 529.5t459 205.5q162 0 291 -70l63 113h178l-115 -205q213 -207 213 -573q0 -322 -167.5 -530.5t-462.5 -208.5q-154 0 -277 59l-61 -111h-176l108 199q-225 203 -225 592zM307 717q0 -244 111 -393l485 876q-88 55 -190 55q-182 0 -294 -152.5 t-112 -385.5zM537 219q78 -41 176 -41q190 0 297.5 149.5t107.5 389.5q0 219 -100 370z" />
<glyph unicode="&#xd9;" horiz-adv-x="1257" d="M143 485v949h217v-957q0 -135 74 -217t197 -82t195.5 82t72.5 217v957h217v-949q0 -225 -130 -365t-355 -140q-233 0 -360.5 143t-127.5 362zM489 1815l148 73l125 -358h-135z" />
<glyph unicode="&#xda;" horiz-adv-x="1257" d="M143 485v949h217v-957q0 -135 74 -217t197 -82t195.5 82t72.5 217v957h217v-949q0 -225 -130 -365t-355 -140q-233 0 -360.5 143t-127.5 362zM541 1530l125 358l147 -73l-137 -285h-135z" />
<glyph unicode="&#xdb;" horiz-adv-x="1257" d="M143 485v949h217v-957q0 -135 74 -217t197 -82t195.5 82t72.5 217v957h217v-949q0 -225 -130 -365t-355 -140q-233 0 -360.5 143t-127.5 362zM350 1530l199 272h160l198 -272h-143l-135 186l-135 -186h-144z" />
<glyph unicode="&#xdc;" horiz-adv-x="1257" d="M143 485v949h217v-957q0 -135 74 -217t197 -82t195.5 82t72.5 217v957h217v-949q0 -225 -130 -365t-355 -140q-233 0 -360.5 143t-127.5 362zM328 1649q0 45 30.5 76.5t71.5 31.5q47 0 77 -30.5t30 -77.5t-30 -76t-77 -29q-43 0 -72.5 30t-29.5 75zM727 1649 q0 45 32 76.5t70 31.5q47 0 79 -30.5t32 -77.5q0 -45 -31.5 -75t-79.5 -30q-43 0 -72.5 30t-29.5 75z" />
<glyph unicode="&#xdd;" horiz-adv-x="1089" d="M6 1434h232l309 -643h2l309 643h219l-430 -854v-580h-211v580zM461 1530l125 358l147 -73l-137 -285h-135z" />
<glyph unicode="&#xde;" horiz-adv-x="1134" d="M156 0v1434h217v-258h334q174 0 276 -127t102 -320q0 -195 -101 -324t-273 -129h-338v-276h-217zM373 479h282q104 0 160.5 67.5t56.5 178.5t-54 175.5t-159 64.5h-286v-486z" />
<glyph unicode="&#xdf;" horiz-adv-x="1083" d="M127 0v981q0 207 96 340t303 133q182 0 274.5 -103.5t92.5 -258.5q0 -94 -46 -203t-46 -156t24.5 -86t59.5 -71.5t69.5 -69.5t59 -96.5t24.5 -133.5q0 -160 -103.5 -241.5t-256.5 -81.5q-121 0 -225 43l36 164q84 -31 158 -31q76 0 128 43t52 127q0 66 -36.5 118 t-79.5 82.5t-80 85t-37 122.5q0 66 50 172t50 176q0 84 -38 146.5t-126 62.5t-140 -69t-52 -206v-989h-211z" />
<glyph unicode="&#xe0;" horiz-adv-x="1011" d="M51 307q0 174 111.5 261t290.5 87q82 0 202 -14v64q0 119 -48 158.5t-144 39.5q-144 0 -283 -45l-39 166q193 61 355 61q371 0 370 -348v-520q0 -49 49 -49q14 0 43 4v-154q-53 -27 -129 -26q-63 0 -109 32.5t-46 110.5q-25 -57 -92.5 -106t-194.5 -49q-150 0 -243 86 t-93 241zM260 328q0 -84 48 -128t124 -44q100 0 161.5 66t61.5 181v82q-80 14 -161 15q-233 0 -234 -172zM354 1491l148 74l125 -359h-135z" />
<glyph unicode="&#xe1;" horiz-adv-x="1011" d="M51 307q0 174 111.5 261t290.5 87q82 0 202 -14v64q0 119 -48 158.5t-144 39.5q-144 0 -283 -45l-39 166q193 61 355 61q371 0 370 -348v-520q0 -49 49 -49q14 0 43 4v-154q-53 -27 -129 -26q-63 0 -109 32.5t-46 110.5q-25 -57 -92.5 -106t-194.5 -49q-150 0 -243 86 t-93 241zM260 328q0 -84 48 -128t124 -44q100 0 161.5 66t61.5 181v82q-80 14 -161 15q-233 0 -234 -172zM414 1206l125 359l147 -74l-137 -285h-135z" />
<glyph unicode="&#xe2;" horiz-adv-x="1011" d="M51 307q0 174 111.5 261t290.5 87q82 0 202 -14v64q0 119 -48 158.5t-144 39.5q-144 0 -283 -45l-39 166q193 61 355 61q371 0 370 -348v-520q0 -49 49 -49q14 0 43 4v-154q-53 -27 -129 -26q-63 0 -109 32.5t-46 110.5q-25 -57 -92.5 -106t-194.5 -49q-150 0 -243 86 t-93 241zM229 1206l199 273h160l198 -273h-143l-135 187l-135 -187h-144zM260 328q0 -84 48 -128t124 -44q100 0 161.5 66t61.5 181v82q-80 14 -161 15q-233 0 -234 -172z" />
<glyph unicode="&#xe3;" horiz-adv-x="1011" d="M51 307q0 174 111.5 261t290.5 87q82 0 202 -14v64q0 119 -48 158.5t-144 39.5q-144 0 -283 -45l-39 166q193 61 355 61q371 0 370 -348v-520q0 -49 49 -49q14 0 43 4v-154q-53 -27 -129 -26q-63 0 -109 32.5t-46 110.5q-25 -57 -92.5 -106t-194.5 -49q-150 0 -243 86 t-93 241zM225 1288q80 156 191 156q49 0 118.5 -44t108.5 -44q49 0 96 69l56 -45q-76 -160 -189 -159q-53 0 -119.5 43t-105.5 43q-53 0 -98 -68zM260 328q0 -84 48 -128t124 -44q100 0 161.5 66t61.5 181v82q-80 14 -161 15q-233 0 -234 -172z" />
<glyph unicode="&#xe4;" horiz-adv-x="1011" d="M51 307q0 174 111.5 261t290.5 87q82 0 202 -14v64q0 119 -48 158.5t-144 39.5q-144 0 -283 -45l-39 166q193 61 355 61q371 0 370 -348v-520q0 -49 49 -49q14 0 43 4v-154q-53 -27 -129 -26q-63 0 -109 32.5t-46 110.5q-25 -57 -92.5 -106t-194.5 -49q-150 0 -243 86 t-93 241zM209 1319q0 45 30.5 75.5t73.5 30.5q47 0 77 -29.5t30 -76.5t-30 -77t-77 -30q-45 0 -74.5 30t-29.5 77zM260 328q0 -84 48 -128t124 -44q100 0 161.5 66t61.5 181v82q-80 14 -161 15q-233 0 -234 -172zM608 1319q0 45 32 75.5t73 30.5q47 0 77.5 -29.5t30.5 -76.5 t-30.5 -77t-77.5 -30q-45 0 -75 30t-30 77z" />
<glyph unicode="&#xe5;" horiz-adv-x="1011" d="M51 307q0 174 111.5 261t290.5 87q82 0 202 -14v64q0 119 -48 158.5t-144 39.5q-144 0 -283 -45l-39 166q193 61 355 61q371 0 370 -348v-520q0 -49 49 -49q14 0 43 4v-154q-53 -27 -129 -26q-63 0 -109 32.5t-46 110.5q-25 -57 -92.5 -106t-194.5 -49q-150 0 -243 86 t-93 241zM260 328q0 -84 48 -128t124 -44q100 0 161.5 66t61.5 181v82q-80 14 -161 15q-233 0 -234 -172zM360 1391q0 82 54.5 133t130.5 51t130 -51t54 -133t-54 -133.5t-130 -51.5t-130.5 51.5t-54.5 133.5zM446 1390.5q0 -49.5 28 -77t71 -27.5t70.5 27.5t27.5 77 t-27.5 77t-70.5 27.5t-71 -27.5t-28 -77z" />
<glyph unicode="&#xe6;" horiz-adv-x="1570" d="M51 307q0 174 111.5 261t288.5 87q121 0 229 -14q4 31 16 70v2q0 115 -55 152.5t-178 37.5q-144 0 -283 -45l-39 166q193 61 353 61q254 0 350 -139q133 139 317 139q193 0 306.5 -143t113.5 -358q0 -78 -8 -125h-670q8 -137 96 -214t234 -77q113 0 248 65l55 -167 q-156 -86 -348 -86q-279 0 -414 210q-125 -211 -381 -210q-156 0 -249 85t-93 242zM260 322q0 -82 48 -124t126 -42q195 0 273 170q-29 76 -29 161q-86 12 -186 13q-231 0 -232 -178zM901 610h481q4 113 -53 203t-164 90q-111 0 -183.5 -79t-80.5 -214z" />
<glyph unicode="&#xe7;" horiz-adv-x="901" d="M70 535q0 236 139 393t352 157q160 0 281 -77l-66 -158q-80 47 -174 47q-152 0 -233.5 -106.5t-81.5 -258.5q0 -150 83 -257t232 -107q102 0 174 47l66 -158q-129 -77 -281 -77h-8l-23 -107q14 2 23 2q57 0 100 -34t43 -107q0 -78 -55 -115t-141 -37q-66 0 -133 23l18 80 q57 -14 92 -15q82 0 82 65.5t-70 65.5l-45 -4l-34 41l45 154q-174 37 -279.5 185.5t-105.5 357.5z" />
<glyph unicode="&#xe8;" horiz-adv-x="1005" d="M70 535q0 238 124.5 394t325.5 156q193 0 306.5 -143t113.5 -358q0 -78 -8 -125h-641q8 -135 90 -213t211 -78q117 0 248 63l55 -165q-156 -86 -340 -86q-217 0 -351 155.5t-134 399.5zM289 610h452q4 113 -53 204t-164 91q-96 0 -161.5 -81t-73.5 -214zM381 1491l147 74 l125 -359h-135z" />
<glyph unicode="&#xe9;" horiz-adv-x="1005" d="M70 535q0 238 124.5 394t325.5 156q193 0 306.5 -143t113.5 -358q0 -78 -8 -125h-641q8 -135 90 -213t211 -78q117 0 248 63l55 -165q-156 -86 -340 -86q-217 0 -351 155.5t-134 399.5zM289 610h452q4 113 -53 204t-164 91q-96 0 -161.5 -81t-73.5 -214zM406 1206 l124 359l148 -74l-137 -285h-135z" />
<glyph unicode="&#xea;" horiz-adv-x="1005" d="M70 535q0 238 124.5 394t325.5 156q193 0 306.5 -143t113.5 -358q0 -78 -8 -125h-641q8 -135 90 -213t211 -78q117 0 248 63l55 -165q-156 -86 -340 -86q-217 0 -351 155.5t-134 399.5zM254 1206l199 273h159l199 -273h-143l-136 187l-135 -187h-143zM289 610h452 q4 113 -53 204t-164 91q-96 0 -161.5 -81t-73.5 -214z" />
<glyph unicode="&#xeb;" horiz-adv-x="1005" d="M70 535q0 238 124.5 394t325.5 156q193 0 306.5 -143t113.5 -358q0 -78 -8 -125h-641q8 -135 90 -213t211 -78q117 0 248 63l55 -165q-156 -86 -340 -86q-217 0 -351 155.5t-134 399.5zM231 1319q0 45 31 75.5t72 30.5q49 0 78.5 -29.5t29.5 -76.5t-30.5 -77t-77.5 -30 q-43 0 -73 30t-30 77zM289 610h452q4 113 -53 204t-164 91q-96 0 -161.5 -81t-73.5 -214zM631 1319q0 45 31.5 75.5t72.5 30.5q47 0 78 -29.5t31 -76.5t-31 -77t-78 -30q-45 0 -74.5 30t-29.5 77z" />
<glyph unicode="&#xec;" horiz-adv-x="491" d="M43 1491l147 74l125 -359h-135zM63 915v150h304v-1065h-211v893z" />
<glyph unicode="&#xed;" horiz-adv-x="493" d="M66 915v150h303v-1065h-211v893zM176 1206l125 359l148 -74l-138 -285h-135z" />
<glyph unicode="&#xee;" horiz-adv-x="491" d="M-49 1206l199 273h159l199 -273h-143l-136 187l-135 -187h-143zM63 915v150h304v-1065h-211v893z" />
<glyph unicode="&#xef;" horiz-adv-x="489" d="M-86 1319q0 45 29.5 75.5t72.5 30.5q47 0 77 -29.5t30 -76.5t-30 -77t-77 -30q-45 0 -73.5 30t-28.5 77zM61 915v150h304v-1065h-211v893zM313 1319q0 45 31 75.5t72 30.5q47 0 77.5 -29.5t30.5 -76.5t-30.5 -77t-77.5 -30q-45 0 -74 30t-29 77z" />
<glyph unicode="&#xf0;" horiz-adv-x="993" d="M68 485q0 231 113.5 363.5t289.5 132.5q98 0 171 -54.5t103 -121.5q-23 150 -75 270.5t-113 186.5l-147 -125l-64 73l141 123q-66 72 -204 144l57 106q150 -63 254 -160l151 133l66 -75l-145 -127q258 -272 258 -768q0 -279 -125 -440.5t-322 -161.5q-190 0 -299.5 142 t-109.5 359zM266 483q0 -125 56.5 -220t162.5 -95q100 0 163 95t63 231q0 131 -64 219t-158 88q-111 0 -167 -91.5t-56 -226.5z" />
<glyph unicode="&#xf1;" horiz-adv-x="1062" d="M127 0v1065h168l37 -170q16 55 91 122.5t200 67.5q141 0 232 -107.5t91 -332.5v-645h-211v655q0 117 -49 179.5t-135 62.5q-100 0 -156.5 -81t-56.5 -193v-623h-211zM252 1288q80 156 190 156q49 0 119 -44t109 -44q49 0 96 69l55 -45q-76 -160 -188 -159q-53 0 -120 43 t-105 43q-54 0 -99 -68z" />
<glyph unicode="&#xf2;" d="M68 532.5q0 243.5 131 398t344 154.5t344 -154.5t131 -398t-131 -398t-344 -154.5t-344 154.5t-131 398zM285 532.5q0 -159.5 67.5 -262t190.5 -102.5t190.5 102.5t67.5 262t-66.5 262t-191.5 102.5t-191.5 -102.5t-66.5 -262zM397 1491l148 74l125 -359h-135z" />
<glyph unicode="&#xf3;" d="M68 532.5q0 243.5 131 398t344 154.5t344 -154.5t131 -398t-131 -398t-344 -154.5t-344 154.5t-131 398zM285 532.5q0 -159.5 67.5 -262t190.5 -102.5t190.5 102.5t67.5 262t-66.5 262t-191.5 102.5t-191.5 -102.5t-66.5 -262zM410 1206l125 359l147 -74l-137 -285h-135z " />
<glyph unicode="&#xf4;" d="M68 532.5q0 243.5 131 398t344 154.5t344 -154.5t131 -398t-131 -398t-344 -154.5t-344 154.5t-131 398zM266 1204l199 273h160l198 -273h-143l-135 187l-135 -187h-144zM285 532.5q0 -159.5 67.5 -262t190.5 -102.5t190.5 102.5t67.5 262t-66.5 262t-191.5 102.5 t-191.5 -102.5t-66.5 -262z" />
<glyph unicode="&#xf5;" d="M68 532.5q0 243.5 131 398t344 154.5t344 -154.5t131 -398t-131 -398t-344 -154.5t-344 154.5t-131 398zM258 1288q80 156 191 156q49 0 118.5 -44t108.5 -44q49 0 96 69l55 -45q-76 -160 -188 -159q-53 0 -119.5 43t-105.5 43q-54 0 -99 -68zM285 532.5 q0 -159.5 67.5 -262t190.5 -102.5t190.5 102.5t67.5 262t-66.5 262t-191.5 102.5t-191.5 -102.5t-66.5 -262z" />
<glyph unicode="&#xf6;" d="M68 532.5q0 243.5 131 398t344 154.5t344 -154.5t131 -398t-131 -398t-344 -154.5t-344 154.5t-131 398zM240 1319q0 45 30.5 75.5t71.5 30.5q49 0 79 -29.5t30 -76.5t-31 -77t-78 -30q-43 0 -72.5 30t-29.5 77zM285 532.5q0 -159.5 67.5 -262t190.5 -102.5t190.5 102.5 t67.5 262t-66.5 262t-191.5 102.5t-191.5 -102.5t-66.5 -262zM639 1319q0 45 31.5 75.5t70.5 30.5q47 0 79 -29.5t32 -76.5t-32 -77t-79 -30q-43 0 -72.5 30t-29.5 77z" />
<glyph unicode="&#xf7;" horiz-adv-x="1009" d="M111 594v143h790v-143h-790zM401 321.5q0 47.5 31 80t74 32.5t74.5 -33.5t31.5 -79t-31.5 -79t-74.5 -33.5q-45 0 -75 32.5t-30 80zM401 1014q0 49 31 80.5t74 31.5t75.5 -32.5t32.5 -79.5q0 -49 -32.5 -82t-75.5 -33q-45 0 -75 34t-30 81z" />
<glyph unicode="&#xf8;" d="M68 532q0 244 131 398.5t344 154.5q115 0 205 -47l59 107h149l-100 -180q162 -156 162 -433q0 -244 -131 -398t-344 -154q-115 0 -209 47l-60 -107h-147l100 182q-160 154 -159 430zM285 532q0 -141 51 -235l317 571q-47 29 -110 29q-125 0 -191.5 -102.5t-66.5 -262.5z M428 197q51 -29 115 -29q123 0 190.5 102t67.5 262q0 141 -53 238z" />
<glyph unicode="&#xf9;" horiz-adv-x="1064" d="M119 387v678h211v-649q0 -248 184 -248q109 0 160 75.5t51 190.5v631h213v-1065h-168l-35 156q-82 -176 -299 -176q-133 0 -225 94t-92 313zM362 1491l148 74l125 -359h-135z" />
<glyph unicode="&#xfa;" horiz-adv-x="1064" d="M119 387v678h211v-649q0 -248 184 -248q109 0 160 75.5t51 190.5v631h213v-1065h-168l-35 156q-82 -176 -299 -176q-133 0 -225 94t-92 313zM436 1206l125 359l148 -74l-138 -285h-135z" />
<glyph unicode="&#xfb;" horiz-adv-x="1064" d="M119 387v678h211v-649q0 -248 184 -248q109 0 160 75.5t51 190.5v631h213v-1065h-168l-35 156q-82 -176 -299 -176q-133 0 -225 94t-92 313zM268 1206l199 273h160l198 -273h-143l-135 187l-135 -187h-144z" />
<glyph unicode="&#xfc;" horiz-adv-x="1064" d="M119 387v678h211v-649q0 -248 184 -248q109 0 160 75.5t51 190.5v631h213v-1065h-168l-35 156q-82 -176 -299 -176q-133 0 -225 94t-92 313zM223 1319q0 45 30 75.5t73 30.5q47 0 77.5 -29.5t30.5 -76.5t-30.5 -77t-77.5 -30q-43 0 -73 30t-30 77zM623 1319 q0 45 31.5 75.5t70.5 30.5q47 0 79 -29.5t32 -76.5t-32 -77t-79 -30q-43 0 -72.5 30t-29.5 77z" />
<glyph unicode="&#xfd;" horiz-adv-x="997" d="M47 1065h221l238 -803l223 803h221l-436 -1413h-225l100 328zM410 1206l125 359l147 -74l-137 -285h-135z" />
<glyph unicode="&#xfe;" horiz-adv-x="1120" d="M127 -348v1782h205v-523q90 174 293 174q188 0 306 -164.5t118 -398.5q0 -227 -112 -384.5t-308 -157.5q-111 0 -189 51t-108 135v-514h-205zM336 526.5q0 -157.5 68.5 -258t179 -100.5t179 102.5t68.5 257.5q0 158 -68.5 263.5t-179 105.5t-179 -106.5t-68.5 -264z" />
<glyph unicode="&#xff;" horiz-adv-x="997" d="M47 1065h221l238 -803l223 803h221l-436 -1413h-225l100 328zM190 1319q0 45 31 75.5t72 30.5q49 0 78.5 -29.5t29.5 -76.5t-30.5 -77t-77.5 -30q-43 0 -73 30t-30 77zM590 1319q0 45 31.5 75.5t70.5 30.5q47 0 79 -29.5t32 -76.5t-32 -77t-79 -30q-43 0 -72.5 30 t-29.5 77z" />
<glyph unicode="&#x152;" horiz-adv-x="2093" d="M84 719q0 324 173 530.5t460 204.5q256 0 407 -188v168h869v-199h-647v-440h559v-191h-559v-405h663v-199h-885v168q-154 -186 -407 -186q-295 -2 -464 206.5t-169 530.5zM309 717q0 -240 108.5 -389.5t297.5 -149.5q190 0 297.5 149.5t107.5 389.5q0 233 -110.5 385.5 t-294.5 152.5q-182 0 -294 -152.5t-112 -385.5z" />
<glyph unicode="&#x153;" horiz-adv-x="1730" d="M66 532.5q0 243.5 131 398t344 154.5q160 0 275.5 -88t164.5 -241q49 150 159.5 239.5t258.5 89.5q193 0 306.5 -143t113.5 -358q0 -78 -9 -125h-641q8 -135 90 -213t211 -78q117 0 248 63l56 -165q-156 -86 -340 -86q-160 0 -280 89t-173 240q-49 -152 -166 -240.5 t-274 -88.5q-213 0 -344 154.5t-131 398zM283 532.5q0 -159.5 67.5 -262t190.5 -102.5t190.5 102.5t67.5 262t-66.5 262t-191.5 102.5t-191.5 -102.5t-66.5 -262zM1167 610h453q4 113 -53.5 200t-163.5 87q-96 0 -162 -77t-74 -210z" />
<glyph unicode="&#x178;" horiz-adv-x="1089" d="M6 1434h232l309 -643h2l309 643h219l-430 -854v-580h-211v580zM238 1649q0 45 30.5 76.5t71.5 31.5q47 0 76.5 -30.5t29.5 -77.5t-29.5 -76t-76.5 -29q-45 0 -73.5 30t-28.5 75zM637 1649q0 45 30.5 76.5t71.5 31.5q47 0 78 -30.5t31 -77.5q0 -45 -31 -75t-78 -30 q-43 0 -72.5 30t-29.5 75z" />
<glyph unicode="&#x2c6;" horiz-adv-x="888" d="M174 1262l199 272h159l199 -272h-143l-135 186l-136 -186h-143z" />
<glyph unicode="&#x2dc;" horiz-adv-x="854" d="M143 1284q80 156 191 156q49 0 118.5 -44t108.5 -44q49 0 96 69l56 -45q-76 -160 -189 -159q-53 0 -119.5 43t-105.5 43q-53 0 -98 -68z" />
<glyph unicode="&#x2000;" horiz-adv-x="952" />
<glyph unicode="&#x2001;" horiz-adv-x="1905" />
<glyph unicode="&#x2002;" horiz-adv-x="952" />
<glyph unicode="&#x2003;" horiz-adv-x="1905" />
<glyph unicode="&#x2004;" horiz-adv-x="635" />
<glyph unicode="&#x2005;" horiz-adv-x="476" />
<glyph unicode="&#x2006;" horiz-adv-x="317" />
<glyph unicode="&#x2007;" horiz-adv-x="317" />
<glyph unicode="&#x2008;" horiz-adv-x="238" />
<glyph unicode="&#x2009;" horiz-adv-x="381" />
<glyph unicode="&#x200a;" horiz-adv-x="105" />
<glyph unicode="&#x2010;" horiz-adv-x="880" d="M121 614v148h639v-148h-639z" />
<glyph unicode="&#x2011;" horiz-adv-x="880" d="M121 614v148h639v-148h-639z" />
<glyph unicode="&#x2012;" horiz-adv-x="880" d="M121 614v148h639v-148h-639z" />
<glyph unicode="&#x2013;" horiz-adv-x="1245" d="M121 614v148h1003v-148h-1003z" />
<glyph unicode="&#x2014;" horiz-adv-x="1564" d="M121 614v148h1323v-148h-1323z" />
<glyph unicode="&#x2018;" horiz-adv-x="468" d="M106 1141q0 184 193 291l41 -68q-119 -98 -111 -209q8 18 39 19q39 0 63.5 -27t24.5 -74q0 -49 -29.5 -82t-76.5 -33q-66 0 -105 54.5t-39 128.5z" />
<glyph unicode="&#x2019;" horiz-adv-x="462" d="M115 1319q0 49 29.5 82t74.5 33q66 0 104.5 -54.5t38.5 -128.5q0 -184 -192 -290l-41 67q121 94 113 209q-8 -18 -39 -18q-39 0 -63.5 26.5t-24.5 73.5z" />
<glyph unicode="&#x201a;" horiz-adv-x="471" d="M115 102.5q0 47.5 29.5 81t76.5 33.5q63 0 102 -55.5t39 -128.5q0 -184 -190 -291l-43 70q47 35 82 90t31 118q0 -2 -5.5 -6t-14.5 -9t-19 -5q-39 0 -63.5 27.5t-24.5 75z" />
<glyph unicode="&#x201c;" horiz-adv-x="827" d="M104 1141q0 186 193 291l41 -68q-117 -90 -113 -209q12 18 39 19q39 0 63.5 -28t24.5 -73q0 -49 -29.5 -82t-74.5 -33q-66 0 -105 54.5t-39 128.5zM465 1141q0 184 192 291l41 -68q-119 -88 -110 -209q6 18 37 19q41 0 65.5 -29t24.5 -72q0 -49 -31 -82t-76 -33 q-66 0 -104.5 54.5t-38.5 128.5z" />
<glyph unicode="&#x201d;" horiz-adv-x="825" d="M115 1317q0 49 29.5 82t74.5 33q66 0 104.5 -54.5t38.5 -128.5q0 -184 -192 -291l-41 68q47 33 81 88t32 121q-12 -18 -39 -18q-41 0 -64.5 28.5t-23.5 71.5zM475 1317q0 49 31 82t76 33q66 0 104.5 -54.5t38.5 -128.5q0 -184 -193 -291l-40 68q115 92 110 209 q-6 -18 -39 -18q-39 0 -63.5 27.5t-24.5 72.5z" />
<glyph unicode="&#x201e;" horiz-adv-x="831" d="M115 102q0 49 30.5 82t75.5 33q66 0 105 -55.5t39 -128.5q0 -184 -193 -291l-43 70q47 35 82 89t31 119q-4 -20 -37 -20q-41 0 -65.5 28.5t-24.5 73.5zM477 102q0 49 30 82t75 33q66 0 104.5 -55.5t38.5 -128.5q0 -184 -193 -291l-40 70q119 84 112 208q-10 -20 -39 -20 q-39 0 -63.5 27.5t-24.5 74.5z" />
<glyph unicode="&#x2022;" horiz-adv-x="720" d="M152 715q0 92 62 156.5t148.5 64.5t146.5 -65.5t60 -159.5q0 -92 -61.5 -157t-145.5 -65q-86 0 -148 66t-62 160z" />
<glyph unicode="&#x2026;" horiz-adv-x="1347" d="M113 90q0 47 31.5 80t76.5 33t76 -33t31 -80t-31 -78.5t-76 -31.5t-76.5 32.5t-31.5 77.5zM508 90q0 47 30.5 80t75.5 33t77 -33t32 -80q0 -45 -32 -77.5t-77 -32.5t-75.5 31.5t-30.5 78.5zM903 90q0 47 32 80t77 33t75.5 -33t30.5 -80t-30.5 -78.5t-75.5 -31.5t-77 32.5 t-32 77.5z" />
<glyph unicode="&#x202f;" horiz-adv-x="381" />
<glyph unicode="&#x2039;" horiz-adv-x="630" d="M72 508v49l360 479l107 -112l-244 -392l244 -393l-107 -110z" />
<glyph unicode="&#x203a;" horiz-adv-x="630" d="M92 139l244 393l-244 392l107 112l360 -479v-49l-360 -479z" />
<glyph unicode="&#x205f;" horiz-adv-x="476" />
<glyph unicode="&#x20ac;" horiz-adv-x="1380" d="M70 791l39 112h141q47 256 229.5 403.5t435.5 147.5q223 -6 383 -108l-61 -172q-133 84 -326 83q-147 0 -266 -92t-162 -262h598l-39 -112h-579q-4 -25 -4 -74q0 -45 6 -84h522l-39 -113h-463q43 -168 161 -256t265 -88q190 0 338 80v-203q-154 -74 -334 -73 q-250 0 -432 143t-231 397h-174l39 113h116q-2 27 -2 84q0 49 2 74h-163z" />
<glyph unicode="&#x2122;" horiz-adv-x="1400" d="M119 1311v123h487v-123h-180v-516h-127v516h-180zM690 795v639h119l166 -418l166 418h119v-639h-115v381l-127 -299h-86l-127 299v-381h-115z" />
<glyph unicode="&#x25fc;" horiz-adv-x="1064" d="M0 0v1065h1065v-1065h-1065z" />
</font>
</defs>
</svg>
