<?xml version="1.0" standalone="no"?>
<!DOCTYPE svg PUBLIC "-//W3C//DTD SVG 1.1//EN" "http://www.w3.org/Graphics/SVG/1.1/DTD/svg11.dtd" >
<svg xmlns="http://www.w3.org/2000/svg" xmlns:xlink="http://www.w3.org/1999/xlink" version="1.1">
<metadata></metadata>
<defs>
<font id="centralesanscndbouploadedfile" horiz-adv-x="1118" >
<font-face units-per-em="2048" ascent="1657" descent="-391" />
<missing-glyph horiz-adv-x="460" />
<glyph unicode="&#xfb01;" horiz-adv-x="1067" d="M27 856v180l127 29v84q8 180 121.5 275.5t281.5 95.5q180 0 305 -86l-90 -174q-80 47 -168 47q-78 0 -129 -43t-51 -134v-65h530v-1065h-270v856h-260v-856h-270v856h-127z" />
<glyph unicode="&#xfb02;" horiz-adv-x="1114" d="M27 856v180l127 29v59q0 178 111.5 287t291.5 109t290.5 -108.5t110.5 -287.5v-852q0 -70 68 -69q25 0 49 6v-207q-66 -23 -149 -22q-111 0 -174.5 61t-63.5 215v881q0 170 -131 170q-133 0 -133 -170v-72h145v-209h-145v-856h-270v856h-127z" />
<glyph unicode="&#xfb03;" horiz-adv-x="1589" d="M27 856v180l127 29v96q0 180 65.5 269.5t226.5 89.5q72 0 146 -17l-27 -203q-31 6 -57 7q-45 0 -64.5 -27t-19.5 -92v-123h254v96q0 182 117.5 280.5t287.5 98.5q166 0 303 -86l-92 -180q-86 49 -178 49q-72 0 -120 -42t-48 -124v-92h531v-1065h-271v856h-260v-856h-270 v856h-254v-856h-270v856h-127z" />
<glyph unicode="&#xfb04;" horiz-adv-x="1640" d="M29 856v180l127 29v96q0 186 66.5 272.5t228.5 86.5q70 0 143 -17l-27 -203q-31 6 -57 7q-45 0 -64.5 -27t-19.5 -92v-123h254v80q0 178 111.5 286.5t292 108.5t291 -108.5t110.5 -286.5v-873q0 -70 67 -69q25 0 50 6v-207q-66 -23 -150 -22q-111 0 -174.5 61t-63.5 215 v897q0 170 -131 170q-133 0 -133 -170v-88h146v-209h-146v-856h-270v856h-254v-856h-270v856h-127z" />
<glyph horiz-adv-x="0" />
<glyph horiz-adv-x="0" />
<glyph horiz-adv-x="682" />
<glyph unicode="&#xd;" horiz-adv-x="681" />
<glyph unicode=" "  horiz-adv-x="460" />
<glyph unicode="&#x09;" horiz-adv-x="460" />
<glyph unicode="&#xa0;" horiz-adv-x="460" />
<glyph unicode="!" horiz-adv-x="552" d="M111 1434h329l-53 -981h-221zM127 125q0 66 42 108.5t105.5 42.5t104.5 -43t41 -108.5t-41 -107.5t-104.5 -42t-105.5 43t-42 107z" />
<glyph unicode="&#x22;" horiz-adv-x="870" d="M119 1434h291l-107 -600h-170zM506 1434h291l-111 -600h-170z" />
<glyph unicode="#" horiz-adv-x="1388" d="M70 309l34 234h195l51 334h-196l34 231h197l49 326h236l-49 -326h268l49 326h231l-49 -326h197l-35 -231h-197l-49 -334h197l-35 -234h-199l-45 -309h-231l47 309h-268l-47 -309h-236l45 309h-194zM537 543h266l51 334h-268z" />
<glyph unicode="$" horiz-adv-x="1036" d="M82 1044q0 180 92 285t262 127v193h176v-195q156 -16 316 -100l-68 -211q-186 70 -313 69q-84 0 -136.5 -49t-52.5 -119q0 -57 34 -98t73 -61.5t115 -50.5l7 -3.5t6 -2.5t7 -3q63 -27 103 -46t95.5 -57t86 -80t54.5 -108.5t24 -146.5q0 -342 -351 -412v-192h-176v192 q-176 16 -344 99l70 219q178 -74 332 -74q86 0 140 45t54 133q0 51 -30.5 90t-65.5 57.5t-103 47.5q-178 74 -239 115q-168 117 -168 337z" />
<glyph unicode="%" horiz-adv-x="1474" d="M31 1108q0 156 85 253t218 97q129 0 212 -96t83 -247.5t-85 -249t-220 -97.5q-129 0 -211 96.5t-82 243.5zM254 0l698 1434h267l-693 -1434h-272zM266 1112q0 -143 63.5 -143t63.5 143q0 141 -63.5 141t-63.5 -141zM848 317.5q0 151.5 86 251t219 99.5q127 0 210 -97.5 t83 -248.5q0 -150 -85 -248.5t-214 -98.5q-133 0 -216 95.5t-83 247zM1083 322q1 -144 64 -144q27 0 45 38t18 106q0 141 -63.5 141t-63.5 -141z" />
<glyph unicode="&#x26;" horiz-adv-x="1189" d="M53 416q0 137 62.5 233t181.5 187q-70 104 -98.5 168.5t-28.5 140.5q0 133 88 223t238 90q145 0 236 -79t91 -224q0 -203 -223 -367l223 -313q12 16 27.5 81t15.5 134h215q0 -260 -110 -418l196 -272h-278l-72 104q-121 -125 -325 -124q-195 0 -317 116.5t-122 319.5z M301 436q0 -96 58.5 -154.5t142.5 -58.5q100 0 172 80l-252 350q-121 -76 -121 -217zM391 1133q0 -14 3 -28.5t5 -25t10.5 -26t11.5 -22.5t14 -24.5t13.5 -20.5t16.5 -23l14 -19q125 90 125 193q0 53 -28.5 84.5t-77.5 31.5t-78 -33.5t-29 -86.5z" />
<glyph unicode="'" horiz-adv-x="487" d="M119 1434h293l-107 -596h-170z" />
<glyph unicode="(" horiz-adv-x="671" d="M70 602q0 156 44 301.5t114.5 252t138 180t135.5 122.5l123 -166q-57 -59 -93 -104t-84.5 -129t-72 -200t-23.5 -259q0 -147 23.5 -267t71 -206t84.5 -135.5t94 -108.5l-123 -157q-70 53 -135.5 124.5t-137 180t-115.5 258t-44 313.5z" />
<glyph unicode=")" horiz-adv-x="671" d="M47 1292l123 166q68 -49 136.5 -122.5t138 -180t113.5 -252t44 -301.5q0 -166 -43 -314.5t-114.5 -257t-138 -181t-136.5 -123.5l-121 157q57 61 93 108.5t84 134.5t72 207t21 267q0 143 -23.5 259t-72.5 201t-83 128t-93 104z" />
<glyph unicode="*" horiz-adv-x="772" d="M92 1106l189 96l-189 94l82 148l160 -152l-29 248h160l-31 -248l162 152l84 -148l-191 -94l191 -96l-84 -148l-162 152l31 -244h-160l29 244l-160 -152z" />
<glyph unicode="+" horiz-adv-x="866" d="M84 602v189h258v313h182v-313h258v-189h-258v-313h-182v313h-258z" />
<glyph unicode="," horiz-adv-x="497" d="M104 98.5q0 57.5 39.5 97.5t96.5 40q74 0 116.5 -60.5t42.5 -144.5q0 -205 -217 -326l-53 88q115 94 129 201q-12 -20 -43 -21q-49 0 -80 34t-31 91.5z" />
<glyph unicode="-" horiz-adv-x="874" d="M113 610v185h649v-185h-649z" />
<glyph unicode="." horiz-adv-x="468" d="M102 108.5q0 57.5 39 97.5t95 40q53 0 92 -40t39 -97.5t-39 -96.5t-92 -39q-55 0 -94.5 39t-39.5 96.5z" />
<glyph unicode="/" horiz-adv-x="886" d="M51 -74l559 1573h224l-562 -1573h-221z" />
<glyph unicode="0" horiz-adv-x="1245" d="M86 715q0 336 150.5 539.5t390.5 203.5q236 0 384 -201.5t148 -535.5q0 -336 -149.5 -541t-387 -205t-387 202t-149.5 538zM371 717q0 -248 67.5 -375t188.5 -127q117 0 182 126t65 374q0 244 -67.5 374t-184 130t-184 -129t-67.5 -373z" />
<glyph unicode="1" horiz-adv-x="710" d="M27 1223l340 211h194v-1434h-262v1116l-190 -82z" />
<glyph unicode="2" horiz-adv-x="1048" d="M74 1341q217 117 405 117q201 0 323 -120.5t122 -327.5q0 -82 -18.5 -152t-65.5 -137.5t-84 -110.5t-113 -123l-240 -247h566v-240h-875v229l410 437q166 180 166 335q0 102 -65.5 160t-170.5 58q-120 0 -282 -78z" />
<glyph unicode="3" horiz-adv-x="993" d="M66 88l77 199q131 -72 267 -72q119 0 179 60.5t60 158.5q0 123 -76.5 173t-189.5 50h-84v203h96q94 0 155.5 41t61.5 131q0 86 -56 136.5t-148 50.5q-121 -1 -248 -50l-66 197q49 29 156.5 60.5t214.5 31.5q186 0 291.5 -107.5t105.5 -277.5q0 -227 -198 -321 q246 -88 245 -355q0 -195 -125 -308.5t-340 -113.5q-221 0 -378 113z" />
<glyph unicode="4" horiz-adv-x="1067" d="M47 309v205l543 920h272v-914h133v-211h-133v-309h-260v309h-555zM279 520h323v553z" />
<glyph unicode="5" horiz-adv-x="1017" d="M47 88l78 188q131 -72 291 -71q125 0 197.5 75.5t72.5 192.5q0 111 -63.5 181.5t-159.5 70.5q-90 0 -156 -70l-182 99l68 680h692v-240h-508l-29 -324q86 68 195 68q178 0 287.5 -128t109.5 -339q0 -227 -132 -361.5t-359 -134.5q-242 0 -402 113z" />
<glyph unicode="6" horiz-adv-x="1097" d="M86 676q0 102 14.5 202.5t51 208t94 187.5t150.5 132t212 52q94 0 196.5 -31t172.5 -88l-96 -200q-35 27 -107 52.5t-149 25.5q-256 0 -293 -349l-10 -131q35 92 117.5 148.5t187.5 56.5q160 0 277.5 -124t117.5 -341q0 -223 -126 -362.5t-325 -139.5 q-164 0 -276.5 102.5t-160.5 256t-48 342.5zM356 459q0 -106 56.5 -180t152.5 -74q94 0 151.5 72.5t57.5 179.5q0 104 -54 180t-156.5 76t-155 -76t-52.5 -178z" />
<glyph unicode="7" horiz-adv-x="935" d="M66 1194v240h829l-2 -205l-483 -1229h-275l465 1194h-534z" />
<glyph unicode="8" horiz-adv-x="1058" d="M78 401q0 145 73.5 238.5t178.5 132.5q-84 33 -139.5 111t-55.5 194q0 172 117 276.5t276.5 104.5t275.5 -104.5t116 -276.5q0 -117 -56.5 -194.5t-138.5 -110.5q111 -41 182.5 -134t71.5 -239q0 -199 -129 -311.5t-313 -112.5q-186 0 -322.5 114t-136.5 312zM326 420 q0 -109 63.5 -163t139 -54t138 54t62.5 163q0 100 -57.5 160.5t-143.5 60.5t-144 -60.5t-58 -160.5zM371 1051q0 -82 43 -136.5t114 -54.5q70 0 113 54.5t43 136.5q0 84 -44 133t-111.5 49t-112.5 -49t-45 -133z" />
<glyph unicode="9" horiz-adv-x="1097" d="M74 956q0 223 126 362.5t324 139.5q164 0 276.5 -102.5t161 -256t48.5 -341.5q0 -102 -14.5 -202.5t-51.5 -208t-94 -187.5t-150.5 -132.5t-212.5 -52.5q-94 0 -196 31t-172 88l96 201q35 -27 106.5 -52.5t149.5 -25.5q150 0 229.5 136t73.5 343q-35 -92 -117 -146 t-188 -54q-162 0 -278.5 121.5t-116.5 338.5zM322 977q0 -102 54 -177t156.5 -75t154.5 73.5t52 176.5q0 106 -56 178t-152.5 72t-152.5 -72t-56 -176z" />
<glyph unicode=":" horiz-adv-x="489" d="M113 114.5q0 57.5 38.5 97.5t94.5 40q53 0 92 -40t39 -97.5t-39 -96t-92 -38.5q-55 0 -94 38.5t-39 96zM113 817q0 57 38.5 97t94.5 40q53 0 92 -40t39 -97t-39 -96t-92 -39q-55 0 -94 39t-39 96z" />
<glyph unicode=";" horiz-adv-x="526" d="M117 104.5q0 59.5 36 99.5t93 40q76 0 121 -60.5t45 -144.5q0 -209 -217 -326l-52 86q109 78 127 201q-10 -20 -43 -20q-51 0 -80.5 32.5t-29.5 92zM129 817q0 57 39 97t94 40q53 0 92 -40t39 -97t-39 -96t-92 -39q-55 0 -94 39t-39 96z" />
<glyph unicode="&#x3c;" horiz-adv-x="737" d="M76 625v145l536 309v-202l-288 -181l290 -186v-207z" />
<glyph unicode="=" horiz-adv-x="862" d="M119 430v188h624v-188h-624zM119 766v186h624v-186h-624z" />
<glyph unicode="&#x3e;" horiz-adv-x="737" d="M123 303v207l291 186l-287 181v202l537 -309v-145z" />
<glyph unicode="?" horiz-adv-x="886" d="M63 1329q160 129 355 129q158 0 277.5 -96t119.5 -262q0 -80 -31.5 -147.5t-76.5 -113.5t-91.5 -88t-78 -91.5t-31.5 -100.5v-106h-225v102q0 94 38 166q27 53 91.5 109.5t107.5 110.5t43 122q0 78 -49 118t-119 40q-109 0 -231 -86zM252 125q0 66 42 108.5t105.5 42.5 t104.5 -43t41 -108.5t-40 -107.5t-104 -42q-66 0 -107.5 43t-41.5 107z" />
<glyph unicode="@" horiz-adv-x="1570" d="M82 575q0 369 197.5 614t531.5 245q319 0 504.5 -230.5t185.5 -597.5q0 -467 -313 -467q-184 0 -227 152q-18 -55 -72.5 -100.5t-147.5 -45.5q-115 0 -188.5 73t-73.5 198q0 129 82 197.5t225 68.5q68 0 144 -14v73q0 68 -29 103t-83 35t-99 -8.5t-111 -26.5 q-14 -4 -20 -6l-37 135q135 61 287 61q262 0 262 -291v-362q0 -47 27.5 -74.5t70.5 -27.5q131 0 131 299q0 336 -141 510t-377 174q-260 0 -407.5 -198t-147.5 -491q0 -178 55.5 -319t176 -230.5t294.5 -89.5q139 0 252 56l64 -144q-160 -86 -330 -86q-319 0 -502.5 231.5 t-183.5 583.5zM649 428q0 -57 33 -93t90 -36q66 0 112 46t46 130v74q-43 12 -115 12q-166 0 -166 -133z" />
<glyph unicode="A" horiz-adv-x="1175" d="M23 0l403 1444h326l411 -1444h-293l-96 362h-379l-92 -362h-280zM455 592h260l-127 547h-6z" />
<glyph unicode="B" horiz-adv-x="1179" d="M143 0v1434h523q164 0 274.5 -108.5t110.5 -278.5q0 -135 -64.5 -213t-130.5 -99q96 -23 175 -105.5t79 -240.5q0 -178 -108.5 -283.5t-270.5 -105.5h-588zM422 240h240q76 0 124 50t48 132q0 80 -46.5 132t-121.5 52h-244v-366zM422 834h201q72 0 116.5 49t44.5 127 q0 80 -44 132t-115 52h-203v-360z" />
<glyph unicode="C" horiz-adv-x="1163" d="M70 717q0 342 188 541.5t487 199.5q111 -2 211.5 -37t157.5 -82l-94 -202l-10 6q-10 6 -23.5 13t-33 15.5t-42 16.5t-48 15t-57.5 11.5t-63 4.5q-174 0 -280.5 -140.5t-106.5 -361.5t106.5 -361.5t280.5 -140.5q154 0 277 82l94 -207q-57 -47 -158.5 -81t-210.5 -34 q-299 0 -487 199t-188 543z" />
<glyph unicode="D" horiz-adv-x="1251" d="M143 0v1434h455q174 0 299 -88q139 -98 208 -264.5t69 -365t-70 -366.5t-207 -262q-123 -88 -299 -88h-455zM422 240h115q119 0 192 51q158 117 158 428q0 303 -158 424q-74 51 -192 51h-115v-954z" />
<glyph unicode="E" horiz-adv-x="1120" d="M143 0v1434h883v-240h-604v-375h522v-237h-522v-342h614v-240h-893z" />
<glyph unicode="F" horiz-adv-x="1073" d="M143 0v1434h883v-240h-604v-389h522v-238h-522v-567h-279z" />
<glyph unicode="G" horiz-adv-x="1284" d="M70 717q0 334 190 537.5t481 203.5q238 0 412 -125l-98 -205q-35 25 -125 58t-180 33q-193 0 -293.5 -144.5t-100.5 -361.5q0 -231 97.5 -364.5t294.5 -133.5q127 0 206 78v274h-307v207h551v-569q-176 -229 -483 -230q-285 0 -465 204t-180 538z" />
<glyph unicode="H" horiz-adv-x="1345" d="M143 0v1434h279v-607h502v607h278v-1434h-278v575h-502v-575h-279z" />
<glyph unicode="I" horiz-adv-x="565" d="M143 0v1434h279v-1434h-279z" />
<glyph unicode="J" horiz-adv-x="929" d="M-2 205l164 151q33 -45 49 -64.5t61 -48t97 -28.5q80 0 115.5 54.5t35.5 133.5v1031h279v-947q0 -242 -105.5 -377t-310.5 -135q-242 0 -385 230z" />
<glyph unicode="K" horiz-adv-x="1196" d="M143 0v1434h279v-349l-4 -290h6l440 639h316l-463 -656l463 -778h-318l-325 575l-115 -141v-434h-279z" />
<glyph unicode="L" horiz-adv-x="987" d="M145 0v1434h279v-1194h539v-240h-818z" />
<glyph unicode="M" horiz-adv-x="1665" d="M143 0v1434h377l309 -1041h7l309 1041h377v-1434h-279v553l12 518h-6l-276 -987h-279l-278 987h-6l12 -518v-553h-279z" />
<glyph unicode="N" horiz-adv-x="1308" d="M143 0v1434h291l459 -918h4l-10 459v459h278v-1434h-291l-458 936h-4l10 -406v-530h-279z" />
<glyph unicode="O" horiz-adv-x="1417" d="M72 715q0 330 175 536.5t464 206.5q287 0 462 -207t175 -536q0 -326 -171 -533t-466 -207q-297 0 -468 207t-171 533zM358 715q0 -227 93.5 -363.5t259.5 -136.5q164 0 257 137t93 363q0 229 -95.5 366.5t-255 137.5t-256 -137.5t-96.5 -366.5z" />
<glyph unicode="P" horiz-adv-x="1157" d="M143 0v1434h519q209 0 332.5 -131.5t123.5 -330t-124 -329.5t-332 -131h-240v-512h-279zM422 752h186q119 0 178.5 63.5t59.5 155.5q0 90 -59.5 156.5t-172.5 66.5h-192v-442z" />
<glyph unicode="Q" horiz-adv-x="1419" d="M72 719q0 330 174 534.5t462.5 204.5t461.5 -205.5t173 -533.5q0 -227 -89 -403.5t-250 -266.5v-6q119 -70 346 -113l-64 -233q-186 45 -328.5 128t-212.5 152q-25 -2 -36 -2q-297 0 -467 209t-170 535zM356 715q0 -227 93.5 -363.5t259.5 -136.5q164 0 257 137t93 363 q0 229 -95.5 366.5t-255 137.5t-256 -137.5t-96.5 -366.5z" />
<glyph unicode="R" horiz-adv-x="1208" d="M143 0v1434h557q184 0 302 -129t118 -314q0 -279 -248 -395l293 -596h-299l-256 553h-188v-553h-279zM422 801h240q86 0 137 56t51 140q0 88 -49 142.5t-131 54.5h-248v-393z" />
<glyph unicode="S" horiz-adv-x="1034" d="M70 76l80 217q158 -84 313 -84q119 0 174 47t55 117q0 43 -17.5 76.5t-61.5 63.5t-75.5 46t-101.5 47q-78 35 -132 69t-110.5 86t-85 127t-28.5 169q0 197 125 299t334 102q217 0 393 -94l-74 -211l-18 6q-16 8 -45 18.5t-64 21.5t-79 18.5t-83 7.5q-104 0 -157.5 -46 t-53.5 -122t52.5 -118t173.5 -97q23 -8 32 -15q70 -33 112 -55t94 -61t81 -81t49.5 -104.5t20.5 -138.5q0 -209 -132.5 -310.5t-353.5 -101.5q-213 0 -417 101z" />
<glyph unicode="T" horiz-adv-x="1042" d="M23 1194v240h997v-240h-356v-1194h-279v1194h-362z" />
<glyph unicode="U" horiz-adv-x="1267" d="M129 500v934h279v-957q0 -121 60 -191.5t167 -70.5q102 0 163.5 71.5t61.5 190.5v957h279v-934q0 -231 -133.5 -378t-370.5 -147q-248 0 -377 149.5t-129 375.5z" />
<glyph unicode="V" horiz-adv-x="1181" d="M14 1434h287l291 -1100h4l291 1100h280l-411 -1434h-330z" />
<glyph unicode="W" horiz-adv-x="1822" d="M29 1434h293l221 -1076l215 1076h319l215 -1076l224 1076h278l-328 -1442h-344l-209 1028l-204 -1028h-342z" />
<glyph unicode="X" horiz-adv-x="1234" d="M8 0l436 717l-436 717h330l289 -492l282 492h308l-431 -717l441 -717h-332l-293 485l-274 -485h-320z" />
<glyph unicode="Y" horiz-adv-x="1120" d="M-10 1434h301l117 -230l149 -323h2l150 323l114 230h307l-434 -859v-575h-270v575z" />
<glyph unicode="Z" horiz-adv-x="1095" d="M57 0v190l619 1008l-256 -4h-332v240h936v-191l-618 -1010l253 7h365v-240h-967z" />
<glyph unicode="[" horiz-adv-x="585" d="M133 -369v1827h377v-213h-156v-1407h156v-207h-377z" />
<glyph unicode="\" horiz-adv-x="886" d="M53 1499h223l560 -1573h-222z" />
<glyph unicode="]" horiz-adv-x="587" d="M76 -162h157v1407h-157v213h379v-1827h-379v207z" />
<glyph unicode="_" horiz-adv-x="1069" d="M113 -111h843v-192h-843v192z" />
<glyph unicode="`" horiz-adv-x="628" d="M166 1460l182 103l141 -389h-165z" />
<glyph unicode="a" horiz-adv-x="1019" d="M43 322q0 182 110.5 268t297.5 86q66 0 165 -14v14q0 104 -39.5 141t-119.5 37q-127 0 -281 -43l-47 209q185 65 371 65h6q182 0 279.5 -90t97.5 -262v-467q0 -45 47 -45q10 0 39 4v-198q-6 -4 -23.5 -10.5t-53.5 -14.5t-71 -8q-76 0 -128 38t-54 109q-2 -6 -6 -17 t-23.5 -39t-46 -49.5t-76 -38.5t-110.5 -17q-145 0 -239.5 89t-94.5 253zM299 340q0 -63 37 -101t104 -38h2q174 0 174 196v84q-70 12 -129 13q-27 0 -53 -5.5t-59 -20.5t-54.5 -48t-21.5 -80z" />
<glyph unicode="b" d="M113 0v1499h270v-571q43 80 116.5 118.5t145.5 38.5q193 0 302.5 -161.5t109.5 -391.5q0 -236 -113 -394t-299 -158q-203 0 -276 188l-25 -168h-231zM375 532q0 -143 55 -236t154 -93q92 0 143 94t51 235q0 143 -51 236.5t-143 93.5q-96 0 -152.5 -94t-56.5 -236z" />
<glyph unicode="c" horiz-adv-x="897" d="M59 530.5q0 241.5 139.5 398t358.5 156.5q147 0 291 -86l-80 -184l-10 4q-10 6 -25.5 13.5t-35 14.5t-46 11t-51.5 4q-131 0 -199.5 -101.5t-68.5 -228t68.5 -228t199.5 -101.5q78 0 168 45l80 -182q-144 -86 -291 -86q-219 0 -358.5 154.5t-139.5 396z" />
<glyph unicode="d" d="M61 532q0 229 110 391t302 162q72 0 145.5 -38.5t116.5 -118.5v571h271v-1499h-232l-24 168q-74 -188 -277 -188q-186 0 -299 158.5t-113 393.5zM340 530q0 -141 51 -234t144 -93q98 0 152 93t54 236q0 141 -55 235.5t-151 94.5q-92 0 -143.5 -94t-51.5 -238z" />
<glyph unicode="e" horiz-adv-x="1003" d="M61 535q0 242 126 396t333 154q188 0 303 -138t119 -347q0 -92 -10 -151h-592q6 -121 79 -182.5t187 -61.5q121 0 244 59l63 -198q-145 -86 -354 -86q-227 0 -362.5 152.5t-135.5 402.5zM338 633h352q-2 94 -43 161.5t-117 67.5q-172 0 -192 -229z" />
<glyph unicode="f" horiz-adv-x="643" d="M35 856v180l127 29v78q0 190 66.5 283.5t236.5 93.5q80 -1 178 -17l-25 -205q-16 8 -88 9q-98 0 -98 -140v-102h182v-209h-182v-856h-270v856h-127z" />
<glyph unicode="g" horiz-adv-x="980" d="M74 -92q0 121 110 209q-94 51 -94 170q0 109 98 182q-90 100 -90 242q0 178 108.5 276t280.5 98q45 0 91.5 -5t70.5 -11l25 -4h262v-193l-115 -12q53 -55 53 -170q0 -156 -101 -254t-288 -98q-100 0 -161 37q-37 -25 -37 -68q0 -29 17.5 -46t59.5 -23.5t63.5 -7.5 t78.5 -1h100q74 0 130.5 -18t89 -46t53 -67t27.5 -74.5t7 -74.5q0 -307 -421 -307q-41 0 -81 3t-105.5 18t-113 41t-83 79t-35.5 125zM317 -51q0 -33 17.5 -54.5t54.5 -29.5t65.5 -10t80.5 -2q6 0 15 1t32.5 6t40 13t31 28.5t14.5 47.5q-1 78 -97 78q-170 0 -217 12 q-37 -35 -37 -90zM352 702q0 -78 37 -127t96 -49h2q59 0 96.5 49.5t37.5 126.5q0 80 -37.5 130.5t-96.5 50.5h-2q-57 0 -95 -50.5t-38 -130.5z" />
<glyph unicode="h" horiz-adv-x="1046" d="M113 0v1499h270v-555q25 55 90.5 98t153.5 43q133 0 224 -99t91 -331v-655h-270v662q0 200 -134 200h-1q-72 0 -113 -65.5t-41 -159.5v-637h-270z" />
<glyph unicode="i" horiz-adv-x="534" d="M59 872v193h363v-1065h-270v848zM113 1361.5q0 65.5 44 112t111.5 46.5t111.5 -46.5t44 -112t-44 -111.5t-111.5 -46t-111.5 46t-44 111.5z" />
<glyph unicode="j" horiz-adv-x="544" d="M-41 -315l41 200q49 -12 86 -12t56.5 26.5t19.5 110.5v838l-92 24v193h362v-1026q0 -109 -18 -174q-29 -102 -107 -157.5t-178 -55.5q-92 0 -170 33zM115 1361.5q0 65.5 44 112t111.5 46.5t111.5 -46.5t44 -112t-44 -111.5t-111.5 -46t-111.5 46t-44 111.5z" />
<glyph unicode="k" horiz-adv-x="968" d="M113 0v1499h270v-567l-6 -303l4 -2l295 438h282l-344 -490l334 -575h-270l-221 387l-74 -102v-285h-270z" />
<glyph unicode="l" horiz-adv-x="555" d="M123 256v1243h270v-1227q0 -69 66 -69h2q25 0 49 6v-207q-63 -22 -143 -22h-7q-111 0 -174 61t-63 215z" />
<glyph unicode="m" horiz-adv-x="1591" d="M113 0v1065h206l43 -160q27 78 95.5 129t163.5 51q184 0 241 -180q33 72 105.5 126t187.5 54q145 0 238.5 -101t93.5 -320v-664h-270v690q0 72 -32 122t-104 50q-74 0 -109.5 -55t-35.5 -141v-666h-270v694q0 70 -32 119t-106 49q-145 0 -145 -196v-666h-270z" />
<glyph unicode="n" horiz-adv-x="1056" d="M113 0v1065h206l43 -160q8 20 33 55t93.5 80t152.5 45q129 0 220 -100t91 -334v-651h-270v680q0 182 -147 182q-68 0 -110 -60.5t-42 -156.5v-645h-270z" />
<glyph unicode="o" horiz-adv-x="1064" d="M55 532q0 250 131 401.5t346 151.5q213 0 345.5 -152.5t132.5 -400t-133.5 -400t-344.5 -152.5q-213 0 -345 152t-132 400zM334 532.5q0 -145.5 49 -237.5t149 -92q96 0 147.5 93t51.5 236.5t-50.5 236.5t-148.5 93q-100 0 -149 -92t-49 -237.5z" />
<glyph unicode="p" d="M113 -348v1413h217l37 -158q88 178 278 178q186 0 299 -165.5t113 -401.5q0 -225 -109.5 -381.5t-300.5 -156.5q-102 0 -168.5 49t-95.5 114v-491h-270zM379 526q0 -137 56.5 -230t146.5 -93t142 92t52 233q0 139 -52 236.5t-140 97.5q-92 0 -148.5 -98t-56.5 -238z" />
<glyph unicode="q" d="M61 518q0 236 113 401.5t299 165.5q190 0 279 -178l36 158h218v-1413h-271v491q-29 -66 -95.5 -114.5t-168.5 -48.5q-190 0 -300 156.5t-110 381.5zM342 528q0 -141 52 -233t142.5 -92t146.5 93t56 230q0 139 -56 237.5t-148 98.5q-88 0 -140.5 -97t-52.5 -237z" />
<glyph unicode="r" horiz-adv-x="684" d="M113 0v1065h209l34 -201q6 27 18.5 51.5t42 66.5t88 67.5t136.5 25.5v-270q-137 0 -197.5 -75t-60.5 -228v-502h-270z" />
<glyph unicode="s" horiz-adv-x="856" d="M63 772q0 160 112 236.5t267 76.5q162 0 326 -75l-66 -195q-119 59 -233 59q-68 0 -102.5 -28.5t-34.5 -73.5q0 -49 37 -74.5t116 -54.5q63 -25 88 -34t80.5 -40.5t80 -62.5t47 -85t22.5 -120q0 -162 -107.5 -241.5t-267.5 -79.5q-190 0 -358 86l65 194q164 -67 255 -67 h3q147 0 148 106q0 23 -8.5 40t-17.5 28.5t-31.5 23.5t-37 18.5t-46 18.5t-48.5 18q-63 27 -101 47.5t-88 58.5t-75 93t-25 127z" />
<glyph unicode="t" horiz-adv-x="681" d="M33 856v184l119 21l43 311h227v-307h192v-209h-192v-537q0 -122 94 -122h2q18 0 41 4t37 8l14 4l11 -195q-106 -38 -198 -38h-5q-266 0 -266 346v530h-119z" />
<glyph unicode="u" horiz-adv-x="1040" d="M106 375v690h271v-670q0 -192 130 -192h1q76 0 112.5 61.5t36.5 159.5v641h271v-1065h-201l-43 143q-85 -163 -279 -163h-2q-51 0 -98 16t-94 56t-76 123t-29 200z" />
<glyph unicode="v" horiz-adv-x="1050" d="M41 1065h293l194 -754h4l203 754h275l-318 -1065h-332z" />
<glyph unicode="w" horiz-adv-x="1579" d="M41 1065h274l170 -715h4l162 715h277l164 -715h4l172 715h270l-276 -1065h-332l-142 629l-139 -629h-332z" />
<glyph unicode="x" horiz-adv-x="972" d="M29 1065h299l172 -350h2l174 350h270l-295 -537l289 -528h-291l-168 342h-2l-168 -342h-270l285 528z" />
<glyph unicode="y" horiz-adv-x="1040" d="M41 1065h285l206 -727l187 727h280l-430 -1413h-280l94 323z" />
<glyph unicode="z" horiz-adv-x="905" d="M57 0v207l478 645l-3 6l-233 -4h-227v211h762v-209l-472 -643l3 -6l237 4h232v-211h-777z" />
<glyph unicode="{" horiz-adv-x="610" d="M63 459v172q25 0 39.5 2t32 22.5t17.5 59.5v385q0 201 62 279.5t265 78.5h58v-205h-84q-53 0 -68.5 -26.5t-15.5 -110.5v-422q0 -125 -107 -149q106 -25 107 -150v-422q0 -84 15 -110.5t69 -26.5h84v-205h-58q-203 0 -265 79t-62 280v381q0 39 -17.5 60.5t-33 24.5 t-38.5 3z" />
<glyph unicode="|" horiz-adv-x="481" d="M131 -326v1942h219v-1942h-219z" />
<glyph unicode="}" horiz-adv-x="610" d="M76 -164h84q53 0 68.5 26.5t15.5 110.5v422q0 125 106 150q-106 25 -106 149v422q0 84 -15.5 110.5t-68.5 26.5h-84v205h57q203 0 265.5 -79t62.5 -279v-385q0 -39 17.5 -59.5t31.5 -22.5t39 -2v-172q-23 0 -38 -3t-32.5 -24.5t-17.5 -60.5v-381q0 -201 -62.5 -280 t-265.5 -79h-57v205z" />
<glyph unicode="&#xa1;" horiz-adv-x="520" d="M98 -369l54 977h221l55 -977h-330zM119 935.5q0 65.5 41 107.5t104.5 42t105.5 -43t42 -106q0 -66 -42 -109t-105.5 -43t-104.5 43t-41 108.5z" />
<glyph unicode="&#xa2;" horiz-adv-x="952" d="M66 700.5q0 219.5 112.5 366.5t300.5 176v174h127v-168q115 -6 252 -82l-67 -168q-8 6 -33 15.5t-74 21t-94 11.5q-129 0 -194.5 -99.5t-65.5 -247.5q0 -150 66.5 -247t195.5 -97q109 0 211 52l65 -170q-139 -78 -262 -86v-172h-127v178q-186 29 -299.5 176t-113.5 366.5 z" />
<glyph unicode="&#xa3;" horiz-adv-x="1028" d="M76 0v231q12 4 31.5 14.5t51 59.5t31.5 123v184h-77v152h77v221q0 203 102.5 338t293.5 135q209 0 344 -166l-146 -186q-68 90 -166 90q-74 0 -111.5 -54.5t-37.5 -150.5v-227h354v-152h-354v-166q0 -162 -92 -213h555v-233h-856z" />
<glyph unicode="&#xa5;" horiz-adv-x="1243" d="M51 1434h301l117 -230l149 -323h3l149 323l115 230h307l-434 -859v-55h182v-123h-182v-92h182v-123h-182v-182h-271v182h-182v123h182v92h-182v123h182v55z" />
<glyph unicode="&#xa7;" horiz-adv-x="1060" d="M84 553q0 100 41 176t84 109q-119 88 -119 245q0 164 118 257.5t318 93.5q215 0 402 -99l-84 -213q-33 16 -122 42t-167 26q-160 0 -160 -119q0 -70 60.5 -114t145.5 -70.5t170 -60t145.5 -107.5t60.5 -187q0 -98 -39 -173.5t-86 -110.5q119 -88 119 -248 q0 -164 -117 -256t-315 -92q-211 0 -404 102l82 209q141 -68 293 -67q156 0 156 118q0 68 -60.5 112t-145.5 71.5t-170 62.5t-145.5 108.5t-60.5 184.5zM313 596q0 -59 41 -100t94.5 -57.5t125 -41t110.5 -49.5q63 57 64 141q0 78 -60.5 119t-164 71.5t-146.5 57.5 q-63 -57 -64 -141z" />
<glyph unicode="&#xa8;" horiz-adv-x="983" d="M145 1350q0 57 38 96t91 39q57 0 96.5 -39t39.5 -96q0 -55 -39 -94t-97 -39q-53 0 -91 39t-38 94zM573 1350q0 57 38 96t93.5 39t94.5 -39t39 -96q0 -55 -39 -94t-94.5 -39t-93.5 39t-38 94z" />
<glyph unicode="&#xa9;" horiz-adv-x="1374" d="M82 721q0 293 177 503t429 210q250 0 427 -210t177 -503q0 -297 -179 -509t-429 -212q-248 0 -425 212t-177 509zM193 721q0 -252 144 -428t347 -176q207 0 352.5 176t145.5 428q0 244 -146.5 420t-351.5 176q-201 0 -346 -176t-145 -420zM352 721q0 170 100.5 281.5 t243.5 111.5q142 1 234 -110l-101 -111q-51 49 -108 49q-78 0 -122 -64.5t-44 -158.5q0 -96 43 -160.5t121 -64.5q59 0 112 53l101 -115q-90 -109 -235.5 -108.5t-245 113t-99.5 284.5z" />
<glyph unicode="&#xaa;" horiz-adv-x="882" d="M111 459v153h651v-153h-651zM111 944q0 123 78.5 180.5t205.5 57.5q35 0 129 -13v41q0 123 -129 123q-79 1 -188 -30l-35 149q127 47 268 47q133 0 204 -64.5t71 -189.5v-338q0 -33 33 -33q18 0 24 3v-142q-29 -16 -98 -16q-51 0 -88 28.5t-39 79.5q-4 -10 -14.5 -23 t-32 -34.5t-61.5 -36t-89 -14.5q-104 0 -171.5 56t-67.5 169zM295 954q0 -96 102 -96q57 0 92 39t35 113v47q-39 10 -92 10q-45 0 -91 -25.5t-46 -87.5z" />
<glyph unicode="&#xab;" horiz-adv-x="1181" d="M57 487v91l379 475l142 -144l-220 -377l217 -378l-139 -142zM580 487v91l378 475l142 -144l-219 -377l217 -378l-140 -142z" />
<glyph unicode="&#xad;" horiz-adv-x="874" d="M113 610v185h649v-185h-649z" />
<glyph unicode="&#xae;" horiz-adv-x="1003" d="M113 973q0 197 107.5 329t279.5 132q176 0 284.5 -132.5t108.5 -328.5q0 -193 -109.5 -326t-283.5 -133q-172 0 -279.5 133t-107.5 326zM207 973q0 -154 80 -256.5t213 -102.5q135 0 216 101.5t81 257.5q0 152 -81 256t-216 104q-133 0 -213 -104.5t-80 -255.5zM344 741 v478h184q59 0 97.5 -41t38.5 -105q0 -104 -78 -135l96 -197h-98l-88 187h-66v-187h-86zM430 1008h94q25 0 40.5 19.5t15.5 47.5q0 31 -17.5 48.5t-42.5 17.5h-90v-133z" />
<glyph unicode="&#xaf;" horiz-adv-x="833" d="M141 1210v166h553v-166h-553z" />
<glyph unicode="&#xb0;" horiz-adv-x="567" d="M92 1247.5q0 98.5 56.5 157.5t136.5 59t134 -59t54 -156q0 -100 -54 -160.5t-134 -60.5t-136.5 60.5t-56.5 159zM193 1247q0 -49 27.5 -76.5t64.5 -27.5q33 0 60.5 28.5t27.5 75.5t-27 75t-61 28q-37 0 -64.5 -29t-27.5 -74z" />
<glyph unicode="&#xb1;" horiz-adv-x="946" d="M111 625v172h274v293h178v-293h273v-172h-273v-291h-178v291h-274zM113 18v181h723v-181h-723z" />
<glyph unicode="&#xb4;" horiz-adv-x="628" d="M135 1180l141 389l183 -103l-158 -286h-166z" />
<glyph unicode="&#xb5;" horiz-adv-x="1087" d="M131 -348v1413h256v-586q0 -141 38 -211.5t142 -70.5q92 0 128 71.5t36 210.5v586h254v-1065h-186l-43 141q-6 -35 -22.5 -67.5t-61.5 -65.5t-107 -33q-59 0 -110.5 34t-67.5 95v-452h-256z" />
<glyph unicode="&#xb6;" horiz-adv-x="1165" d="M63 981q0 223 117 338t266 115h564v-1608h-197v1403h-174v-1403h-201v702h-28q-166 0 -256.5 126t-90.5 327z" />
<glyph unicode="&#xb7;" horiz-adv-x="540" d="M98 620.5q0 75.5 51 130t119 54.5q72 0 123 -54.5t51 -130t-51 -131t-123 -55.5q-68 0 -119 55.5t-51 131z" />
<glyph unicode="&#xb8;" horiz-adv-x="557" d="M100 -401l25 96l18 -4q18 -4 44 -8.5t44 -4.5q68 0 68 57.5t-63 57.5l-43 -4l-41 51l43 140h114l-24 -103q18 2 26 2q57 0 98.5 -36t41.5 -109q0 -82 -54.5 -121t-144.5 -39q-72 0 -152 25z" />
<glyph unicode="&#xba;" horiz-adv-x="933" d="M111 1110q0 170 99 279.5t261 109.5t261 -109.5t99 -279.5q0 -174 -99 -282.5t-261 -108.5q-164 0 -262 108.5t-98 282.5zM154 459v153h643v-153h-643zM317 1110q0 -100 41 -162.5t113 -62.5q70 0 112 64.5t42 160.5t-42 159.5t-112 63.5t-112 -63.5t-42 -159.5z" />
<glyph unicode="&#xbb;" horiz-adv-x="1187" d="M82 909l141 144l379 -475v-91l-379 -475l-139 142l217 378zM604 909l141 144l379 -475v-91l-379 -475l-139 142l217 378z" />
<glyph unicode="&#xbf;" horiz-adv-x="880" d="M70 -41q0 80 31.5 147.5t77.5 113.5t91 88t77 91.5t32 100.5v106h225v-102q0 -94 -39 -166q-27 -53 -91 -109.5t-107 -111t-43 -121.5q0 -78 49 -118t119 -40q109 0 231 86l98 -194q-159 -129 -354 -129q-158 0 -277.5 96t-119.5 262zM340 935.5q0 65.5 40 107.5t103 42 q66 0 108 -43t42 -106q0 -66 -42 -109t-105.5 -43t-104.5 43t-41 108.5z" />
<glyph unicode="&#xc0;" horiz-adv-x="1175" d="M23 0l403 1444h326l411 -1444h-293l-96 362h-379l-92 -362h-280zM352 1823l183 102l141 -389h-166zM455 592h260l-127 547h-6z" />
<glyph unicode="&#xc1;" horiz-adv-x="1175" d="M23 0l403 1444h326l411 -1444h-293l-96 362h-379l-92 -362h-280zM455 592h260l-127 547h-6zM512 1536l141 389l183 -102l-158 -287h-166z" />
<glyph unicode="&#xc2;" horiz-adv-x="1175" d="M23 0l403 1444h326l411 -1444h-293l-96 362h-379l-92 -362h-280zM274 1536l211 297h185l221 -297h-186l-121 184l-127 -184h-183zM455 592h260l-127 547h-6z" />
<glyph unicode="&#xc3;" horiz-adv-x="1175" d="M23 0l403 1444h326l411 -1444h-293l-96 362h-379l-92 -362h-280zM285 1622q37 74 91 127t120 53q51 0 122.5 -44t108.5 -44q49 0 94 70l70 -55q-86 -182 -209 -183q-57 0 -122.5 43t-104.5 43q-48 1 -99 -69zM455 592h260l-127 547h-6z" />
<glyph unicode="&#xc4;" horiz-adv-x="1175" d="M23 0l403 1444h326l411 -1444h-293l-96 362h-379l-92 -362h-280zM248 1673q0 57 38 96t91 39q57 0 96 -38.5t39 -96.5q0 -55 -39 -94t-96 -39q-53 0 -91 39t-38 94zM455 592h260l-127 547h-6zM676 1673q0 57 38 96t93 39t94 -38.5t39 -96.5q0 -55 -39 -94t-94 -39t-93 39 t-38 94z" />
<glyph unicode="&#xc5;" horiz-adv-x="1175" d="M23 0l403 1444h326l411 -1444h-293l-96 362h-379l-92 -362h-280zM395 1735q0 86 57.5 140t137.5 54q82 0 139 -54t57 -140t-58 -140.5t-138 -54.5t-137.5 54.5t-57.5 140.5zM455 592h260l-127 547h-6zM500 1735q0 -47 25.5 -75t64.5 -28t65.5 28t26.5 75t-25.5 72.5 t-66.5 25.5q-39 0 -64.5 -26.5t-25.5 -71.5z" />
<glyph unicode="&#xc6;" horiz-adv-x="1675" d="M-14 0l583 1434h1086v-240h-604v-375h522v-237h-522v-342h614v-240h-893v362h-352l-137 -362h-297zM508 592h264v573h-63z" />
<glyph unicode="&#xc7;" horiz-adv-x="1167" d="M72 717q0 342 188.5 541.5t487.5 199.5q111 -2 211 -37t157 -82l-94 -202l-10 6q-10 6 -23.5 13t-33 15.5t-42 16.5t-48 15t-57.5 11.5t-63 4.5q-174 0 -280.5 -140.5t-106.5 -361.5t106.5 -361.5t280.5 -140.5q154 0 277 82l94 -207q-55 -43 -146 -75.5t-192 -37.5 l-22 -96q18 2 26 2q57 0 98.5 -35.5t41.5 -109.5q0 -82 -54.5 -121t-144.5 -39q-72 0 -152 25l25 96l18 -4q18 -4 44 -8t44 -4q68 0 68 57t-63 57l-43 -4l-41 51l39 136q-264 29 -427 224t-163 513z" />
<glyph unicode="&#xc8;" d="M143 0v1434h883v-240h-604v-375h522v-237h-522v-342h614v-240h-893zM365 1823l182 102l141 -389h-166z" />
<glyph unicode="&#xc9;" d="M143 0v1434h883v-240h-604v-375h522v-237h-522v-342h614v-240h-893zM465 1536l141 389l182 -102l-157 -287h-166z" />
<glyph unicode="&#xca;" d="M143 0v1434h883v-240h-604v-375h522v-237h-522v-342h614v-240h-893zM289 1536l211 297h184l221 -297h-186l-121 184l-127 -184h-182z" />
<glyph unicode="&#xcb;" d="M143 0v1434h883v-240h-604v-375h522v-237h-522v-342h614v-240h-893zM240 1673q0 57 37.5 96t91.5 39q57 0 96 -38.5t39 -96.5q0 -55 -39 -94t-96 -39q-53 0 -91 39t-38 94zM668 1673q0 57 37.5 96t93 39t94.5 -38.5t39 -96.5q0 -55 -39 -94t-94.5 -39t-93 39t-37.5 94z " />
<glyph unicode="&#xcc;" horiz-adv-x="569" d="M47 1823l182 102l142 -389h-166zM147 0v1434h279v-1434h-279z" />
<glyph unicode="&#xcd;" horiz-adv-x="569" d="M143 0v1434h279v-1434h-279zM182 1536l142 389l182 -102l-158 -287h-166z" />
<glyph unicode="&#xce;" horiz-adv-x="569" d="M-23 1536l211 297h185l221 -297h-186l-121 184l-127 -184h-183zM145 0v1434h279v-1434h-279z" />
<glyph unicode="&#xcf;" horiz-adv-x="569" d="M-61 1673q0 57 37.5 96t91.5 39q57 0 96 -38.5t39 -96.5q0 -55 -39 -94t-96 -39q-53 0 -91 39t-38 94zM143 0v1434h279v-1434h-279zM367 1673q0 57 37.5 96t93 39t94.5 -38.5t39 -96.5q0 -55 -39 -94t-94.5 -39t-93 39t-37.5 94z" />
<glyph unicode="&#xd0;" horiz-adv-x="1259" d="M2 655v138h152v641h454q174 0 299 -88q139 -98 208 -264.5t69 -365t-70 -366.5t-207 -262q-123 -88 -299 -88h-454v655h-152zM432 240h115q119 0 192 51q158 117 158 428q0 303 -158 424q-74 51 -192 51h-115v-401h191v-138h-191v-415z" />
<glyph unicode="&#xd1;" horiz-adv-x="1308" d="M143 0v1434h291l459 -918h4l-10 459v459h278v-1434h-291l-458 936h-4l10 -406v-530h-279zM352 1622q37 74 91.5 127t119.5 53q51 0 123 -44t109 -44q49 0 94 70l69 -55q-86 -182 -208 -183q-57 0 -123 43t-105 43q-47 1 -98 -69z" />
<glyph unicode="&#xd2;" horiz-adv-x="1417" d="M72 715q0 330 175 536.5t464 206.5q287 0 462 -207t175 -536q0 -326 -171 -533t-466 -207q-297 0 -468 207t-171 533zM358 715q0 -227 93.5 -363.5t259.5 -136.5q164 0 257 137t93 363q0 229 -95.5 366.5t-255 137.5t-256 -137.5t-96.5 -366.5zM547 1823l182 102 l141 -389h-165z" />
<glyph unicode="&#xd3;" horiz-adv-x="1417" d="M72 715q0 330 175 536.5t464 206.5q287 0 462 -207t175 -536q0 -326 -171 -533t-466 -207q-297 0 -468 207t-171 533zM358 715q0 -227 93.5 -363.5t259.5 -136.5q164 0 257 137t93 363q0 229 -95.5 366.5t-255 137.5t-256 -137.5t-96.5 -366.5zM575 1536l142 389 l182 -102l-158 -287h-166z" />
<glyph unicode="&#xd4;" horiz-adv-x="1417" d="M72 715q0 330 175 536.5t464 206.5q287 0 462 -207t175 -536q0 -326 -171 -533t-466 -207q-297 0 -468 207t-171 533zM358 715q0 -227 93.5 -363.5t259.5 -136.5q164 0 257 137t93 363q0 229 -95.5 366.5t-255 137.5t-256 -137.5t-96.5 -366.5zM399 1536l211 297h185 l221 -297h-187l-120 184l-127 -184h-183z" />
<glyph unicode="&#xd5;" horiz-adv-x="1417" d="M72 715q0 330 175 536.5t464 206.5q287 0 462 -207t175 -536q0 -326 -171 -533t-466 -207q-297 0 -468 207t-171 533zM358 715q0 -227 93.5 -363.5t259.5 -136.5q164 0 257 137t93 363q0 229 -95.5 366.5t-255 137.5t-256 -137.5t-96.5 -366.5zM414 1622q37 74 91 127 t120 53q51 0 122.5 -44t108.5 -44q49 0 94 70l70 -55q-86 -182 -209 -183q-57 0 -122.5 43t-104.5 43q-48 1 -99 -69z" />
<glyph unicode="&#xd6;" horiz-adv-x="1417" d="M72 715q0 330 175 536.5t464 206.5q287 0 462 -207t175 -536q0 -326 -171 -533t-466 -207q-297 0 -468 207t-171 533zM358 715q0 -227 93.5 -363.5t259.5 -136.5q164 0 257 137t93 363q0 229 -95.5 366.5t-255 137.5t-256 -137.5t-96.5 -366.5zM367 1673q0 57 37.5 96 t91.5 39q57 0 96 -38.5t39 -96.5q0 -55 -39 -94t-96 -39q-53 0 -91 39t-38 94zM795 1673q0 57 37.5 96t93 39t94.5 -38.5t39 -96.5q0 -55 -39 -94t-94.5 -39t-93 39t-37.5 94z" />
<glyph unicode="&#xd7;" horiz-adv-x="808" d="M104 879l113 100l189 -215l186 215l110 -100l-198 -228l190 -221l-114 -100l-179 205l-176 -205l-108 100l188 217z" />
<glyph unicode="&#xd8;" horiz-adv-x="1417" d="M72 715q0 330 175 536.5t464 206.5q156 0 284 -67l64 112h192l-116 -211q213 -209 213 -577q0 -326 -171 -533t-466 -207q-147 0 -279 60l-57 -105h-193l111 199q-221 205 -221 586zM358 715q0 -205 74 -334l442 790q-72 47 -163 48q-160 0 -256.5 -137.5t-96.5 -366.5z M555 254q72 -39 156 -39q164 0 257 137.5t93 362.5q0 193 -70 321z" />
<glyph unicode="&#xd9;" horiz-adv-x="1267" d="M129 500v934h279v-957q0 -121 60 -191.5t167 -70.5q102 0 163.5 71.5t61.5 190.5v957h279v-934q0 -231 -133.5 -378t-370.5 -147q-248 0 -377 149.5t-129 375.5zM438 1823l183 102l141 -389h-166z" />
<glyph unicode="&#xda;" horiz-adv-x="1267" d="M129 500v934h279v-957q0 -121 60 -191.5t167 -70.5q102 0 163.5 71.5t61.5 190.5v957h279v-934q0 -231 -133.5 -378t-370.5 -147q-248 0 -377 149.5t-129 375.5zM524 1536l142 389l182 -102l-158 -287h-166z" />
<glyph unicode="&#xdb;" horiz-adv-x="1267" d="M129 500v934h279v-957q0 -121 60 -191.5t167 -70.5q102 0 163.5 71.5t61.5 190.5v957h279v-934q0 -231 -133.5 -378t-370.5 -147q-248 0 -377 149.5t-129 375.5zM324 1536l211 297h184l221 -297h-186l-121 184l-127 -184h-182z" />
<glyph unicode="&#xdc;" horiz-adv-x="1267" d="M129 500v934h279v-957q0 -121 60 -191.5t167 -70.5q102 0 163.5 71.5t61.5 190.5v957h279v-934q0 -231 -133.5 -378t-370.5 -147q-248 0 -377 149.5t-129 375.5zM293 1673q0 57 38 96t91 39q57 0 96 -38.5t39 -96.5q0 -55 -39 -94t-96 -39q-53 0 -91 39t-38 94zM721 1673 q0 57 38 96t93 39t94 -38.5t39 -96.5q0 -55 -39 -94t-94 -39t-93 39t-38 94z" />
<glyph unicode="&#xdd;" horiz-adv-x="1122" d="M-10 1434h301l117 -230l149 -323h2l150 323l114 230h307l-434 -859v-575h-270v575zM457 1536l141 389l182 -102l-157 -287h-166z" />
<glyph unicode="&#xde;" horiz-adv-x="1159" d="M143 0v1434h279v-250h260q186 0 311 -133t125 -326q0 -195 -125 -329t-311 -134h-260v-262h-279zM422 502h192q119 0 174.5 60.5t55.5 158.5q0 100 -54.5 161.5t-164.5 61.5h-203v-442z" />
<glyph unicode="&#xdf;" horiz-adv-x="1089" d="M113 0v981q0 207 101 342t312 135q184 0 292 -107.5t108 -283.5q0 -100 -45 -196.5t-45 -137.5q0 -49 33.5 -95t73.5 -80t74 -104.5t34 -162.5q0 -166 -98.5 -253t-247.5 -87q-102 0 -222 43l35 207q72 -29 133 -29q66 0 107 39t41 119q0 49 -21.5 90t-53.5 70.5 t-62.5 59.5t-52 74t-21.5 97q0 70 53 156t53 157q0 74 -38 129.5t-113 55.5q-80 0 -120 -58.5t-40 -156.5v-1004h-270z" />
<glyph unicode="&#xe0;" horiz-adv-x="1019" d="M43 322q0 182 110.5 268t297.5 86q66 0 165 -14v14q0 104 -39.5 141t-119.5 37q-127 0 -281 -43l-47 209q188 66 377 65q182 0 279.5 -90t97.5 -262v-467q0 -45 47 -45q10 0 39 4v-198q-6 -4 -23.5 -10.5t-53.5 -14.5t-71 -8q-76 0 -128 38t-54 109q-2 -6 -6 -17 t-23.5 -39t-46 -49.5t-76 -38.5t-110.5 -17q-145 0 -239.5 89t-94.5 253zM299 340q0 -63 37 -101t104 -38q176 -1 176 196v84q-70 12 -129 13q-27 0 -53 -5.5t-59 -20.5t-54.5 -48t-21.5 -80zM315 1495l183 102l141 -389h-166z" />
<glyph unicode="&#xe1;" horiz-adv-x="1019" d="M43 322q0 182 110.5 268t297.5 86q66 0 165 -14v14q0 104 -39.5 141t-119.5 37q-127 0 -281 -43l-47 209q188 66 377 65q182 0 279.5 -90t97.5 -262v-467q0 -45 47 -45q10 0 39 4v-198q-6 -4 -23.5 -10.5t-53.5 -14.5t-71 -8q-76 0 -128 38t-54 109q-2 -6 -6 -17 t-23.5 -39t-46 -49.5t-76 -38.5t-110.5 -17q-145 0 -239.5 89t-94.5 253zM299 340q0 -63 37 -101t104 -38q176 -1 176 196v84q-70 12 -129 13q-27 0 -53 -5.5t-59 -20.5t-54.5 -48t-21.5 -80zM393 1208l142 389l182 -102l-158 -287h-166z" />
<glyph unicode="&#xe2;" horiz-adv-x="1019" d="M43 322q0 182 110.5 268t297.5 86q66 0 165 -14v14q0 104 -39.5 141t-119.5 37q-127 0 -281 -43l-47 209q188 66 377 65q182 0 279.5 -90t97.5 -262v-467q0 -45 47 -45q10 0 39 4v-198q-6 -4 -23.5 -10.5t-53.5 -14.5t-71 -8q-76 0 -128 38t-54 109q-2 -6 -6 -17 t-23.5 -39t-46 -49.5t-76 -38.5t-110.5 -17q-145 0 -239.5 89t-94.5 253zM219 1188l211 297h184l222 -297h-187l-121 184l-127 -184h-182zM299 340q0 -63 37 -101t104 -38q176 -1 176 196v84q-70 12 -129 13q-27 0 -53 -5.5t-59 -20.5t-54.5 -48t-21.5 -80z" />
<glyph unicode="&#xe3;" horiz-adv-x="1019" d="M43 322q0 182 110.5 268t297.5 86q66 0 165 -14v14q0 104 -39.5 141t-119.5 37q-127 0 -281 -43l-47 209q188 66 377 65q182 0 279.5 -90t97.5 -262v-467q0 -45 47 -45q10 0 39 4v-198q-6 -4 -23.5 -10.5t-53.5 -14.5t-71 -8q-76 0 -128 38t-54 109q-2 -6 -6 -17 t-23.5 -39t-46 -49.5t-76 -38.5t-110.5 -17q-145 0 -239.5 89t-94.5 253zM217 1300q37 74 91 127.5t120 53.5q51 0 123 -44t108 -44q49 0 95 69l69 -55q-86 -182 -209 -182q-57 0 -122.5 43t-104.5 43q-47 0 -98 -70zM299 340q0 -63 37 -101t104 -38q176 -1 176 196v84 q-70 12 -129 13q-27 0 -53 -5.5t-59 -20.5t-54.5 -48t-21.5 -80z" />
<glyph unicode="&#xe4;" horiz-adv-x="1019" d="M43 322q0 182 110.5 268t297.5 86q66 0 165 -14v14q0 104 -39.5 141t-119.5 37q-127 0 -281 -43l-47 209q188 66 377 65q182 0 279.5 -90t97.5 -262v-467q0 -45 47 -45q10 0 39 4v-198q-6 -4 -23.5 -10.5t-53.5 -14.5t-71 -8q-76 0 -128 38t-54 109q-2 -6 -6 -17 t-23.5 -39t-46 -49.5t-76 -38.5t-110.5 -17q-145 0 -239.5 89t-94.5 253zM178 1343q0 57 38 96.5t91 39.5q57 0 96 -39t39 -97q0 -55 -38.5 -94t-96.5 -39q-53 0 -91 39t-38 94zM299 340q0 -63 37 -101t104 -38q176 -1 176 196v84q-70 12 -129 13q-27 0 -53 -5.5t-59 -20.5 t-54.5 -48t-21.5 -80zM606 1343q0 57 38 96.5t93.5 39.5t94 -39t38.5 -97q0 -55 -38.5 -94t-94 -39t-93.5 39t-38 94z" />
<glyph unicode="&#xe5;" horiz-adv-x="1019" d="M43 322q0 182 110.5 268t297.5 86q66 0 165 -14v14q0 104 -39.5 141t-119.5 37q-127 0 -281 -43l-47 209q188 66 377 65q182 0 279.5 -90t97.5 -262v-467q0 -45 47 -45q10 0 39 4v-198q-6 -4 -23.5 -10.5t-53.5 -14.5t-71 -8q-76 0 -128 38t-54 109q-2 -6 -6 -17 t-23.5 -39t-46 -49.5t-76 -38.5t-110.5 -17q-145 0 -239.5 89t-94.5 253zM299 340q0 -63 37 -101t104 -38q176 -1 176 196v84q-70 12 -129 13q-27 0 -53 -5.5t-59 -20.5t-54.5 -48t-21.5 -80zM358 1407q0 86 57.5 140.5t137.5 54.5q82 0 139.5 -54.5t57.5 -140.5 t-58.5 -140.5t-138.5 -54.5t-137.5 54.5t-57.5 140.5zM463 1407q0 -47 25.5 -74.5t64.5 -27.5t65.5 27.5t26.5 74.5t-25.5 72.5t-66.5 25.5q-39 0 -64.5 -26.5t-25.5 -71.5z" />
<glyph unicode="&#xe6;" horiz-adv-x="1521" d="M43 326q0 174 110.5 262t280.5 88q100 0 203 -14q4 27 16 57q-8 78 -53 106.5t-135 28.5q-135 0 -289 -43l-47 209q193 66 387 65q229 0 320 -122q123 123 315 122q188 0 303 -138t119 -347q0 -92 -10 -151h-623q6 -121 86 -182.5t211 -61.5q121 0 244 59l63 -198 q-145 -86 -360 -86q-123 0 -235.5 53t-182.5 137q-76 -94 -160 -142t-217 -48q-143 0 -244.5 93t-101.5 253zM299 350q0 -74 40 -111.5t97 -37.5q152 0 232 118q-20 57 -33 160q-47 14 -143 15q-37 0 -74 -7.5t-78 -42t-41 -94.5zM938 633h383q4 88 -39 158.5t-127 70.5 q-88 0 -151.5 -63.5t-65.5 -165.5z" />
<glyph unicode="&#xe7;" horiz-adv-x="899" d="M61 530q0 242 139.5 398.5t358.5 156.5q147 0 291 -86l-80 -184l-10 4q-10 6 -25.5 13.5t-35 14.5t-46 11t-51.5 4q-131 0 -199.5 -101.5t-68.5 -228t68.5 -228t199.5 -101.5q78 0 168 45l80 -182q-144 -86 -291 -86h-2l-25 -103q18 2 27 2q57 0 98 -36t41 -109 q0 -82 -54 -121t-144 -39q-72 0 -152 25l25 96l18 -4q18 -4 44 -8.5t44 -4.5q68 0 68 57.5t-64 57.5l-43 -4l-41 51l43 154q-174 39 -277.5 184.5t-103.5 351.5z" />
<glyph unicode="&#xe8;" horiz-adv-x="1003" d="M61 535q0 242 126 396t333 154q188 0 303 -138t119 -347q0 -92 -10 -151h-592q6 -121 79 -182.5t187 -61.5q121 0 244 59l63 -198q-145 -86 -354 -86q-227 0 -362.5 152.5t-135.5 402.5zM338 633h352q-2 94 -43 161.5t-117 67.5q-172 0 -192 -229zM360 1495l183 102 l141 -389h-166z" />
<glyph unicode="&#xe9;" horiz-adv-x="1003" d="M61 535q0 242 126 396t333 154q188 0 303 -138t119 -347q0 -92 -10 -151h-592q6 -121 79 -182.5t187 -61.5q121 0 244 59l63 -198q-145 -86 -354 -86q-227 0 -362.5 152.5t-135.5 402.5zM338 633h352q-2 94 -43 161.5t-117 67.5q-172 0 -192 -229zM395 1208l142 389 l182 -102l-158 -287h-166z" />
<glyph unicode="&#xea;" horiz-adv-x="1003" d="M61 535q0 242 126 396t333 154q188 0 303 -138t119 -347q0 -92 -10 -151h-592q6 -121 79 -182.5t187 -61.5q121 0 244 59l63 -198q-145 -86 -354 -86q-227 0 -362.5 152.5t-135.5 402.5zM225 1188l211 297h185l221 -297h-187l-120 184l-127 -184h-183zM338 633h352 q-2 94 -43 161.5t-117 67.5q-172 0 -192 -229z" />
<glyph unicode="&#xeb;" horiz-adv-x="1003" d="M61 535q0 242 126 396t333 154q188 0 303 -138t119 -347q0 -92 -10 -151h-592q6 -121 79 -182.5t187 -61.5q121 0 244 59l63 -198q-145 -86 -354 -86q-227 0 -362.5 152.5t-135.5 402.5zM193 1343q0 57 37.5 96.5t91.5 39.5q57 0 96 -39t39 -97q0 -55 -39 -94t-96 -39 q-53 0 -91 39t-38 94zM338 633h352q-2 94 -43 161.5t-117 67.5q-172 0 -192 -229zM621 1343q0 57 37.5 96.5t93 39.5t94.5 -39t39 -97q0 -55 -39 -94t-94.5 -39t-93 39t-37.5 94z" />
<glyph unicode="&#xec;" horiz-adv-x="532" d="M16 1495l183 102l141 -389h-166zM57 872v193h363v-1065h-270v848z" />
<glyph unicode="&#xed;" horiz-adv-x="536" d="M59 872v193h363v-1065h-270v848zM172 1208l141 389l183 -102l-158 -287h-166z" />
<glyph unicode="&#xee;" horiz-adv-x="532" d="M-61 1188l211 297h184l221 -297h-186l-121 184l-127 -184h-182zM59 872v193h363v-1065h-270v848z" />
<glyph unicode="&#xef;" horiz-adv-x="530" d="M-102 1343q0 57 37.5 96.5t91.5 39.5q57 0 96 -39t39 -97q0 -55 -39 -94t-96 -39q-53 0 -91 39t-38 94zM55 872v193h363v-1065h-271v848zM326 1343q0 57 37.5 96.5t93 39.5t94.5 -39t39 -97q0 -55 -39 -94t-94.5 -39t-93 39t-37.5 94z" />
<glyph unicode="&#xf0;" horiz-adv-x="1011" d="M47 485q0 231 116 363.5t306 132.5q84 0 145.5 -37t79.5 -63q-39 217 -172 362l-149 -125l-74 86l145 125q-71 76 -188 135l72 121q141 -51 250 -145l139 123l76 -88l-134 -117q154 -158 225.5 -362.5t71.5 -409.5q0 -283 -128 -442.5t-339 -159.5q-207 0 -324.5 142 t-117.5 359zM299 483q0 -111 50 -192.5t145 -81.5q88 0 143 84t55 198.5t-56 190.5t-140 76q-96 0 -146.5 -80t-50.5 -195z" />
<glyph unicode="&#xf1;" horiz-adv-x="1056" d="M113 0v1065h206l43 -160q8 20 33 55t93.5 80t152.5 45q129 0 220 -100t91 -334v-651h-270v680q0 182 -147 182q-68 0 -110 -60.5t-42 -156.5v-645h-270zM231 1300q37 74 91.5 127.5t119.5 53.5q51 0 123 -44t109 -44q49 0 94 69l70 -55q-86 -182 -209 -182q-57 0 -123 43 t-105 43q-47 0 -98 -70z" />
<glyph unicode="&#xf2;" horiz-adv-x="1064" d="M55 532q0 250 131 401.5t346 151.5q213 0 345.5 -152.5t132.5 -400t-133.5 -400t-344.5 -152.5q-213 0 -345 152t-132 400zM334 532.5q0 -145.5 49 -237.5t149 -92q96 0 147.5 93t51.5 236.5t-50.5 236.5t-148.5 93q-100 0 -149 -92t-49 -237.5zM338 1495l182 102 l142 -389h-166z" />
<glyph unicode="&#xf3;" horiz-adv-x="1064" d="M55 532q0 250 131 401.5t346 151.5q213 0 345.5 -152.5t132.5 -400t-133.5 -400t-344.5 -152.5q-213 0 -345 152t-132 400zM334 532.5q0 -145.5 49 -237.5t149 -92q96 0 147.5 93t51.5 236.5t-50.5 236.5t-148.5 93q-100 0 -149 -92t-49 -237.5zM399 1208l142 389 l182 -102l-158 -287h-166z" />
<glyph unicode="&#xf4;" horiz-adv-x="1064" d="M55 532q0 250 131 401.5t346 151.5q213 0 345.5 -152.5t132.5 -400t-133.5 -400t-344.5 -152.5q-213 0 -345 152t-132 400zM221 1188l211 297h184l222 -297h-187l-121 184l-127 -184h-182zM334 532.5q0 -145.5 49 -237.5t149 -92q96 0 147.5 93t51.5 236.5t-50.5 236.5 t-148.5 93q-100 0 -149 -92t-49 -237.5z" />
<glyph unicode="&#xf5;" horiz-adv-x="1064" d="M55 532q0 250 131 401.5t346 151.5q213 0 345.5 -152.5t132.5 -400t-133.5 -400t-344.5 -152.5q-213 0 -345 152t-132 400zM238 1300q37 74 91 127.5t120 53.5q51 0 122.5 -44t108.5 -44q49 0 94 69l70 -55q-86 -182 -209 -182q-57 0 -123 43t-104 43q-48 0 -99 -70z M334 532.5q0 -145.5 49 -237.5t149 -92q96 0 147.5 93t51.5 236.5t-50.5 236.5t-148.5 93q-100 0 -149 -92t-49 -237.5z" />
<glyph unicode="&#xf6;" horiz-adv-x="1064" d="M55 532q0 250 131 401.5t346 151.5q213 0 345.5 -152.5t132.5 -400t-133.5 -400t-344.5 -152.5q-213 0 -345 152t-132 400zM190 1343q0 57 38 96.5t91 39.5q57 0 96.5 -39t39.5 -97q0 -55 -39 -94t-97 -39q-53 0 -91 39t-38 94zM334 532.5q0 -145.5 49 -237.5t149 -92 q96 0 147.5 93t51.5 236.5t-50.5 236.5t-148.5 93q-100 0 -149 -92t-49 -237.5zM618 1343q0 57 38 96.5t93.5 39.5t94.5 -39t39 -97q0 -55 -39 -94t-94.5 -39t-93.5 39t-38 94z" />
<glyph unicode="&#xf7;" horiz-adv-x="1017" d="M96 586v178h826v-178h-826zM385 1036q0 57 37 95t88 38t89 -38.5t38 -94t-38 -95.5t-89 -40t-88 40t-37 95zM387 315.5q0 55.5 37 94.5t86 39q51 0 88 -39t37 -95q0 -53 -37 -93t-88 -40t-87 39t-36 94.5z" />
<glyph unicode="&#xf8;" horiz-adv-x="1064" d="M55 532q0 250 131 401.5t346 151.5q104 0 201 -43l68 121h153l-110 -196q166 -154 166 -435q0 -248 -133.5 -400t-344.5 -152q-117 0 -215 49l-55 -99h-151l98 176q-154 158 -154 426zM334 532q0 -98 20 -167l264 473q-43 24 -86 24q-100 0 -149 -92t-49 -238zM432 233 q39 -31 100 -30q96 0 147.5 93t51.5 236q0 102 -29 185z" />
<glyph unicode="&#xf9;" horiz-adv-x="1040" d="M106 375v690h271v-670q0 -193 131 -192q76 0 112.5 61.5t36.5 159.5v641h271v-1065h-201l-43 143q-86 -164 -281 -163q-51 0 -98 16t-94 56t-76 123t-29 200zM305 1495l182 102l142 -389h-166z" />
<glyph unicode="&#xfa;" horiz-adv-x="1040" d="M106 375v690h271v-670q0 -193 131 -192q76 0 112.5 61.5t36.5 159.5v641h271v-1065h-201l-43 143q-86 -164 -281 -163q-51 0 -98 16t-94 56t-76 123t-29 200zM406 1208l141 389l182 -102l-158 -287h-165z" />
<glyph unicode="&#xfb;" horiz-adv-x="1040" d="M106 375v690h271v-670q0 -193 131 -192q76 0 112.5 61.5t36.5 159.5v641h271v-1065h-201l-43 143q-86 -164 -281 -163q-51 0 -98 16t-94 56t-76 123t-29 200zM207 1188l211 297h184l221 -297h-186l-121 184l-127 -184h-182z" />
<glyph unicode="&#xfc;" horiz-adv-x="1040" d="M106 375v690h271v-670q0 -193 131 -192q76 0 112.5 61.5t36.5 159.5v641h271v-1065h-201l-43 143q-86 -164 -281 -163q-51 0 -98 16t-94 56t-76 123t-29 200zM174 1343q0 57 38 96.5t91 39.5q57 0 96 -39t39 -97q0 -55 -39 -94t-96 -39q-53 0 -91 39t-38 94zM602 1343 q0 57 38 96.5t93 39.5t94 -39t39 -97q0 -55 -39 -94t-94 -39t-93 39t-38 94z" />
<glyph unicode="&#xfd;" horiz-adv-x="1040" d="M41 1065h285l206 -727l187 727h280l-430 -1413h-280l94 323zM424 1208l141 389l183 -102l-158 -287h-166z" />
<glyph unicode="&#xfe;" horiz-adv-x="1120" d="M113 -348v1782h270v-498q88 149 262 149q186 0 299 -165.5t113 -401.5q0 -225 -109.5 -381.5t-300.5 -156.5q-102 0 -168.5 49t-95.5 114v-491h-270zM379 526q0 -137 56.5 -230t146.5 -93t142 92t52 233.5t-52 237.5t-140 96q-92 0 -148.5 -97t-56.5 -239z" />
<glyph unicode="&#xff;" horiz-adv-x="1040" d="M41 1065h285l206 -727l187 727h280l-430 -1413h-280l94 323zM188 1343q0 57 38 96.5t91 39.5q57 0 96.5 -39t39.5 -97q0 -55 -39 -94t-97 -39q-53 0 -91 39t-38 94zM616 1343q0 57 38 96.5t93.5 39.5t94.5 -39t39 -97q0 -55 -39 -94t-94.5 -39t-93.5 39t-38 94z" />
<glyph unicode="&#x152;" horiz-adv-x="2031" d="M74 719q0 319 168 529t446 210q123 0 220.5 -42t148.5 -113v131h882v-240h-600v-375h519v-237h-519v-342h611v-240h-893v129q-51 -72 -148.5 -113t-220.5 -41q-279 0 -446.5 210t-167.5 534zM360 715q0 -227 93.5 -363.5t259.5 -136.5q164 0 257 137t93 363 q0 229 -95.5 366.5t-255 137.5t-256 -137.5t-96.5 -366.5z" />
<glyph unicode="&#x153;" horiz-adv-x="1658" d="M49 532q0 250 131 401.5t346 151.5q152 0 266.5 -81.5t168.5 -225.5q51 141 161.5 224t257.5 83q188 0 303 -138t119 -347q0 -92 -10 -151h-592q6 -121 79 -182.5t187 -61.5q121 0 244 59l64 -198q-145 -86 -355 -86q-164 0 -282.5 80.5t-173.5 226.5q-53 -143 -169 -225 t-268 -82q-213 0 -345 152t-132 400zM328 532.5q0 -145.5 49 -237.5t149 -92q96 0 147.5 93t51.5 236.5t-50.5 236.5t-148.5 93q-100 0 -149 -92t-49 -237.5zM1198 633h352q-2 94 -42.5 161.5t-116.5 67.5q-172 0 -193 -229z" />
<glyph unicode="&#x178;" horiz-adv-x="1122" d="M-10 1434h301l117 -230l149 -323h2l150 323l114 230h307l-434 -859v-575h-270v575zM215 1673q0 57 38 96t91 39q57 0 96 -38.5t39 -96.5q0 -55 -39 -94t-96 -39q-53 0 -91 39t-38 94zM643 1673q0 57 38 96t93 39t94 -38.5t39 -96.5q0 -55 -39 -94t-94 -39t-93 39t-38 94z " />
<glyph unicode="&#x2c6;" horiz-adv-x="972" d="M178 1239l211 297h184l222 -297h-187l-121 184l-127 -184h-182z" />
<glyph unicode="&#x2dc;" horiz-adv-x="886" d="M141 1262q37 74 91.5 127t119.5 53q51 0 123 -44t109 -44q49 0 94 69l70 -55q-86 -182 -209 -182q-57 0 -123 43t-105 43q-47 0 -98 -70z" />
<glyph unicode="&#x2000;" horiz-adv-x="964" />
<glyph unicode="&#x2001;" horiz-adv-x="1929" />
<glyph unicode="&#x2002;" horiz-adv-x="964" />
<glyph unicode="&#x2003;" horiz-adv-x="1929" />
<glyph unicode="&#x2004;" horiz-adv-x="643" />
<glyph unicode="&#x2005;" horiz-adv-x="482" />
<glyph unicode="&#x2006;" horiz-adv-x="321" />
<glyph unicode="&#x2007;" horiz-adv-x="321" />
<glyph unicode="&#x2008;" horiz-adv-x="241" />
<glyph unicode="&#x2009;" horiz-adv-x="385" />
<glyph unicode="&#x200a;" horiz-adv-x="107" />
<glyph unicode="&#x2010;" horiz-adv-x="874" d="M113 610v185h649v-185h-649z" />
<glyph unicode="&#x2011;" horiz-adv-x="874" d="M113 610v185h649v-185h-649z" />
<glyph unicode="&#x2012;" horiz-adv-x="874" d="M113 610v185h649v-185h-649z" />
<glyph unicode="&#x2013;" horiz-adv-x="1243" d="M113 610v185h1017v-185h-1017z" />
<glyph unicode="&#x2014;" horiz-adv-x="1660" d="M113 610v185h1435v-185h-1435z" />
<glyph unicode="&#x2018;" horiz-adv-x="485" d="M92 1139q0 205 219 325l54 -88q-121 -92 -127 -200q-2 0 3 5t15 10t25 5q47 0 76.5 -33t29.5 -92q0 -57 -36 -97t-91 -40q-76 0 -122 60.5t-46 144.5z" />
<glyph unicode="&#x2019;" horiz-adv-x="479" d="M98 1325q0 57 36 98t91 41q76 0 122 -61.5t46 -145.5q0 -207 -219 -323l-53 88q121 88 127 199q2 0 -3 -5.5t-15.5 -10.5t-24.5 -5q-47 0 -77 33t-30 92z" />
<glyph unicode="&#x201a;" horiz-adv-x="495" d="M100 125q0 57 36 97t93 40q76 0 122 -60.5t46 -144.5q0 -205 -219 -323l-53 86q119 96 125 200q2 0 -3 -5t-16.5 -10t-23.5 -5q-47 0 -77 33t-30 92z" />
<glyph unicode="&#x201c;" horiz-adv-x="880" d="M90 1139q0 203 219 325l53 -88q-117 -90 -124 -200q6 20 43 20q47 0 76.5 -34t29.5 -91q0 -59 -36 -98t-93 -39q-76 0 -122 60.5t-46 144.5zM487 1139q0 203 220 325l53 -88q-115 -84 -125 -200q6 20 41 20q49 0 78.5 -35t29.5 -90q0 -59 -36 -98t-93 -39 q-76 0 -122 60.5t-46 144.5z" />
<glyph unicode="&#x201d;" horiz-adv-x="878" d="M98 1325q0 59 36 99t91 40q76 0 123 -61.5t47 -145.5q0 -207 -221 -323l-53 88q117 82 127 199q-14 -20 -41 -21q-51 0 -80 36t-29 89zM496 1325q0 59 37 99t92 40q76 0 122 -61.5t46 -145.5q0 -205 -220 -323l-53 88q117 90 125 199q-6 -20 -43 -21q-47 0 -76.5 34 t-29.5 91z" />
<glyph unicode="&#x201e;" horiz-adv-x="890" d="M100 125q0 59 36 98t91 39q78 0 124 -60.5t46 -144.5q0 -205 -219 -323l-53 86q117 90 125 200q-14 -20 -41 -20q-51 0 -80 36t-29 89zM498 125q0 59 36 98t93 39q76 0 122 -60.5t46 -144.5q0 -205 -220 -323l-53 86q117 90 125 200q-6 -20 -43 -20q-47 0 -76.5 34 t-29.5 91z" />
<glyph unicode="&#x2022;" horiz-adv-x="763" d="M137 711q0 104 74 180t172 76t170 -76t72 -184q0 -104 -72 -179t-170 -75q-100 0 -173 74.5t-73 183.5z" />
<glyph unicode="&#x2026;" horiz-adv-x="1394" d="M102 114.5q0 57.5 38 97.5t93 40q53 0 92.5 -40t39.5 -97.5t-39 -96t-93 -38.5q-55 0 -93 38.5t-38 96zM532 114.5q0 57.5 38 97.5t94 40q53 0 92 -40t39 -97.5t-39 -96t-92 -38.5q-55 0 -93.5 38.5t-38.5 96zM963 114.5q0 57.5 38.5 97.5t94.5 40q53 0 92 -40t39 -97.5 t-39 -96t-92 -38.5q-55 0 -94 38.5t-39 96z" />
<glyph unicode="&#x202f;" horiz-adv-x="385" />
<glyph unicode="&#x2039;" horiz-adv-x="663" d="M63 487v91l379 475l142 -144l-219 -377l217 -378l-140 -142z" />
<glyph unicode="&#x203a;" horiz-adv-x="669" d="M82 909l141 144l379 -475v-91l-379 -475l-139 142l217 378z" />
<glyph unicode="&#x205f;" horiz-adv-x="482" />
<glyph unicode="&#x20ac;" horiz-adv-x="1366" d="M39 782l45 133h139q53 258 240.5 400.5t449.5 142.5q242 -10 394 -112l-74 -213q-143 84 -326 84q-145 0 -249.5 -80t-153.5 -222h577l-45 -133h-553q-4 -45 -4 -65q0 -41 6 -78h502l-45 -133h-434q47 -135 152.5 -212t246.5 -77q176 0 332 78v-250q-154 -70 -326 -70 q-260 0 -445 139.5t-241 391.5h-182l45 133h115q-2 25 -2 78q0 43 2 65h-166z" />
<glyph unicode="&#x2122;" horiz-adv-x="1413" d="M113 1280v154h518v-154h-178v-492h-162v492h-178zM688 788v646h150l147 -414l143 414h152v-646h-152v342l-90 -284h-108l-90 284v-342h-152z" />
<glyph unicode="&#x25fc;" horiz-adv-x="1064" d="M0 0v1065h1065v-1065h-1065z" />
</font>
</defs>
</svg>
